%TF.GenerationSoftware,KiCad,Pcbnew,(5.1.12)-1*%
%TF.CreationDate,2022-01-07T12:55:28+01:00*%
%TF.ProjectId,leddriver,6c656464-7269-4766-9572-2e6b69636164,rev?*%
%TF.SameCoordinates,Original*%
%TF.FileFunction,Copper,L2,Bot*%
%TF.FilePolarity,Positive*%
%FSLAX46Y46*%
G04 Gerber Fmt 4.6, Leading zero omitted, Abs format (unit mm)*
G04 Created by KiCad (PCBNEW (5.1.12)-1) date 2022-01-07 12:55:28*
%MOMM*%
%LPD*%
G01*
G04 APERTURE LIST*
%TA.AperFunction,ComponentPad*%
%ADD10C,1.600000*%
%TD*%
%TA.AperFunction,ComponentPad*%
%ADD11R,1.500000X1.050000*%
%TD*%
%TA.AperFunction,ComponentPad*%
%ADD12O,1.500000X1.050000*%
%TD*%
%TA.AperFunction,ComponentPad*%
%ADD13O,1.600000X1.600000*%
%TD*%
%TA.AperFunction,ComponentPad*%
%ADD14R,1.600000X1.600000*%
%TD*%
%TA.AperFunction,ComponentPad*%
%ADD15O,1.400000X1.400000*%
%TD*%
%TA.AperFunction,ComponentPad*%
%ADD16C,1.400000*%
%TD*%
%TA.AperFunction,ComponentPad*%
%ADD17C,1.200000*%
%TD*%
%TA.AperFunction,ComponentPad*%
%ADD18R,1.200000X1.200000*%
%TD*%
%TA.AperFunction,ComponentPad*%
%ADD19C,3.000000*%
%TD*%
%TA.AperFunction,ComponentPad*%
%ADD20R,3.000000X3.000000*%
%TD*%
%TA.AperFunction,ComponentPad*%
%ADD21O,1.700000X1.700000*%
%TD*%
%TA.AperFunction,ComponentPad*%
%ADD22R,1.700000X1.700000*%
%TD*%
%TA.AperFunction,ComponentPad*%
%ADD23R,2.000000X2.000000*%
%TD*%
%TA.AperFunction,ComponentPad*%
%ADD24O,2.000000X2.000000*%
%TD*%
%TA.AperFunction,ViaPad*%
%ADD25C,0.800000*%
%TD*%
%TA.AperFunction,Conductor*%
%ADD26C,0.200000*%
%TD*%
%TA.AperFunction,Conductor*%
%ADD27C,0.254000*%
%TD*%
%TA.AperFunction,Conductor*%
%ADD28C,0.100000*%
%TD*%
G04 APERTURE END LIST*
D10*
%TO.P,C4,2*%
%TO.N,GND*%
X93766000Y-33841000D03*
%TO.P,C4,1*%
%TO.N,+12V*%
X96266000Y-33841000D03*
%TD*%
D11*
%TO.P,U1,1*%
%TO.N,+5V*%
X95250000Y-39116000D03*
D12*
%TO.P,U1,3*%
%TO.N,+12V*%
X95250000Y-36576000D03*
%TO.P,U1,2*%
%TO.N,GND*%
X95250000Y-37846000D03*
%TD*%
D13*
%TO.P,U2,16*%
%TO.N,Net-(J4-Pad1)*%
X78178000Y-80178000D03*
%TO.P,U2,8*%
%TO.N,GND*%
X85798000Y-62398000D03*
%TO.P,U2,15*%
%TO.N,Net-(J4-Pad3)*%
X78178000Y-77638000D03*
%TO.P,U2,7*%
%TO.N,Net-(U2-Pad7)*%
X85798000Y-64938000D03*
%TO.P,U2,14*%
%TO.N,Net-(J4-Pad5)*%
X78178000Y-75098000D03*
%TO.P,U2,6*%
%TO.N,/pwm1*%
X85798000Y-67478000D03*
%TO.P,U2,13*%
%TO.N,Net-(J3-Pad1)*%
X78178000Y-72558000D03*
%TO.P,U2,5*%
%TO.N,/pwm2*%
X85798000Y-70018000D03*
%TO.P,U2,12*%
%TO.N,Net-(J3-Pad3)*%
X78178000Y-70018000D03*
%TO.P,U2,4*%
%TO.N,/pwm3*%
X85798000Y-72558000D03*
%TO.P,U2,11*%
%TO.N,Net-(J3-Pad5)*%
X78178000Y-67478000D03*
%TO.P,U2,3*%
%TO.N,/pwm4*%
X85798000Y-75098000D03*
%TO.P,U2,10*%
%TO.N,Net-(U2-Pad10)*%
X78178000Y-64938000D03*
%TO.P,U2,2*%
%TO.N,/pwm5*%
X85798000Y-77638000D03*
%TO.P,U2,9*%
%TO.N,Net-(U2-Pad9)*%
X78178000Y-62398000D03*
D14*
%TO.P,U2,1*%
%TO.N,/pwm6*%
X85798000Y-80178000D03*
%TD*%
D15*
%TO.P,R6,2*%
%TO.N,+5V*%
X85798000Y-59223000D03*
D16*
%TO.P,R6,1*%
%TO.N,Net-(J4-Pad2)*%
X78178000Y-59223000D03*
%TD*%
D15*
%TO.P,R5,2*%
%TO.N,+5V*%
X85798000Y-56937000D03*
D16*
%TO.P,R5,1*%
%TO.N,Net-(J4-Pad4)*%
X78178000Y-56937000D03*
%TD*%
D15*
%TO.P,R4,2*%
%TO.N,+5V*%
X85798000Y-54651000D03*
D16*
%TO.P,R4,1*%
%TO.N,Net-(J4-Pad6)*%
X78178000Y-54651000D03*
%TD*%
D15*
%TO.P,R3,2*%
%TO.N,+5V*%
X85798000Y-52365000D03*
D16*
%TO.P,R3,1*%
%TO.N,Net-(J3-Pad2)*%
X78178000Y-52365000D03*
%TD*%
D15*
%TO.P,R2,2*%
%TO.N,+5V*%
X85798000Y-50079000D03*
D16*
%TO.P,R2,1*%
%TO.N,Net-(J3-Pad4)*%
X78178000Y-50079000D03*
%TD*%
D15*
%TO.P,R1,2*%
%TO.N,+5V*%
X85798000Y-47793000D03*
D16*
%TO.P,R1,1*%
%TO.N,Net-(J3-Pad6)*%
X78178000Y-47793000D03*
%TD*%
D10*
%TO.P,C3,2*%
%TO.N,GND*%
X93776000Y-41930000D03*
%TO.P,C3,1*%
%TO.N,+5V*%
X96276000Y-41930000D03*
%TD*%
D17*
%TO.P,C2,2*%
%TO.N,GND*%
X94395000Y-45417000D03*
D18*
%TO.P,C2,1*%
%TO.N,+5V*%
X95895000Y-45417000D03*
%TD*%
D17*
%TO.P,C1,2*%
%TO.N,GND*%
X94371000Y-30373000D03*
D18*
%TO.P,C1,1*%
%TO.N,+12V*%
X95871000Y-30373000D03*
%TD*%
D19*
%TO.P,J4,6*%
%TO.N,Net-(J4-Pad6)*%
X67145000Y-60207000D03*
%TO.P,J4,5*%
%TO.N,Net-(J4-Pad5)*%
X67145000Y-65287000D03*
%TO.P,J4,4*%
%TO.N,Net-(J4-Pad4)*%
X67145000Y-70367000D03*
D20*
%TO.P,J4,1*%
%TO.N,Net-(J4-Pad1)*%
X67145000Y-85607000D03*
D19*
%TO.P,J4,3*%
%TO.N,Net-(J4-Pad3)*%
X67145000Y-75447000D03*
%TO.P,J4,2*%
%TO.N,Net-(J4-Pad2)*%
X67145000Y-80527000D03*
%TD*%
%TO.P,J3,6*%
%TO.N,Net-(J3-Pad6)*%
X67145000Y-29727000D03*
%TO.P,J3,5*%
%TO.N,Net-(J3-Pad5)*%
X67145000Y-34807000D03*
%TO.P,J3,4*%
%TO.N,Net-(J3-Pad4)*%
X67145000Y-39887000D03*
D20*
%TO.P,J3,1*%
%TO.N,Net-(J3-Pad1)*%
X67145000Y-55127000D03*
D19*
%TO.P,J3,3*%
%TO.N,Net-(J3-Pad3)*%
X67145000Y-44967000D03*
%TO.P,J3,2*%
%TO.N,Net-(J3-Pad2)*%
X67145000Y-50047000D03*
%TD*%
%TO.P,J2,6*%
%TO.N,Net-(A1-Pad19)*%
X96000000Y-78400000D03*
%TO.P,J2,5*%
%TO.N,Net-(A1-Pad20)*%
X96000000Y-73320000D03*
%TO.P,J2,4*%
%TO.N,Net-(A1-Pad21)*%
X96000000Y-68240000D03*
D20*
%TO.P,J2,1*%
%TO.N,Net-(A1-Pad24)*%
X96000000Y-53000000D03*
D19*
%TO.P,J2,3*%
%TO.N,Net-(A1-Pad22)*%
X96000000Y-63160000D03*
%TO.P,J2,2*%
%TO.N,Net-(A1-Pad23)*%
X96000000Y-58080000D03*
%TD*%
%TO.P,J1,4*%
%TO.N,Net-(D1-Pad2)*%
X89660000Y-24500000D03*
D20*
%TO.P,J1,1*%
%TO.N,GND*%
X74420000Y-24500000D03*
D19*
%TO.P,J1,3*%
%TO.N,Net-(D1-Pad4)*%
X84580000Y-24500000D03*
%TO.P,J1,2*%
%TO.N,+12V*%
X79500000Y-24500000D03*
%TD*%
D21*
%TO.P,J5,5*%
%TO.N,GND*%
X101500000Y-45540000D03*
%TO.P,J5,4*%
%TO.N,+5V*%
X101500000Y-43000000D03*
%TO.P,J5,3*%
%TO.N,/btn*%
X101500000Y-40460000D03*
%TO.P,J5,2*%
%TO.N,/data*%
X101500000Y-37920000D03*
D22*
%TO.P,J5,1*%
%TO.N,/clock*%
X101500000Y-35380000D03*
%TD*%
D23*
%TO.P,D1,1*%
%TO.N,+12V*%
X80518000Y-42846000D03*
D24*
%TO.P,D1,3*%
%TO.N,GND*%
X85518000Y-37846000D03*
%TO.P,D1,2*%
%TO.N,Net-(D1-Pad2)*%
X85518000Y-42846000D03*
%TO.P,D1,4*%
%TO.N,Net-(D1-Pad4)*%
X80518000Y-37846000D03*
%TD*%
D13*
%TO.P,A1,16*%
%TO.N,Net-(A1-Pad16)*%
X89740000Y-77560000D03*
%TO.P,A1,15*%
%TO.N,Net-(A1-Pad15)*%
X74500000Y-77560000D03*
%TO.P,A1,30*%
%TO.N,Net-(A1-Pad30)*%
X89740000Y-42000000D03*
%TO.P,A1,14*%
%TO.N,/pwm6*%
X74500000Y-75020000D03*
%TO.P,A1,29*%
%TO.N,GND*%
X89740000Y-44540000D03*
%TO.P,A1,13*%
%TO.N,/pwm5*%
X74500000Y-72480000D03*
%TO.P,A1,28*%
%TO.N,Net-(A1-Pad28)*%
X89740000Y-47080000D03*
%TO.P,A1,12*%
%TO.N,/pwm4*%
X74500000Y-69940000D03*
%TO.P,A1,27*%
%TO.N,+5V*%
X89740000Y-49620000D03*
%TO.P,A1,11*%
%TO.N,/btn*%
X74500000Y-67400000D03*
%TO.P,A1,26*%
%TO.N,Net-(A1-Pad26)*%
X89740000Y-52160000D03*
%TO.P,A1,10*%
%TO.N,/data*%
X74500000Y-64860000D03*
%TO.P,A1,25*%
%TO.N,Net-(A1-Pad25)*%
X89740000Y-54700000D03*
%TO.P,A1,9*%
%TO.N,/pwm3*%
X74500000Y-62320000D03*
%TO.P,A1,24*%
%TO.N,Net-(A1-Pad24)*%
X89740000Y-57240000D03*
%TO.P,A1,8*%
%TO.N,/pwm2*%
X74500000Y-59780000D03*
%TO.P,A1,23*%
%TO.N,Net-(A1-Pad23)*%
X89740000Y-59780000D03*
%TO.P,A1,7*%
%TO.N,/clock*%
X74500000Y-57240000D03*
%TO.P,A1,22*%
%TO.N,Net-(A1-Pad22)*%
X89740000Y-62320000D03*
%TO.P,A1,6*%
%TO.N,/pwm1*%
X74500000Y-54700000D03*
%TO.P,A1,21*%
%TO.N,Net-(A1-Pad21)*%
X89740000Y-64860000D03*
%TO.P,A1,5*%
%TO.N,Net-(A1-Pad5)*%
X74500000Y-52160000D03*
%TO.P,A1,20*%
%TO.N,Net-(A1-Pad20)*%
X89740000Y-67400000D03*
%TO.P,A1,4*%
%TO.N,GND*%
X74500000Y-49620000D03*
%TO.P,A1,19*%
%TO.N,Net-(A1-Pad19)*%
X89740000Y-69940000D03*
%TO.P,A1,3*%
%TO.N,Net-(A1-Pad3)*%
X74500000Y-47080000D03*
%TO.P,A1,18*%
%TO.N,Net-(A1-Pad18)*%
X89740000Y-72480000D03*
%TO.P,A1,2*%
%TO.N,Net-(A1-Pad2)*%
X74500000Y-44540000D03*
%TO.P,A1,17*%
%TO.N,Net-(A1-Pad17)*%
X89740000Y-75020000D03*
D14*
%TO.P,A1,1*%
%TO.N,Net-(A1-Pad1)*%
X74500000Y-42000000D03*
%TD*%
D25*
%TO.N,*%
X80899000Y-59817000D03*
X80899000Y-56515000D03*
%TO.N,GND*%
X88646000Y-21336000D03*
X64262000Y-27559000D03*
X64135000Y-66929000D03*
X64516000Y-74930000D03*
X63500000Y-84074000D03*
X70612000Y-86741000D03*
X80899000Y-85344000D03*
X94107000Y-84328000D03*
X100965000Y-76708000D03*
X98806000Y-76200000D03*
X98425000Y-61087000D03*
X100838000Y-58547000D03*
X87884000Y-61214000D03*
X87757000Y-66294000D03*
X87757000Y-72644000D03*
X87630000Y-78486000D03*
X81026000Y-79121000D03*
X82931000Y-76200000D03*
X83566000Y-74041000D03*
X82296000Y-68834000D03*
X81788000Y-65659000D03*
X82423000Y-62103000D03*
X82550000Y-53975000D03*
X81026000Y-50673000D03*
X83185000Y-47625000D03*
X87503000Y-45847000D03*
X91567000Y-45974000D03*
X92202000Y-39116000D03*
X97790000Y-36703000D03*
X99187000Y-38735000D03*
X99187000Y-32766000D03*
X99441000Y-27813000D03*
X93472000Y-25654000D03*
X91313000Y-32131000D03*
X87503000Y-35814000D03*
X81534000Y-33020000D03*
X82423000Y-41021000D03*
X78613000Y-35560000D03*
X75438000Y-33655000D03*
X70231000Y-37465000D03*
X70612000Y-53594000D03*
X69850000Y-47752000D03*
X70485000Y-42164000D03*
X69850000Y-59817000D03*
X91440000Y-82550000D03*
%TO.N,Net-(J3-Pad4)*%
X76778001Y-39878000D03*
%TD*%
D26*
%TO.N,Net-(J3-Pad4)*%
X76769001Y-39887000D02*
X76778001Y-39878000D01*
X67145000Y-39887000D02*
X76769001Y-39887000D01*
%TO.N,Net-(J3-Pad2)*%
X68157999Y-51059999D02*
X67145000Y-50047000D01*
X76872999Y-51059999D02*
X68157999Y-51059999D01*
X78178000Y-52365000D02*
X76872999Y-51059999D01*
%TO.N,Net-(J4-Pad6)*%
X76689001Y-56139999D02*
X71212001Y-56139999D01*
X71212001Y-56139999D02*
X67145000Y-60207000D01*
X78178000Y-54651000D02*
X76689001Y-56139999D01*
%TO.N,Net-(J4-Pad4)*%
X74311997Y-58340001D02*
X69977000Y-62674998D01*
X76774999Y-58340001D02*
X74311997Y-58340001D01*
X78178000Y-56937000D02*
X76774999Y-58340001D01*
X69977000Y-67535000D02*
X67145000Y-70367000D01*
X69977000Y-62674998D02*
X69977000Y-67535000D01*
%TO.N,Net-(J4-Pad2)*%
X78178000Y-59223000D02*
X76187000Y-61214000D01*
X73977998Y-61214000D02*
X71374000Y-63817998D01*
X76187000Y-61214000D02*
X73977998Y-61214000D01*
X71374000Y-76298000D02*
X71374000Y-72136000D01*
X67145000Y-80527000D02*
X71374000Y-76298000D01*
X71374000Y-63817998D02*
X71374000Y-72136000D01*
%TO.N,Net-(J3-Pad3)*%
X67154000Y-44958000D02*
X67145000Y-44967000D01*
%TO.N,Net-(J3-Pad1)*%
X67154000Y-55118000D02*
X67145000Y-55127000D01*
%TO.N,Net-(J4-Pad5)*%
X67154000Y-65278000D02*
X67145000Y-65287000D01*
%TO.N,/clock*%
X97917000Y-38735000D02*
X101272000Y-35380000D01*
X74500000Y-57240000D02*
X76154698Y-57240000D01*
X86176001Y-51364999D02*
X87376000Y-50165000D01*
X92964000Y-50165000D02*
X97917000Y-45212000D01*
X76154698Y-57240000D02*
X77457699Y-55936999D01*
X83128001Y-51364999D02*
X86176001Y-51364999D01*
X90268001Y-50720001D02*
X90823002Y-50165000D01*
X77457699Y-55936999D02*
X78556001Y-55936999D01*
X78556001Y-55936999D02*
X83128001Y-51364999D01*
X87376000Y-50165000D02*
X88656998Y-50165000D01*
X101272000Y-35380000D02*
X101500000Y-35380000D01*
X88656998Y-50165000D02*
X89211999Y-50720001D01*
X89211999Y-50720001D02*
X90268001Y-50720001D01*
X90823002Y-50165000D02*
X92964000Y-50165000D01*
X97917000Y-45212000D02*
X97917000Y-38735000D01*
%TO.N,/data*%
X100650001Y-38769999D02*
X101500000Y-37920000D01*
X98317009Y-41102991D02*
X100650001Y-38769999D01*
X90446299Y-53260001D02*
X98317009Y-45389291D01*
X83286999Y-55651001D02*
X87160997Y-55651001D01*
X89551997Y-53260001D02*
X90446299Y-53260001D01*
X98317009Y-45389291D02*
X98317009Y-41102991D01*
X87160997Y-55651001D02*
X89551997Y-53260001D01*
X75299999Y-64060001D02*
X75299999Y-63638001D01*
X74500000Y-64860000D02*
X75299999Y-64060001D01*
X75299999Y-63638001D02*
X83286999Y-55651001D01*
%TO.N,/btn*%
X74500000Y-66987998D02*
X74500000Y-67400000D01*
X77649999Y-63837999D02*
X74500000Y-66987998D01*
X83981003Y-58222999D02*
X78366003Y-63837999D01*
X85992003Y-58222999D02*
X83981003Y-58222999D01*
X90268001Y-56139999D02*
X88075003Y-56139999D01*
X90840001Y-55567999D02*
X90268001Y-56139999D01*
X90840001Y-53431999D02*
X90840001Y-55567999D01*
X98717020Y-45554980D02*
X90840001Y-53431999D01*
X101500000Y-40460000D02*
X98717020Y-43242980D01*
X78366003Y-63837999D02*
X77649999Y-63837999D01*
X98717020Y-43242980D02*
X98717020Y-45554980D01*
X88075003Y-56139999D02*
X85992003Y-58222999D01*
%TD*%
D27*
%TO.N,GND*%
X102340001Y-33891928D02*
X100650000Y-33891928D01*
X100525518Y-33904188D01*
X100405820Y-33940498D01*
X100295506Y-33999463D01*
X100198815Y-34078815D01*
X100119463Y-34175506D01*
X100060498Y-34285820D01*
X100024188Y-34405518D01*
X100011928Y-34530000D01*
X100011928Y-35600625D01*
X97422808Y-38189746D01*
X97394763Y-38212762D01*
X97302914Y-38324680D01*
X97255068Y-38414194D01*
X97234664Y-38452367D01*
X97192635Y-38590915D01*
X97178444Y-38735000D01*
X97182001Y-38771115D01*
X97182001Y-40809511D01*
X96955727Y-40658320D01*
X96694574Y-40550147D01*
X96417335Y-40495000D01*
X96134665Y-40495000D01*
X95857426Y-40550147D01*
X95596273Y-40658320D01*
X95361241Y-40815363D01*
X95161363Y-41015241D01*
X95027308Y-41215869D01*
X95012671Y-41188486D01*
X94768702Y-41116903D01*
X93955605Y-41930000D01*
X94768702Y-42743097D01*
X95012671Y-42671514D01*
X95026324Y-42642659D01*
X95161363Y-42844759D01*
X95361241Y-43044637D01*
X95596273Y-43201680D01*
X95857426Y-43309853D01*
X96134665Y-43365000D01*
X96417335Y-43365000D01*
X96694574Y-43309853D01*
X96955727Y-43201680D01*
X97182000Y-43050489D01*
X97182000Y-44907553D01*
X97133072Y-44956481D01*
X97133072Y-44817000D01*
X97120812Y-44692518D01*
X97084502Y-44572820D01*
X97025537Y-44462506D01*
X96946185Y-44365815D01*
X96849494Y-44286463D01*
X96739180Y-44227498D01*
X96619482Y-44191188D01*
X96495000Y-44178928D01*
X95295000Y-44178928D01*
X95170518Y-44191188D01*
X95050820Y-44227498D01*
X94940506Y-44286463D01*
X94923319Y-44300568D01*
X94796484Y-44242763D01*
X94559687Y-44187000D01*
X94316562Y-44178505D01*
X94076451Y-44217605D01*
X93848582Y-44302798D01*
X93772148Y-44343652D01*
X93724841Y-44567236D01*
X94395000Y-45237395D01*
X94409143Y-45223253D01*
X94588748Y-45402858D01*
X94574605Y-45417000D01*
X94588748Y-45431143D01*
X94409143Y-45610748D01*
X94395000Y-45596605D01*
X93724841Y-46266764D01*
X93772148Y-46490348D01*
X93993516Y-46591237D01*
X94230313Y-46647000D01*
X94473438Y-46655495D01*
X94713549Y-46616395D01*
X94927117Y-46536549D01*
X94940506Y-46547537D01*
X95050820Y-46606502D01*
X95170518Y-46642812D01*
X95295000Y-46655072D01*
X95434481Y-46655072D01*
X92659554Y-49430000D01*
X91165320Y-49430000D01*
X91119853Y-49201426D01*
X91011680Y-48940273D01*
X90854637Y-48705241D01*
X90654759Y-48505363D01*
X90422241Y-48350000D01*
X90654759Y-48194637D01*
X90854637Y-47994759D01*
X91011680Y-47759727D01*
X91119853Y-47498574D01*
X91175000Y-47221335D01*
X91175000Y-46938665D01*
X91119853Y-46661426D01*
X91011680Y-46400273D01*
X90854637Y-46165241D01*
X90654759Y-45965363D01*
X90419727Y-45808320D01*
X90409135Y-45803933D01*
X90595131Y-45692385D01*
X90803519Y-45503414D01*
X90809431Y-45495438D01*
X93156505Y-45495438D01*
X93195605Y-45735549D01*
X93280798Y-45963418D01*
X93321652Y-46039852D01*
X93545236Y-46087159D01*
X94215395Y-45417000D01*
X93545236Y-44746841D01*
X93321652Y-44794148D01*
X93220763Y-45015516D01*
X93165000Y-45252313D01*
X93156505Y-45495438D01*
X90809431Y-45495438D01*
X90971037Y-45277420D01*
X91091246Y-45023087D01*
X91131904Y-44889039D01*
X91009915Y-44667000D01*
X89867000Y-44667000D01*
X89867000Y-44687000D01*
X89613000Y-44687000D01*
X89613000Y-44667000D01*
X88470085Y-44667000D01*
X88348096Y-44889039D01*
X88388754Y-45023087D01*
X88508963Y-45277420D01*
X88676481Y-45503414D01*
X88884869Y-45692385D01*
X89070865Y-45803933D01*
X89060273Y-45808320D01*
X88825241Y-45965363D01*
X88625363Y-46165241D01*
X88468320Y-46400273D01*
X88360147Y-46661426D01*
X88305000Y-46938665D01*
X88305000Y-47221335D01*
X88360147Y-47498574D01*
X88468320Y-47759727D01*
X88625363Y-47994759D01*
X88825241Y-48194637D01*
X89057759Y-48350000D01*
X88825241Y-48505363D01*
X88625363Y-48705241D01*
X88468320Y-48940273D01*
X88360147Y-49201426D01*
X88314680Y-49430000D01*
X87412105Y-49430000D01*
X87376000Y-49426444D01*
X87339895Y-49430000D01*
X87231915Y-49440635D01*
X87093367Y-49482663D01*
X87013635Y-49525281D01*
X86981061Y-49446641D01*
X86834962Y-49227987D01*
X86649013Y-49042038D01*
X86490315Y-48936000D01*
X86649013Y-48829962D01*
X86834962Y-48644013D01*
X86981061Y-48425359D01*
X87081696Y-48182405D01*
X87133000Y-47924486D01*
X87133000Y-47661514D01*
X87081696Y-47403595D01*
X86981061Y-47160641D01*
X86834962Y-46941987D01*
X86649013Y-46756038D01*
X86430359Y-46609939D01*
X86187405Y-46509304D01*
X85929486Y-46458000D01*
X85666514Y-46458000D01*
X85408595Y-46509304D01*
X85165641Y-46609939D01*
X84946987Y-46756038D01*
X84761038Y-46941987D01*
X84614939Y-47160641D01*
X84514304Y-47403595D01*
X84463000Y-47661514D01*
X84463000Y-47924486D01*
X84514304Y-48182405D01*
X84614939Y-48425359D01*
X84761038Y-48644013D01*
X84946987Y-48829962D01*
X85105685Y-48936000D01*
X84946987Y-49042038D01*
X84761038Y-49227987D01*
X84614939Y-49446641D01*
X84514304Y-49689595D01*
X84463000Y-49947514D01*
X84463000Y-50210486D01*
X84514304Y-50468405D01*
X84581239Y-50629999D01*
X83164095Y-50629999D01*
X83128000Y-50626444D01*
X83091905Y-50629999D01*
X83091896Y-50629999D01*
X82983916Y-50640634D01*
X82845368Y-50682662D01*
X82717681Y-50750912D01*
X82605763Y-50842761D01*
X82582747Y-50870806D01*
X79382692Y-54070862D01*
X79361061Y-54018641D01*
X79214962Y-53799987D01*
X79029013Y-53614038D01*
X78870315Y-53508000D01*
X79029013Y-53401962D01*
X79214962Y-53216013D01*
X79361061Y-52997359D01*
X79461696Y-52754405D01*
X79513000Y-52496486D01*
X79513000Y-52233514D01*
X79461696Y-51975595D01*
X79361061Y-51732641D01*
X79214962Y-51513987D01*
X79029013Y-51328038D01*
X78870315Y-51222000D01*
X79029013Y-51115962D01*
X79214962Y-50930013D01*
X79361061Y-50711359D01*
X79461696Y-50468405D01*
X79513000Y-50210486D01*
X79513000Y-49947514D01*
X79461696Y-49689595D01*
X79361061Y-49446641D01*
X79214962Y-49227987D01*
X79029013Y-49042038D01*
X78870315Y-48936000D01*
X79029013Y-48829962D01*
X79214962Y-48644013D01*
X79361061Y-48425359D01*
X79461696Y-48182405D01*
X79513000Y-47924486D01*
X79513000Y-47661514D01*
X79461696Y-47403595D01*
X79361061Y-47160641D01*
X79214962Y-46941987D01*
X79029013Y-46756038D01*
X78810359Y-46609939D01*
X78567405Y-46509304D01*
X78309486Y-46458000D01*
X78046514Y-46458000D01*
X77788595Y-46509304D01*
X77545641Y-46609939D01*
X77326987Y-46756038D01*
X77141038Y-46941987D01*
X76994939Y-47160641D01*
X76894304Y-47403595D01*
X76843000Y-47661514D01*
X76843000Y-47924486D01*
X76894304Y-48182405D01*
X76994939Y-48425359D01*
X77141038Y-48644013D01*
X77326987Y-48829962D01*
X77485685Y-48936000D01*
X77326987Y-49042038D01*
X77141038Y-49227987D01*
X76994939Y-49446641D01*
X76894304Y-49689595D01*
X76843000Y-49947514D01*
X76843000Y-50210486D01*
X76865223Y-50322209D01*
X76836894Y-50324999D01*
X75746361Y-50324999D01*
X75851246Y-50103087D01*
X75891904Y-49969039D01*
X75769915Y-49747000D01*
X74627000Y-49747000D01*
X74627000Y-49767000D01*
X74373000Y-49767000D01*
X74373000Y-49747000D01*
X73230085Y-49747000D01*
X73108096Y-49969039D01*
X73148754Y-50103087D01*
X73253639Y-50324999D01*
X69266530Y-50324999D01*
X69280000Y-50257279D01*
X69280000Y-49836721D01*
X69197953Y-49424244D01*
X69037012Y-49035698D01*
X68803363Y-48686017D01*
X68505983Y-48388637D01*
X68156302Y-48154988D01*
X67767756Y-47994047D01*
X67355279Y-47912000D01*
X66934721Y-47912000D01*
X66522244Y-47994047D01*
X66133698Y-48154988D01*
X65784017Y-48388637D01*
X65486637Y-48686017D01*
X65252988Y-49035698D01*
X65092047Y-49424244D01*
X65010000Y-49836721D01*
X65010000Y-50257279D01*
X65092047Y-50669756D01*
X65252988Y-51058302D01*
X65486637Y-51407983D01*
X65784017Y-51705363D01*
X66133698Y-51939012D01*
X66522244Y-52099953D01*
X66934721Y-52182000D01*
X67355279Y-52182000D01*
X67767756Y-52099953D01*
X68156302Y-51939012D01*
X68371833Y-51794999D01*
X73109491Y-51794999D01*
X73065000Y-52018665D01*
X73065000Y-52301335D01*
X73120147Y-52578574D01*
X73228320Y-52839727D01*
X73385363Y-53074759D01*
X73585241Y-53274637D01*
X73817759Y-53430000D01*
X73585241Y-53585363D01*
X73385363Y-53785241D01*
X73228320Y-54020273D01*
X73120147Y-54281426D01*
X73065000Y-54558665D01*
X73065000Y-54841335D01*
X73120147Y-55118574D01*
X73228320Y-55379727D01*
X73245206Y-55404999D01*
X71248106Y-55404999D01*
X71212001Y-55401443D01*
X71067915Y-55415634D01*
X71040617Y-55423915D01*
X70929368Y-55457662D01*
X70801681Y-55525912D01*
X70689763Y-55617761D01*
X70666747Y-55645806D01*
X68044058Y-58268495D01*
X67767756Y-58154047D01*
X67355279Y-58072000D01*
X66934721Y-58072000D01*
X66522244Y-58154047D01*
X66133698Y-58314988D01*
X65784017Y-58548637D01*
X65486637Y-58846017D01*
X65252988Y-59195698D01*
X65092047Y-59584244D01*
X65010000Y-59996721D01*
X65010000Y-60417279D01*
X65092047Y-60829756D01*
X65252988Y-61218302D01*
X65486637Y-61567983D01*
X65784017Y-61865363D01*
X66133698Y-62099012D01*
X66522244Y-62259953D01*
X66934721Y-62342000D01*
X67355279Y-62342000D01*
X67767756Y-62259953D01*
X68156302Y-62099012D01*
X68505983Y-61865363D01*
X68803363Y-61567983D01*
X69037012Y-61218302D01*
X69197953Y-60829756D01*
X69280000Y-60417279D01*
X69280000Y-59996721D01*
X69197953Y-59584244D01*
X69083505Y-59307942D01*
X71516448Y-56874999D01*
X73109491Y-56874999D01*
X73065000Y-57098665D01*
X73065000Y-57381335D01*
X73120147Y-57658574D01*
X73228320Y-57919727D01*
X73385363Y-58154759D01*
X73421578Y-58190974D01*
X69482808Y-62129744D01*
X69454762Y-62152761D01*
X69362913Y-62264679D01*
X69294663Y-62392366D01*
X69273742Y-62461335D01*
X69252635Y-62530913D01*
X69238444Y-62674998D01*
X69242000Y-62711103D01*
X69242000Y-64885685D01*
X69197953Y-64664244D01*
X69037012Y-64275698D01*
X68803363Y-63926017D01*
X68505983Y-63628637D01*
X68156302Y-63394988D01*
X67767756Y-63234047D01*
X67355279Y-63152000D01*
X66934721Y-63152000D01*
X66522244Y-63234047D01*
X66133698Y-63394988D01*
X65784017Y-63628637D01*
X65486637Y-63926017D01*
X65252988Y-64275698D01*
X65092047Y-64664244D01*
X65010000Y-65076721D01*
X65010000Y-65497279D01*
X65092047Y-65909756D01*
X65252988Y-66298302D01*
X65486637Y-66647983D01*
X65784017Y-66945363D01*
X66133698Y-67179012D01*
X66522244Y-67339953D01*
X66934721Y-67422000D01*
X67355279Y-67422000D01*
X67767756Y-67339953D01*
X68156302Y-67179012D01*
X68505983Y-66945363D01*
X68803363Y-66647983D01*
X69037012Y-66298302D01*
X69197953Y-65909756D01*
X69242001Y-65688314D01*
X69242001Y-67230552D01*
X68044058Y-68428495D01*
X67767756Y-68314047D01*
X67355279Y-68232000D01*
X66934721Y-68232000D01*
X66522244Y-68314047D01*
X66133698Y-68474988D01*
X65784017Y-68708637D01*
X65486637Y-69006017D01*
X65252988Y-69355698D01*
X65092047Y-69744244D01*
X65010000Y-70156721D01*
X65010000Y-70577279D01*
X65092047Y-70989756D01*
X65252988Y-71378302D01*
X65486637Y-71727983D01*
X65784017Y-72025363D01*
X66133698Y-72259012D01*
X66522244Y-72419953D01*
X66934721Y-72502000D01*
X67355279Y-72502000D01*
X67767756Y-72419953D01*
X68156302Y-72259012D01*
X68505983Y-72025363D01*
X68803363Y-71727983D01*
X69037012Y-71378302D01*
X69197953Y-70989756D01*
X69280000Y-70577279D01*
X69280000Y-70156721D01*
X69197953Y-69744244D01*
X69083505Y-69467942D01*
X70471193Y-68080254D01*
X70499238Y-68057238D01*
X70591087Y-67945320D01*
X70639000Y-67855680D01*
X70639001Y-72099895D01*
X70639000Y-75993553D01*
X68044058Y-78588495D01*
X67767756Y-78474047D01*
X67355279Y-78392000D01*
X66934721Y-78392000D01*
X66522244Y-78474047D01*
X66133698Y-78634988D01*
X65784017Y-78868637D01*
X65486637Y-79166017D01*
X65252988Y-79515698D01*
X65092047Y-79904244D01*
X65010000Y-80316721D01*
X65010000Y-80737279D01*
X65092047Y-81149756D01*
X65252988Y-81538302D01*
X65486637Y-81887983D01*
X65784017Y-82185363D01*
X66133698Y-82419012D01*
X66522244Y-82579953D01*
X66934721Y-82662000D01*
X67355279Y-82662000D01*
X67767756Y-82579953D01*
X68156302Y-82419012D01*
X68505983Y-82185363D01*
X68803363Y-81887983D01*
X69037012Y-81538302D01*
X69197953Y-81149756D01*
X69280000Y-80737279D01*
X69280000Y-80316721D01*
X69197953Y-79904244D01*
X69083505Y-79627942D01*
X71868197Y-76843250D01*
X71896237Y-76820238D01*
X71919250Y-76792197D01*
X71919253Y-76792194D01*
X71988086Y-76708321D01*
X71988087Y-76708320D01*
X72056337Y-76580633D01*
X72098365Y-76442085D01*
X72109000Y-76334105D01*
X72109000Y-76334098D01*
X72112555Y-76298001D01*
X72109000Y-76261904D01*
X72109000Y-64122444D01*
X73229681Y-63001764D01*
X73385363Y-63234759D01*
X73585241Y-63434637D01*
X73817759Y-63590000D01*
X73585241Y-63745363D01*
X73385363Y-63945241D01*
X73228320Y-64180273D01*
X73120147Y-64441426D01*
X73065000Y-64718665D01*
X73065000Y-65001335D01*
X73120147Y-65278574D01*
X73228320Y-65539727D01*
X73385363Y-65774759D01*
X73585241Y-65974637D01*
X73817759Y-66130000D01*
X73585241Y-66285363D01*
X73385363Y-66485241D01*
X73228320Y-66720273D01*
X73120147Y-66981426D01*
X73065000Y-67258665D01*
X73065000Y-67541335D01*
X73120147Y-67818574D01*
X73228320Y-68079727D01*
X73385363Y-68314759D01*
X73585241Y-68514637D01*
X73817759Y-68670000D01*
X73585241Y-68825363D01*
X73385363Y-69025241D01*
X73228320Y-69260273D01*
X73120147Y-69521426D01*
X73065000Y-69798665D01*
X73065000Y-70081335D01*
X73120147Y-70358574D01*
X73228320Y-70619727D01*
X73385363Y-70854759D01*
X73585241Y-71054637D01*
X73817759Y-71210000D01*
X73585241Y-71365363D01*
X73385363Y-71565241D01*
X73228320Y-71800273D01*
X73120147Y-72061426D01*
X73065000Y-72338665D01*
X73065000Y-72621335D01*
X73120147Y-72898574D01*
X73228320Y-73159727D01*
X73385363Y-73394759D01*
X73585241Y-73594637D01*
X73817759Y-73750000D01*
X73585241Y-73905363D01*
X73385363Y-74105241D01*
X73228320Y-74340273D01*
X73120147Y-74601426D01*
X73065000Y-74878665D01*
X73065000Y-75161335D01*
X73120147Y-75438574D01*
X73228320Y-75699727D01*
X73385363Y-75934759D01*
X73585241Y-76134637D01*
X73817759Y-76290000D01*
X73585241Y-76445363D01*
X73385363Y-76645241D01*
X73228320Y-76880273D01*
X73120147Y-77141426D01*
X73065000Y-77418665D01*
X73065000Y-77701335D01*
X73120147Y-77978574D01*
X73228320Y-78239727D01*
X73385363Y-78474759D01*
X73585241Y-78674637D01*
X73820273Y-78831680D01*
X74081426Y-78939853D01*
X74358665Y-78995000D01*
X74641335Y-78995000D01*
X74918574Y-78939853D01*
X75179727Y-78831680D01*
X75414759Y-78674637D01*
X75614637Y-78474759D01*
X75771680Y-78239727D01*
X75879853Y-77978574D01*
X75935000Y-77701335D01*
X75935000Y-77418665D01*
X75879853Y-77141426D01*
X75771680Y-76880273D01*
X75614637Y-76645241D01*
X75414759Y-76445363D01*
X75182241Y-76290000D01*
X75414759Y-76134637D01*
X75614637Y-75934759D01*
X75771680Y-75699727D01*
X75879853Y-75438574D01*
X75935000Y-75161335D01*
X75935000Y-74878665D01*
X75879853Y-74601426D01*
X75771680Y-74340273D01*
X75614637Y-74105241D01*
X75414759Y-73905363D01*
X75182241Y-73750000D01*
X75414759Y-73594637D01*
X75614637Y-73394759D01*
X75771680Y-73159727D01*
X75879853Y-72898574D01*
X75935000Y-72621335D01*
X75935000Y-72338665D01*
X75879853Y-72061426D01*
X75771680Y-71800273D01*
X75614637Y-71565241D01*
X75414759Y-71365363D01*
X75182241Y-71210000D01*
X75414759Y-71054637D01*
X75614637Y-70854759D01*
X75771680Y-70619727D01*
X75879853Y-70358574D01*
X75935000Y-70081335D01*
X75935000Y-69798665D01*
X75879853Y-69521426D01*
X75771680Y-69260273D01*
X75614637Y-69025241D01*
X75414759Y-68825363D01*
X75182241Y-68670000D01*
X75414759Y-68514637D01*
X75614637Y-68314759D01*
X75771680Y-68079727D01*
X75879853Y-67818574D01*
X75935000Y-67541335D01*
X75935000Y-67258665D01*
X75879853Y-66981426D01*
X75782075Y-66745369D01*
X76907681Y-65619764D01*
X77063363Y-65852759D01*
X77263241Y-66052637D01*
X77495759Y-66208000D01*
X77263241Y-66363363D01*
X77063363Y-66563241D01*
X76906320Y-66798273D01*
X76798147Y-67059426D01*
X76743000Y-67336665D01*
X76743000Y-67619335D01*
X76798147Y-67896574D01*
X76906320Y-68157727D01*
X77063363Y-68392759D01*
X77263241Y-68592637D01*
X77495759Y-68748000D01*
X77263241Y-68903363D01*
X77063363Y-69103241D01*
X76906320Y-69338273D01*
X76798147Y-69599426D01*
X76743000Y-69876665D01*
X76743000Y-70159335D01*
X76798147Y-70436574D01*
X76906320Y-70697727D01*
X77063363Y-70932759D01*
X77263241Y-71132637D01*
X77495759Y-71288000D01*
X77263241Y-71443363D01*
X77063363Y-71643241D01*
X76906320Y-71878273D01*
X76798147Y-72139426D01*
X76743000Y-72416665D01*
X76743000Y-72699335D01*
X76798147Y-72976574D01*
X76906320Y-73237727D01*
X77063363Y-73472759D01*
X77263241Y-73672637D01*
X77495759Y-73828000D01*
X77263241Y-73983363D01*
X77063363Y-74183241D01*
X76906320Y-74418273D01*
X76798147Y-74679426D01*
X76743000Y-74956665D01*
X76743000Y-75239335D01*
X76798147Y-75516574D01*
X76906320Y-75777727D01*
X77063363Y-76012759D01*
X77263241Y-76212637D01*
X77495759Y-76368000D01*
X77263241Y-76523363D01*
X77063363Y-76723241D01*
X76906320Y-76958273D01*
X76798147Y-77219426D01*
X76743000Y-77496665D01*
X76743000Y-77779335D01*
X76798147Y-78056574D01*
X76906320Y-78317727D01*
X77063363Y-78552759D01*
X77263241Y-78752637D01*
X77495759Y-78908000D01*
X77263241Y-79063363D01*
X77063363Y-79263241D01*
X76906320Y-79498273D01*
X76798147Y-79759426D01*
X76743000Y-80036665D01*
X76743000Y-80319335D01*
X76798147Y-80596574D01*
X76906320Y-80857727D01*
X77063363Y-81092759D01*
X77263241Y-81292637D01*
X77498273Y-81449680D01*
X77759426Y-81557853D01*
X78036665Y-81613000D01*
X78319335Y-81613000D01*
X78596574Y-81557853D01*
X78857727Y-81449680D01*
X79092759Y-81292637D01*
X79292637Y-81092759D01*
X79449680Y-80857727D01*
X79557853Y-80596574D01*
X79613000Y-80319335D01*
X79613000Y-80036665D01*
X79557853Y-79759426D01*
X79449680Y-79498273D01*
X79369317Y-79378000D01*
X84359928Y-79378000D01*
X84359928Y-80978000D01*
X84372188Y-81102482D01*
X84408498Y-81222180D01*
X84467463Y-81332494D01*
X84546815Y-81429185D01*
X84643506Y-81508537D01*
X84753820Y-81567502D01*
X84873518Y-81603812D01*
X84998000Y-81616072D01*
X86598000Y-81616072D01*
X86722482Y-81603812D01*
X86842180Y-81567502D01*
X86952494Y-81508537D01*
X87049185Y-81429185D01*
X87128537Y-81332494D01*
X87187502Y-81222180D01*
X87223812Y-81102482D01*
X87236072Y-80978000D01*
X87236072Y-79378000D01*
X87223812Y-79253518D01*
X87187502Y-79133820D01*
X87128537Y-79023506D01*
X87049185Y-78926815D01*
X86952494Y-78847463D01*
X86842180Y-78788498D01*
X86722482Y-78752188D01*
X86714039Y-78751357D01*
X86912637Y-78552759D01*
X87069680Y-78317727D01*
X87177853Y-78056574D01*
X87233000Y-77779335D01*
X87233000Y-77496665D01*
X87177853Y-77219426D01*
X87069680Y-76958273D01*
X86912637Y-76723241D01*
X86712759Y-76523363D01*
X86480241Y-76368000D01*
X86712759Y-76212637D01*
X86912637Y-76012759D01*
X87069680Y-75777727D01*
X87177853Y-75516574D01*
X87233000Y-75239335D01*
X87233000Y-74956665D01*
X87177853Y-74679426D01*
X87069680Y-74418273D01*
X86912637Y-74183241D01*
X86712759Y-73983363D01*
X86480241Y-73828000D01*
X86712759Y-73672637D01*
X86912637Y-73472759D01*
X87069680Y-73237727D01*
X87177853Y-72976574D01*
X87233000Y-72699335D01*
X87233000Y-72416665D01*
X87177853Y-72139426D01*
X87069680Y-71878273D01*
X86912637Y-71643241D01*
X86712759Y-71443363D01*
X86480241Y-71288000D01*
X86712759Y-71132637D01*
X86912637Y-70932759D01*
X87069680Y-70697727D01*
X87177853Y-70436574D01*
X87233000Y-70159335D01*
X87233000Y-69876665D01*
X87177853Y-69599426D01*
X87069680Y-69338273D01*
X86912637Y-69103241D01*
X86712759Y-68903363D01*
X86480241Y-68748000D01*
X86712759Y-68592637D01*
X86912637Y-68392759D01*
X87069680Y-68157727D01*
X87177853Y-67896574D01*
X87233000Y-67619335D01*
X87233000Y-67336665D01*
X87177853Y-67059426D01*
X87069680Y-66798273D01*
X86912637Y-66563241D01*
X86712759Y-66363363D01*
X86480241Y-66208000D01*
X86712759Y-66052637D01*
X86912637Y-65852759D01*
X87069680Y-65617727D01*
X87177853Y-65356574D01*
X87233000Y-65079335D01*
X87233000Y-64796665D01*
X87177853Y-64519426D01*
X87069680Y-64258273D01*
X86912637Y-64023241D01*
X86712759Y-63823363D01*
X86477727Y-63666320D01*
X86467135Y-63661933D01*
X86653131Y-63550385D01*
X86861519Y-63361414D01*
X87029037Y-63135420D01*
X87149246Y-62881087D01*
X87189904Y-62747039D01*
X87067915Y-62525000D01*
X85925000Y-62525000D01*
X85925000Y-62545000D01*
X85671000Y-62545000D01*
X85671000Y-62525000D01*
X84528085Y-62525000D01*
X84406096Y-62747039D01*
X84446754Y-62881087D01*
X84566963Y-63135420D01*
X84734481Y-63361414D01*
X84942869Y-63550385D01*
X85128865Y-63661933D01*
X85118273Y-63666320D01*
X84883241Y-63823363D01*
X84683363Y-64023241D01*
X84526320Y-64258273D01*
X84418147Y-64519426D01*
X84363000Y-64796665D01*
X84363000Y-65079335D01*
X84418147Y-65356574D01*
X84526320Y-65617727D01*
X84683363Y-65852759D01*
X84883241Y-66052637D01*
X85115759Y-66208000D01*
X84883241Y-66363363D01*
X84683363Y-66563241D01*
X84526320Y-66798273D01*
X84418147Y-67059426D01*
X84363000Y-67336665D01*
X84363000Y-67619335D01*
X84418147Y-67896574D01*
X84526320Y-68157727D01*
X84683363Y-68392759D01*
X84883241Y-68592637D01*
X85115759Y-68748000D01*
X84883241Y-68903363D01*
X84683363Y-69103241D01*
X84526320Y-69338273D01*
X84418147Y-69599426D01*
X84363000Y-69876665D01*
X84363000Y-70159335D01*
X84418147Y-70436574D01*
X84526320Y-70697727D01*
X84683363Y-70932759D01*
X84883241Y-71132637D01*
X85115759Y-71288000D01*
X84883241Y-71443363D01*
X84683363Y-71643241D01*
X84526320Y-71878273D01*
X84418147Y-72139426D01*
X84363000Y-72416665D01*
X84363000Y-72699335D01*
X84418147Y-72976574D01*
X84526320Y-73237727D01*
X84683363Y-73472759D01*
X84883241Y-73672637D01*
X85115759Y-73828000D01*
X84883241Y-73983363D01*
X84683363Y-74183241D01*
X84526320Y-74418273D01*
X84418147Y-74679426D01*
X84363000Y-74956665D01*
X84363000Y-75239335D01*
X84418147Y-75516574D01*
X84526320Y-75777727D01*
X84683363Y-76012759D01*
X84883241Y-76212637D01*
X85115759Y-76368000D01*
X84883241Y-76523363D01*
X84683363Y-76723241D01*
X84526320Y-76958273D01*
X84418147Y-77219426D01*
X84363000Y-77496665D01*
X84363000Y-77779335D01*
X84418147Y-78056574D01*
X84526320Y-78317727D01*
X84683363Y-78552759D01*
X84881961Y-78751357D01*
X84873518Y-78752188D01*
X84753820Y-78788498D01*
X84643506Y-78847463D01*
X84546815Y-78926815D01*
X84467463Y-79023506D01*
X84408498Y-79133820D01*
X84372188Y-79253518D01*
X84359928Y-79378000D01*
X79369317Y-79378000D01*
X79292637Y-79263241D01*
X79092759Y-79063363D01*
X78860241Y-78908000D01*
X79092759Y-78752637D01*
X79292637Y-78552759D01*
X79449680Y-78317727D01*
X79557853Y-78056574D01*
X79613000Y-77779335D01*
X79613000Y-77496665D01*
X79557853Y-77219426D01*
X79449680Y-76958273D01*
X79292637Y-76723241D01*
X79092759Y-76523363D01*
X78860241Y-76368000D01*
X79092759Y-76212637D01*
X79292637Y-76012759D01*
X79449680Y-75777727D01*
X79557853Y-75516574D01*
X79613000Y-75239335D01*
X79613000Y-74956665D01*
X79557853Y-74679426D01*
X79449680Y-74418273D01*
X79292637Y-74183241D01*
X79092759Y-73983363D01*
X78860241Y-73828000D01*
X79092759Y-73672637D01*
X79292637Y-73472759D01*
X79449680Y-73237727D01*
X79557853Y-72976574D01*
X79613000Y-72699335D01*
X79613000Y-72416665D01*
X79557853Y-72139426D01*
X79449680Y-71878273D01*
X79292637Y-71643241D01*
X79092759Y-71443363D01*
X78860241Y-71288000D01*
X79092759Y-71132637D01*
X79292637Y-70932759D01*
X79449680Y-70697727D01*
X79557853Y-70436574D01*
X79613000Y-70159335D01*
X79613000Y-69876665D01*
X79557853Y-69599426D01*
X79449680Y-69338273D01*
X79292637Y-69103241D01*
X79092759Y-68903363D01*
X78860241Y-68748000D01*
X79092759Y-68592637D01*
X79292637Y-68392759D01*
X79449680Y-68157727D01*
X79557853Y-67896574D01*
X79613000Y-67619335D01*
X79613000Y-67336665D01*
X79557853Y-67059426D01*
X79449680Y-66798273D01*
X79292637Y-66563241D01*
X79092759Y-66363363D01*
X78860241Y-66208000D01*
X79092759Y-66052637D01*
X79292637Y-65852759D01*
X79449680Y-65617727D01*
X79557853Y-65356574D01*
X79613000Y-65079335D01*
X79613000Y-64796665D01*
X79557853Y-64519426D01*
X79449680Y-64258273D01*
X79292637Y-64023241D01*
X79256422Y-63987026D01*
X81194487Y-62048961D01*
X84406096Y-62048961D01*
X84528085Y-62271000D01*
X85671000Y-62271000D01*
X85671000Y-61127376D01*
X85925000Y-61127376D01*
X85925000Y-62271000D01*
X87067915Y-62271000D01*
X87189904Y-62048961D01*
X87149246Y-61914913D01*
X87029037Y-61660580D01*
X86861519Y-61434586D01*
X86653131Y-61245615D01*
X86411881Y-61100930D01*
X86147040Y-61006091D01*
X85925000Y-61127376D01*
X85671000Y-61127376D01*
X85448960Y-61006091D01*
X85184119Y-61100930D01*
X84942869Y-61245615D01*
X84734481Y-61434586D01*
X84566963Y-61660580D01*
X84446754Y-61914913D01*
X84406096Y-62048961D01*
X81194487Y-62048961D01*
X84285450Y-58957999D01*
X84489558Y-58957999D01*
X84463000Y-59091514D01*
X84463000Y-59354486D01*
X84514304Y-59612405D01*
X84614939Y-59855359D01*
X84761038Y-60074013D01*
X84946987Y-60259962D01*
X85165641Y-60406061D01*
X85408595Y-60506696D01*
X85666514Y-60558000D01*
X85929486Y-60558000D01*
X86187405Y-60506696D01*
X86430359Y-60406061D01*
X86649013Y-60259962D01*
X86834962Y-60074013D01*
X86981061Y-59855359D01*
X87081696Y-59612405D01*
X87133000Y-59354486D01*
X87133000Y-59091514D01*
X87081696Y-58833595D01*
X86981061Y-58590641D01*
X86853987Y-58400461D01*
X88342051Y-56912397D01*
X88305000Y-57098665D01*
X88305000Y-57381335D01*
X88360147Y-57658574D01*
X88468320Y-57919727D01*
X88625363Y-58154759D01*
X88825241Y-58354637D01*
X89057759Y-58510000D01*
X88825241Y-58665363D01*
X88625363Y-58865241D01*
X88468320Y-59100273D01*
X88360147Y-59361426D01*
X88305000Y-59638665D01*
X88305000Y-59921335D01*
X88360147Y-60198574D01*
X88468320Y-60459727D01*
X88625363Y-60694759D01*
X88825241Y-60894637D01*
X89057759Y-61050000D01*
X88825241Y-61205363D01*
X88625363Y-61405241D01*
X88468320Y-61640273D01*
X88360147Y-61901426D01*
X88305000Y-62178665D01*
X88305000Y-62461335D01*
X88360147Y-62738574D01*
X88468320Y-62999727D01*
X88625363Y-63234759D01*
X88825241Y-63434637D01*
X89057759Y-63590000D01*
X88825241Y-63745363D01*
X88625363Y-63945241D01*
X88468320Y-64180273D01*
X88360147Y-64441426D01*
X88305000Y-64718665D01*
X88305000Y-65001335D01*
X88360147Y-65278574D01*
X88468320Y-65539727D01*
X88625363Y-65774759D01*
X88825241Y-65974637D01*
X89057759Y-66130000D01*
X88825241Y-66285363D01*
X88625363Y-66485241D01*
X88468320Y-66720273D01*
X88360147Y-66981426D01*
X88305000Y-67258665D01*
X88305000Y-67541335D01*
X88360147Y-67818574D01*
X88468320Y-68079727D01*
X88625363Y-68314759D01*
X88825241Y-68514637D01*
X89057759Y-68670000D01*
X88825241Y-68825363D01*
X88625363Y-69025241D01*
X88468320Y-69260273D01*
X88360147Y-69521426D01*
X88305000Y-69798665D01*
X88305000Y-70081335D01*
X88360147Y-70358574D01*
X88468320Y-70619727D01*
X88625363Y-70854759D01*
X88825241Y-71054637D01*
X89057759Y-71210000D01*
X88825241Y-71365363D01*
X88625363Y-71565241D01*
X88468320Y-71800273D01*
X88360147Y-72061426D01*
X88305000Y-72338665D01*
X88305000Y-72621335D01*
X88360147Y-72898574D01*
X88468320Y-73159727D01*
X88625363Y-73394759D01*
X88825241Y-73594637D01*
X89057759Y-73750000D01*
X88825241Y-73905363D01*
X88625363Y-74105241D01*
X88468320Y-74340273D01*
X88360147Y-74601426D01*
X88305000Y-74878665D01*
X88305000Y-75161335D01*
X88360147Y-75438574D01*
X88468320Y-75699727D01*
X88625363Y-75934759D01*
X88825241Y-76134637D01*
X89057759Y-76290000D01*
X88825241Y-76445363D01*
X88625363Y-76645241D01*
X88468320Y-76880273D01*
X88360147Y-77141426D01*
X88305000Y-77418665D01*
X88305000Y-77701335D01*
X88360147Y-77978574D01*
X88468320Y-78239727D01*
X88625363Y-78474759D01*
X88825241Y-78674637D01*
X89060273Y-78831680D01*
X89321426Y-78939853D01*
X89598665Y-78995000D01*
X89881335Y-78995000D01*
X90158574Y-78939853D01*
X90419727Y-78831680D01*
X90654759Y-78674637D01*
X90854637Y-78474759D01*
X91011680Y-78239727D01*
X91032393Y-78189721D01*
X93865000Y-78189721D01*
X93865000Y-78610279D01*
X93947047Y-79022756D01*
X94107988Y-79411302D01*
X94341637Y-79760983D01*
X94639017Y-80058363D01*
X94988698Y-80292012D01*
X95377244Y-80452953D01*
X95789721Y-80535000D01*
X96210279Y-80535000D01*
X96622756Y-80452953D01*
X97011302Y-80292012D01*
X97360983Y-80058363D01*
X97658363Y-79760983D01*
X97892012Y-79411302D01*
X98052953Y-79022756D01*
X98135000Y-78610279D01*
X98135000Y-78189721D01*
X98052953Y-77777244D01*
X97892012Y-77388698D01*
X97658363Y-77039017D01*
X97360983Y-76741637D01*
X97011302Y-76507988D01*
X96622756Y-76347047D01*
X96210279Y-76265000D01*
X95789721Y-76265000D01*
X95377244Y-76347047D01*
X94988698Y-76507988D01*
X94639017Y-76741637D01*
X94341637Y-77039017D01*
X94107988Y-77388698D01*
X93947047Y-77777244D01*
X93865000Y-78189721D01*
X91032393Y-78189721D01*
X91119853Y-77978574D01*
X91175000Y-77701335D01*
X91175000Y-77418665D01*
X91119853Y-77141426D01*
X91011680Y-76880273D01*
X90854637Y-76645241D01*
X90654759Y-76445363D01*
X90422241Y-76290000D01*
X90654759Y-76134637D01*
X90854637Y-75934759D01*
X91011680Y-75699727D01*
X91119853Y-75438574D01*
X91175000Y-75161335D01*
X91175000Y-74878665D01*
X91119853Y-74601426D01*
X91011680Y-74340273D01*
X90854637Y-74105241D01*
X90654759Y-73905363D01*
X90422241Y-73750000D01*
X90654759Y-73594637D01*
X90854637Y-73394759D01*
X91011680Y-73159727D01*
X91032393Y-73109721D01*
X93865000Y-73109721D01*
X93865000Y-73530279D01*
X93947047Y-73942756D01*
X94107988Y-74331302D01*
X94341637Y-74680983D01*
X94639017Y-74978363D01*
X94988698Y-75212012D01*
X95377244Y-75372953D01*
X95789721Y-75455000D01*
X96210279Y-75455000D01*
X96622756Y-75372953D01*
X97011302Y-75212012D01*
X97360983Y-74978363D01*
X97658363Y-74680983D01*
X97892012Y-74331302D01*
X98052953Y-73942756D01*
X98135000Y-73530279D01*
X98135000Y-73109721D01*
X98052953Y-72697244D01*
X97892012Y-72308698D01*
X97658363Y-71959017D01*
X97360983Y-71661637D01*
X97011302Y-71427988D01*
X96622756Y-71267047D01*
X96210279Y-71185000D01*
X95789721Y-71185000D01*
X95377244Y-71267047D01*
X94988698Y-71427988D01*
X94639017Y-71661637D01*
X94341637Y-71959017D01*
X94107988Y-72308698D01*
X93947047Y-72697244D01*
X93865000Y-73109721D01*
X91032393Y-73109721D01*
X91119853Y-72898574D01*
X91175000Y-72621335D01*
X91175000Y-72338665D01*
X91119853Y-72061426D01*
X91011680Y-71800273D01*
X90854637Y-71565241D01*
X90654759Y-71365363D01*
X90422241Y-71210000D01*
X90654759Y-71054637D01*
X90854637Y-70854759D01*
X91011680Y-70619727D01*
X91119853Y-70358574D01*
X91175000Y-70081335D01*
X91175000Y-69798665D01*
X91119853Y-69521426D01*
X91011680Y-69260273D01*
X90854637Y-69025241D01*
X90654759Y-68825363D01*
X90422241Y-68670000D01*
X90654759Y-68514637D01*
X90854637Y-68314759D01*
X91011680Y-68079727D01*
X91032393Y-68029721D01*
X93865000Y-68029721D01*
X93865000Y-68450279D01*
X93947047Y-68862756D01*
X94107988Y-69251302D01*
X94341637Y-69600983D01*
X94639017Y-69898363D01*
X94988698Y-70132012D01*
X95377244Y-70292953D01*
X95789721Y-70375000D01*
X96210279Y-70375000D01*
X96622756Y-70292953D01*
X97011302Y-70132012D01*
X97360983Y-69898363D01*
X97658363Y-69600983D01*
X97892012Y-69251302D01*
X98052953Y-68862756D01*
X98135000Y-68450279D01*
X98135000Y-68029721D01*
X98052953Y-67617244D01*
X97892012Y-67228698D01*
X97658363Y-66879017D01*
X97360983Y-66581637D01*
X97011302Y-66347988D01*
X96622756Y-66187047D01*
X96210279Y-66105000D01*
X95789721Y-66105000D01*
X95377244Y-66187047D01*
X94988698Y-66347988D01*
X94639017Y-66581637D01*
X94341637Y-66879017D01*
X94107988Y-67228698D01*
X93947047Y-67617244D01*
X93865000Y-68029721D01*
X91032393Y-68029721D01*
X91119853Y-67818574D01*
X91175000Y-67541335D01*
X91175000Y-67258665D01*
X91119853Y-66981426D01*
X91011680Y-66720273D01*
X90854637Y-66485241D01*
X90654759Y-66285363D01*
X90422241Y-66130000D01*
X90654759Y-65974637D01*
X90854637Y-65774759D01*
X91011680Y-65539727D01*
X91119853Y-65278574D01*
X91175000Y-65001335D01*
X91175000Y-64718665D01*
X91119853Y-64441426D01*
X91011680Y-64180273D01*
X90854637Y-63945241D01*
X90654759Y-63745363D01*
X90422241Y-63590000D01*
X90654759Y-63434637D01*
X90854637Y-63234759D01*
X91011680Y-62999727D01*
X91032393Y-62949721D01*
X93865000Y-62949721D01*
X93865000Y-63370279D01*
X93947047Y-63782756D01*
X94107988Y-64171302D01*
X94341637Y-64520983D01*
X94639017Y-64818363D01*
X94988698Y-65052012D01*
X95377244Y-65212953D01*
X95789721Y-65295000D01*
X96210279Y-65295000D01*
X96622756Y-65212953D01*
X97011302Y-65052012D01*
X97360983Y-64818363D01*
X97658363Y-64520983D01*
X97892012Y-64171302D01*
X98052953Y-63782756D01*
X98135000Y-63370279D01*
X98135000Y-62949721D01*
X98052953Y-62537244D01*
X97892012Y-62148698D01*
X97658363Y-61799017D01*
X97360983Y-61501637D01*
X97011302Y-61267988D01*
X96622756Y-61107047D01*
X96210279Y-61025000D01*
X95789721Y-61025000D01*
X95377244Y-61107047D01*
X94988698Y-61267988D01*
X94639017Y-61501637D01*
X94341637Y-61799017D01*
X94107988Y-62148698D01*
X93947047Y-62537244D01*
X93865000Y-62949721D01*
X91032393Y-62949721D01*
X91119853Y-62738574D01*
X91175000Y-62461335D01*
X91175000Y-62178665D01*
X91119853Y-61901426D01*
X91011680Y-61640273D01*
X90854637Y-61405241D01*
X90654759Y-61205363D01*
X90422241Y-61050000D01*
X90654759Y-60894637D01*
X90854637Y-60694759D01*
X91011680Y-60459727D01*
X91119853Y-60198574D01*
X91175000Y-59921335D01*
X91175000Y-59638665D01*
X91119853Y-59361426D01*
X91011680Y-59100273D01*
X90854637Y-58865241D01*
X90654759Y-58665363D01*
X90422241Y-58510000D01*
X90654759Y-58354637D01*
X90854637Y-58154759D01*
X91011680Y-57919727D01*
X91032393Y-57869721D01*
X93865000Y-57869721D01*
X93865000Y-58290279D01*
X93947047Y-58702756D01*
X94107988Y-59091302D01*
X94341637Y-59440983D01*
X94639017Y-59738363D01*
X94988698Y-59972012D01*
X95377244Y-60132953D01*
X95789721Y-60215000D01*
X96210279Y-60215000D01*
X96622756Y-60132953D01*
X97011302Y-59972012D01*
X97360983Y-59738363D01*
X97658363Y-59440983D01*
X97892012Y-59091302D01*
X98052953Y-58702756D01*
X98135000Y-58290279D01*
X98135000Y-57869721D01*
X98052953Y-57457244D01*
X97892012Y-57068698D01*
X97658363Y-56719017D01*
X97360983Y-56421637D01*
X97011302Y-56187988D01*
X96622756Y-56027047D01*
X96210279Y-55945000D01*
X95789721Y-55945000D01*
X95377244Y-56027047D01*
X94988698Y-56187988D01*
X94639017Y-56421637D01*
X94341637Y-56719017D01*
X94107988Y-57068698D01*
X93947047Y-57457244D01*
X93865000Y-57869721D01*
X91032393Y-57869721D01*
X91119853Y-57658574D01*
X91175000Y-57381335D01*
X91175000Y-57098665D01*
X91119853Y-56821426D01*
X91011680Y-56560273D01*
X90961810Y-56485637D01*
X91334194Y-56113253D01*
X91362239Y-56090237D01*
X91454088Y-55978319D01*
X91522338Y-55850632D01*
X91564366Y-55712084D01*
X91575001Y-55604104D01*
X91575001Y-55604097D01*
X91578556Y-55568000D01*
X91575001Y-55531903D01*
X91575001Y-53736445D01*
X93867443Y-51444003D01*
X93861928Y-51500000D01*
X93861928Y-54500000D01*
X93874188Y-54624482D01*
X93910498Y-54744180D01*
X93969463Y-54854494D01*
X94048815Y-54951185D01*
X94145506Y-55030537D01*
X94255820Y-55089502D01*
X94375518Y-55125812D01*
X94500000Y-55138072D01*
X97500000Y-55138072D01*
X97624482Y-55125812D01*
X97744180Y-55089502D01*
X97854494Y-55030537D01*
X97951185Y-54951185D01*
X98030537Y-54854494D01*
X98089502Y-54744180D01*
X98125812Y-54624482D01*
X98138072Y-54500000D01*
X98138072Y-51500000D01*
X98125812Y-51375518D01*
X98089502Y-51255820D01*
X98030537Y-51145506D01*
X97951185Y-51048815D01*
X97854494Y-50969463D01*
X97744180Y-50910498D01*
X97624482Y-50874188D01*
X97500000Y-50861928D01*
X94500000Y-50861928D01*
X94444003Y-50867443D01*
X99211213Y-46100234D01*
X99239258Y-46077218D01*
X99331107Y-45965300D01*
X99367672Y-45896890D01*
X100058524Y-45896890D01*
X100103175Y-46044099D01*
X100228359Y-46306920D01*
X100402412Y-46540269D01*
X100618645Y-46735178D01*
X100868748Y-46884157D01*
X101143109Y-46981481D01*
X101373000Y-46860814D01*
X101373000Y-45667000D01*
X100179845Y-45667000D01*
X100058524Y-45896890D01*
X99367672Y-45896890D01*
X99399357Y-45837613D01*
X99430716Y-45734237D01*
X99441385Y-45699066D01*
X99446710Y-45645000D01*
X99452020Y-45591085D01*
X99452020Y-45591078D01*
X99455575Y-45554981D01*
X99452020Y-45518884D01*
X99452020Y-43547426D01*
X100015000Y-42984446D01*
X100015000Y-43146260D01*
X100072068Y-43433158D01*
X100184010Y-43703411D01*
X100346525Y-43946632D01*
X100553368Y-44153475D01*
X100735534Y-44275195D01*
X100618645Y-44344822D01*
X100402412Y-44539731D01*
X100228359Y-44773080D01*
X100103175Y-45035901D01*
X100058524Y-45183110D01*
X100179845Y-45413000D01*
X101373000Y-45413000D01*
X101373000Y-45393000D01*
X101627000Y-45393000D01*
X101627000Y-45413000D01*
X101647000Y-45413000D01*
X101647000Y-45667000D01*
X101627000Y-45667000D01*
X101627000Y-46860814D01*
X101856891Y-46981481D01*
X102131252Y-46884157D01*
X102340001Y-46759812D01*
X102340000Y-87840000D01*
X61660000Y-87840000D01*
X61660000Y-84107000D01*
X65006928Y-84107000D01*
X65006928Y-87107000D01*
X65019188Y-87231482D01*
X65055498Y-87351180D01*
X65114463Y-87461494D01*
X65193815Y-87558185D01*
X65290506Y-87637537D01*
X65400820Y-87696502D01*
X65520518Y-87732812D01*
X65645000Y-87745072D01*
X68645000Y-87745072D01*
X68769482Y-87732812D01*
X68889180Y-87696502D01*
X68999494Y-87637537D01*
X69096185Y-87558185D01*
X69175537Y-87461494D01*
X69234502Y-87351180D01*
X69270812Y-87231482D01*
X69283072Y-87107000D01*
X69283072Y-84779872D01*
X72765000Y-84779872D01*
X72765000Y-85220128D01*
X72850890Y-85651925D01*
X73019369Y-86058669D01*
X73263962Y-86424729D01*
X73575271Y-86736038D01*
X73941331Y-86980631D01*
X74348075Y-87149110D01*
X74779872Y-87235000D01*
X75220128Y-87235000D01*
X75651925Y-87149110D01*
X76058669Y-86980631D01*
X76424729Y-86736038D01*
X76736038Y-86424729D01*
X76980631Y-86058669D01*
X77149110Y-85651925D01*
X77235000Y-85220128D01*
X77235000Y-84779872D01*
X97265000Y-84779872D01*
X97265000Y-85220128D01*
X97350890Y-85651925D01*
X97519369Y-86058669D01*
X97763962Y-86424729D01*
X98075271Y-86736038D01*
X98441331Y-86980631D01*
X98848075Y-87149110D01*
X99279872Y-87235000D01*
X99720128Y-87235000D01*
X100151925Y-87149110D01*
X100558669Y-86980631D01*
X100924729Y-86736038D01*
X101236038Y-86424729D01*
X101480631Y-86058669D01*
X101649110Y-85651925D01*
X101735000Y-85220128D01*
X101735000Y-84779872D01*
X101649110Y-84348075D01*
X101480631Y-83941331D01*
X101236038Y-83575271D01*
X100924729Y-83263962D01*
X100558669Y-83019369D01*
X100151925Y-82850890D01*
X99720128Y-82765000D01*
X99279872Y-82765000D01*
X98848075Y-82850890D01*
X98441331Y-83019369D01*
X98075271Y-83263962D01*
X97763962Y-83575271D01*
X97519369Y-83941331D01*
X97350890Y-84348075D01*
X97265000Y-84779872D01*
X77235000Y-84779872D01*
X77149110Y-84348075D01*
X76980631Y-83941331D01*
X76736038Y-83575271D01*
X76424729Y-83263962D01*
X76058669Y-83019369D01*
X75651925Y-82850890D01*
X75220128Y-82765000D01*
X74779872Y-82765000D01*
X74348075Y-82850890D01*
X73941331Y-83019369D01*
X73575271Y-83263962D01*
X73263962Y-83575271D01*
X73019369Y-83941331D01*
X72850890Y-84348075D01*
X72765000Y-84779872D01*
X69283072Y-84779872D01*
X69283072Y-84107000D01*
X69270812Y-83982518D01*
X69234502Y-83862820D01*
X69175537Y-83752506D01*
X69096185Y-83655815D01*
X68999494Y-83576463D01*
X68889180Y-83517498D01*
X68769482Y-83481188D01*
X68645000Y-83468928D01*
X65645000Y-83468928D01*
X65520518Y-83481188D01*
X65400820Y-83517498D01*
X65290506Y-83576463D01*
X65193815Y-83655815D01*
X65114463Y-83752506D01*
X65055498Y-83862820D01*
X65019188Y-83982518D01*
X65006928Y-84107000D01*
X61660000Y-84107000D01*
X61660000Y-75236721D01*
X65010000Y-75236721D01*
X65010000Y-75657279D01*
X65092047Y-76069756D01*
X65252988Y-76458302D01*
X65486637Y-76807983D01*
X65784017Y-77105363D01*
X66133698Y-77339012D01*
X66522244Y-77499953D01*
X66934721Y-77582000D01*
X67355279Y-77582000D01*
X67767756Y-77499953D01*
X68156302Y-77339012D01*
X68505983Y-77105363D01*
X68803363Y-76807983D01*
X69037012Y-76458302D01*
X69197953Y-76069756D01*
X69280000Y-75657279D01*
X69280000Y-75236721D01*
X69197953Y-74824244D01*
X69037012Y-74435698D01*
X68803363Y-74086017D01*
X68505983Y-73788637D01*
X68156302Y-73554988D01*
X67767756Y-73394047D01*
X67355279Y-73312000D01*
X66934721Y-73312000D01*
X66522244Y-73394047D01*
X66133698Y-73554988D01*
X65784017Y-73788637D01*
X65486637Y-74086017D01*
X65252988Y-74435698D01*
X65092047Y-74824244D01*
X65010000Y-75236721D01*
X61660000Y-75236721D01*
X61660000Y-53627000D01*
X65006928Y-53627000D01*
X65006928Y-56627000D01*
X65019188Y-56751482D01*
X65055498Y-56871180D01*
X65114463Y-56981494D01*
X65193815Y-57078185D01*
X65290506Y-57157537D01*
X65400820Y-57216502D01*
X65520518Y-57252812D01*
X65645000Y-57265072D01*
X68645000Y-57265072D01*
X68769482Y-57252812D01*
X68889180Y-57216502D01*
X68999494Y-57157537D01*
X69096185Y-57078185D01*
X69175537Y-56981494D01*
X69234502Y-56871180D01*
X69270812Y-56751482D01*
X69283072Y-56627000D01*
X69283072Y-53627000D01*
X69270812Y-53502518D01*
X69234502Y-53382820D01*
X69175537Y-53272506D01*
X69096185Y-53175815D01*
X68999494Y-53096463D01*
X68889180Y-53037498D01*
X68769482Y-53001188D01*
X68645000Y-52988928D01*
X65645000Y-52988928D01*
X65520518Y-53001188D01*
X65400820Y-53037498D01*
X65290506Y-53096463D01*
X65193815Y-53175815D01*
X65114463Y-53272506D01*
X65055498Y-53382820D01*
X65019188Y-53502518D01*
X65006928Y-53627000D01*
X61660000Y-53627000D01*
X61660000Y-44756721D01*
X65010000Y-44756721D01*
X65010000Y-45177279D01*
X65092047Y-45589756D01*
X65252988Y-45978302D01*
X65486637Y-46327983D01*
X65784017Y-46625363D01*
X66133698Y-46859012D01*
X66522244Y-47019953D01*
X66934721Y-47102000D01*
X67355279Y-47102000D01*
X67767756Y-47019953D01*
X68156302Y-46859012D01*
X68505983Y-46625363D01*
X68803363Y-46327983D01*
X69037012Y-45978302D01*
X69197953Y-45589756D01*
X69280000Y-45177279D01*
X69280000Y-44756721D01*
X69197953Y-44344244D01*
X69037012Y-43955698D01*
X68803363Y-43606017D01*
X68505983Y-43308637D01*
X68156302Y-43074988D01*
X67767756Y-42914047D01*
X67355279Y-42832000D01*
X66934721Y-42832000D01*
X66522244Y-42914047D01*
X66133698Y-43074988D01*
X65784017Y-43308637D01*
X65486637Y-43606017D01*
X65252988Y-43955698D01*
X65092047Y-44344244D01*
X65010000Y-44756721D01*
X61660000Y-44756721D01*
X61660000Y-39676721D01*
X65010000Y-39676721D01*
X65010000Y-40097279D01*
X65092047Y-40509756D01*
X65252988Y-40898302D01*
X65486637Y-41247983D01*
X65784017Y-41545363D01*
X66133698Y-41779012D01*
X66522244Y-41939953D01*
X66934721Y-42022000D01*
X67355279Y-42022000D01*
X67767756Y-41939953D01*
X68156302Y-41779012D01*
X68505983Y-41545363D01*
X68803363Y-41247983D01*
X69037012Y-40898302D01*
X69151460Y-40622000D01*
X73434302Y-40622000D01*
X73345506Y-40669463D01*
X73248815Y-40748815D01*
X73169463Y-40845506D01*
X73110498Y-40955820D01*
X73074188Y-41075518D01*
X73061928Y-41200000D01*
X73061928Y-42800000D01*
X73074188Y-42924482D01*
X73110498Y-43044180D01*
X73169463Y-43154494D01*
X73248815Y-43251185D01*
X73345506Y-43330537D01*
X73455820Y-43389502D01*
X73575518Y-43425812D01*
X73583961Y-43426643D01*
X73385363Y-43625241D01*
X73228320Y-43860273D01*
X73120147Y-44121426D01*
X73065000Y-44398665D01*
X73065000Y-44681335D01*
X73120147Y-44958574D01*
X73228320Y-45219727D01*
X73385363Y-45454759D01*
X73585241Y-45654637D01*
X73817759Y-45810000D01*
X73585241Y-45965363D01*
X73385363Y-46165241D01*
X73228320Y-46400273D01*
X73120147Y-46661426D01*
X73065000Y-46938665D01*
X73065000Y-47221335D01*
X73120147Y-47498574D01*
X73228320Y-47759727D01*
X73385363Y-47994759D01*
X73585241Y-48194637D01*
X73820273Y-48351680D01*
X73830865Y-48356067D01*
X73644869Y-48467615D01*
X73436481Y-48656586D01*
X73268963Y-48882580D01*
X73148754Y-49136913D01*
X73108096Y-49270961D01*
X73230085Y-49493000D01*
X74373000Y-49493000D01*
X74373000Y-49473000D01*
X74627000Y-49473000D01*
X74627000Y-49493000D01*
X75769915Y-49493000D01*
X75891904Y-49270961D01*
X75851246Y-49136913D01*
X75731037Y-48882580D01*
X75563519Y-48656586D01*
X75355131Y-48467615D01*
X75169135Y-48356067D01*
X75179727Y-48351680D01*
X75414759Y-48194637D01*
X75614637Y-47994759D01*
X75771680Y-47759727D01*
X75879853Y-47498574D01*
X75935000Y-47221335D01*
X75935000Y-46938665D01*
X75879853Y-46661426D01*
X75771680Y-46400273D01*
X75614637Y-46165241D01*
X75414759Y-45965363D01*
X75182241Y-45810000D01*
X75414759Y-45654637D01*
X75614637Y-45454759D01*
X75771680Y-45219727D01*
X75879853Y-44958574D01*
X75935000Y-44681335D01*
X75935000Y-44398665D01*
X75879853Y-44121426D01*
X75771680Y-43860273D01*
X75614637Y-43625241D01*
X75416039Y-43426643D01*
X75424482Y-43425812D01*
X75544180Y-43389502D01*
X75654494Y-43330537D01*
X75751185Y-43251185D01*
X75830537Y-43154494D01*
X75889502Y-43044180D01*
X75925812Y-42924482D01*
X75938072Y-42800000D01*
X75938072Y-41846000D01*
X78879928Y-41846000D01*
X78879928Y-43846000D01*
X78892188Y-43970482D01*
X78928498Y-44090180D01*
X78987463Y-44200494D01*
X79066815Y-44297185D01*
X79163506Y-44376537D01*
X79273820Y-44435502D01*
X79393518Y-44471812D01*
X79518000Y-44484072D01*
X81518000Y-44484072D01*
X81642482Y-44471812D01*
X81762180Y-44435502D01*
X81872494Y-44376537D01*
X81969185Y-44297185D01*
X82048537Y-44200494D01*
X82107502Y-44090180D01*
X82143812Y-43970482D01*
X82156072Y-43846000D01*
X82156072Y-42684967D01*
X83883000Y-42684967D01*
X83883000Y-43007033D01*
X83945832Y-43322912D01*
X84069082Y-43620463D01*
X84248013Y-43888252D01*
X84475748Y-44115987D01*
X84743537Y-44294918D01*
X85041088Y-44418168D01*
X85356967Y-44481000D01*
X85679033Y-44481000D01*
X85994912Y-44418168D01*
X86292463Y-44294918D01*
X86560252Y-44115987D01*
X86787987Y-43888252D01*
X86966918Y-43620463D01*
X87090168Y-43322912D01*
X87153000Y-43007033D01*
X87153000Y-42684967D01*
X87090168Y-42369088D01*
X86966918Y-42071537D01*
X86824682Y-41858665D01*
X88305000Y-41858665D01*
X88305000Y-42141335D01*
X88360147Y-42418574D01*
X88468320Y-42679727D01*
X88625363Y-42914759D01*
X88825241Y-43114637D01*
X89060273Y-43271680D01*
X89070865Y-43276067D01*
X88884869Y-43387615D01*
X88676481Y-43576586D01*
X88508963Y-43802580D01*
X88388754Y-44056913D01*
X88348096Y-44190961D01*
X88470085Y-44413000D01*
X89613000Y-44413000D01*
X89613000Y-44393000D01*
X89867000Y-44393000D01*
X89867000Y-44413000D01*
X91009915Y-44413000D01*
X91131904Y-44190961D01*
X91091246Y-44056913D01*
X90971037Y-43802580D01*
X90803519Y-43576586D01*
X90595131Y-43387615D01*
X90409135Y-43276067D01*
X90419727Y-43271680D01*
X90654759Y-43114637D01*
X90846694Y-42922702D01*
X92962903Y-42922702D01*
X93034486Y-43166671D01*
X93289996Y-43287571D01*
X93564184Y-43356300D01*
X93846512Y-43370217D01*
X94126130Y-43328787D01*
X94392292Y-43233603D01*
X94517514Y-43166671D01*
X94589097Y-42922702D01*
X93776000Y-42109605D01*
X92962903Y-42922702D01*
X90846694Y-42922702D01*
X90854637Y-42914759D01*
X91011680Y-42679727D01*
X91119853Y-42418574D01*
X91175000Y-42141335D01*
X91175000Y-42000512D01*
X92335783Y-42000512D01*
X92377213Y-42280130D01*
X92472397Y-42546292D01*
X92539329Y-42671514D01*
X92783298Y-42743097D01*
X93596395Y-41930000D01*
X92783298Y-41116903D01*
X92539329Y-41188486D01*
X92418429Y-41443996D01*
X92349700Y-41718184D01*
X92335783Y-42000512D01*
X91175000Y-42000512D01*
X91175000Y-41858665D01*
X91119853Y-41581426D01*
X91011680Y-41320273D01*
X90854637Y-41085241D01*
X90706694Y-40937298D01*
X92962903Y-40937298D01*
X93776000Y-41750395D01*
X94589097Y-40937298D01*
X94517514Y-40693329D01*
X94262004Y-40572429D01*
X93987816Y-40503700D01*
X93705488Y-40489783D01*
X93425870Y-40531213D01*
X93159708Y-40626397D01*
X93034486Y-40693329D01*
X92962903Y-40937298D01*
X90706694Y-40937298D01*
X90654759Y-40885363D01*
X90419727Y-40728320D01*
X90158574Y-40620147D01*
X89881335Y-40565000D01*
X89598665Y-40565000D01*
X89321426Y-40620147D01*
X89060273Y-40728320D01*
X88825241Y-40885363D01*
X88625363Y-41085241D01*
X88468320Y-41320273D01*
X88360147Y-41581426D01*
X88305000Y-41858665D01*
X86824682Y-41858665D01*
X86787987Y-41803748D01*
X86560252Y-41576013D01*
X86292463Y-41397082D01*
X85994912Y-41273832D01*
X85679033Y-41211000D01*
X85356967Y-41211000D01*
X85041088Y-41273832D01*
X84743537Y-41397082D01*
X84475748Y-41576013D01*
X84248013Y-41803748D01*
X84069082Y-42071537D01*
X83945832Y-42369088D01*
X83883000Y-42684967D01*
X82156072Y-42684967D01*
X82156072Y-41846000D01*
X82143812Y-41721518D01*
X82107502Y-41601820D01*
X82048537Y-41491506D01*
X81969185Y-41394815D01*
X81872494Y-41315463D01*
X81762180Y-41256498D01*
X81642482Y-41220188D01*
X81518000Y-41207928D01*
X79518000Y-41207928D01*
X79393518Y-41220188D01*
X79273820Y-41256498D01*
X79163506Y-41315463D01*
X79066815Y-41394815D01*
X78987463Y-41491506D01*
X78928498Y-41601820D01*
X78892188Y-41721518D01*
X78879928Y-41846000D01*
X75938072Y-41846000D01*
X75938072Y-41200000D01*
X75925812Y-41075518D01*
X75889502Y-40955820D01*
X75830537Y-40845506D01*
X75751185Y-40748815D01*
X75654494Y-40669463D01*
X75565698Y-40622000D01*
X76058290Y-40622000D01*
X76118227Y-40681937D01*
X76287745Y-40795205D01*
X76476103Y-40873226D01*
X76676062Y-40913000D01*
X76879940Y-40913000D01*
X77079899Y-40873226D01*
X77268257Y-40795205D01*
X77437775Y-40681937D01*
X77581938Y-40537774D01*
X77695206Y-40368256D01*
X77773227Y-40179898D01*
X77813001Y-39979939D01*
X77813001Y-39776061D01*
X77773227Y-39576102D01*
X77695206Y-39387744D01*
X77581938Y-39218226D01*
X77437775Y-39074063D01*
X77268257Y-38960795D01*
X77079899Y-38882774D01*
X76879940Y-38843000D01*
X76676062Y-38843000D01*
X76476103Y-38882774D01*
X76287745Y-38960795D01*
X76118227Y-39074063D01*
X76040290Y-39152000D01*
X69151460Y-39152000D01*
X69037012Y-38875698D01*
X68803363Y-38526017D01*
X68505983Y-38228637D01*
X68156302Y-37994988D01*
X67767756Y-37834047D01*
X67355279Y-37752000D01*
X66934721Y-37752000D01*
X66522244Y-37834047D01*
X66133698Y-37994988D01*
X65784017Y-38228637D01*
X65486637Y-38526017D01*
X65252988Y-38875698D01*
X65092047Y-39264244D01*
X65010000Y-39676721D01*
X61660000Y-39676721D01*
X61660000Y-37684967D01*
X78883000Y-37684967D01*
X78883000Y-38007033D01*
X78945832Y-38322912D01*
X79069082Y-38620463D01*
X79248013Y-38888252D01*
X79475748Y-39115987D01*
X79743537Y-39294918D01*
X80041088Y-39418168D01*
X80356967Y-39481000D01*
X80679033Y-39481000D01*
X80994912Y-39418168D01*
X81292463Y-39294918D01*
X81560252Y-39115987D01*
X81787987Y-38888252D01*
X81966918Y-38620463D01*
X82090168Y-38322912D01*
X82109358Y-38226435D01*
X83927871Y-38226435D01*
X84032644Y-38529344D01*
X84194499Y-38805992D01*
X84407215Y-39045748D01*
X84662618Y-39239399D01*
X84950893Y-39379502D01*
X85137566Y-39436124D01*
X85391000Y-39316777D01*
X85391000Y-37973000D01*
X85645000Y-37973000D01*
X85645000Y-39316777D01*
X85898434Y-39436124D01*
X86085107Y-39379502D01*
X86373382Y-39239399D01*
X86628785Y-39045748D01*
X86841501Y-38805992D01*
X86967283Y-38591000D01*
X93861928Y-38591000D01*
X93861928Y-39641000D01*
X93874188Y-39765482D01*
X93910498Y-39885180D01*
X93969463Y-39995494D01*
X94048815Y-40092185D01*
X94145506Y-40171537D01*
X94255820Y-40230502D01*
X94375518Y-40266812D01*
X94500000Y-40279072D01*
X96000000Y-40279072D01*
X96124482Y-40266812D01*
X96244180Y-40230502D01*
X96354494Y-40171537D01*
X96451185Y-40092185D01*
X96530537Y-39995494D01*
X96589502Y-39885180D01*
X96625812Y-39765482D01*
X96638072Y-39641000D01*
X96638072Y-38591000D01*
X96625812Y-38466518D01*
X96589502Y-38346820D01*
X96554824Y-38281943D01*
X96585272Y-38213337D01*
X96593964Y-38151810D01*
X96468163Y-37973000D01*
X96150235Y-37973000D01*
X96124482Y-37965188D01*
X96000000Y-37952928D01*
X94500000Y-37952928D01*
X94375518Y-37965188D01*
X94349765Y-37973000D01*
X94031837Y-37973000D01*
X93906036Y-38151810D01*
X93914728Y-38213337D01*
X93945176Y-38281943D01*
X93910498Y-38346820D01*
X93874188Y-38466518D01*
X93861928Y-38591000D01*
X86967283Y-38591000D01*
X87003356Y-38529344D01*
X87108129Y-38226435D01*
X86989315Y-37973000D01*
X85645000Y-37973000D01*
X85391000Y-37973000D01*
X84046685Y-37973000D01*
X83927871Y-38226435D01*
X82109358Y-38226435D01*
X82153000Y-38007033D01*
X82153000Y-37684967D01*
X82109359Y-37465565D01*
X83927871Y-37465565D01*
X84046685Y-37719000D01*
X85391000Y-37719000D01*
X85391000Y-36375223D01*
X85645000Y-36375223D01*
X85645000Y-37719000D01*
X86989315Y-37719000D01*
X87108129Y-37465565D01*
X87003356Y-37162656D01*
X86841501Y-36886008D01*
X86628785Y-36646252D01*
X86536131Y-36576000D01*
X93859388Y-36576000D01*
X93881785Y-36803400D01*
X93948115Y-37022060D01*
X94048929Y-37210669D01*
X94007725Y-37269118D01*
X93914728Y-37478663D01*
X93906036Y-37540190D01*
X94031837Y-37719000D01*
X94796891Y-37719000D01*
X94797600Y-37719215D01*
X94968021Y-37736000D01*
X95531979Y-37736000D01*
X95702400Y-37719215D01*
X95703109Y-37719000D01*
X96468163Y-37719000D01*
X96593964Y-37540190D01*
X96585272Y-37478663D01*
X96492275Y-37269118D01*
X96451071Y-37210669D01*
X96551885Y-37022060D01*
X96618215Y-36803400D01*
X96640612Y-36576000D01*
X96618215Y-36348600D01*
X96551885Y-36129940D01*
X96444171Y-35928421D01*
X96299212Y-35751788D01*
X96122579Y-35606829D01*
X95921060Y-35499115D01*
X95702400Y-35432785D01*
X95531979Y-35416000D01*
X94968021Y-35416000D01*
X94797600Y-35432785D01*
X94578940Y-35499115D01*
X94377421Y-35606829D01*
X94200788Y-35751788D01*
X94055829Y-35928421D01*
X93948115Y-36129940D01*
X93881785Y-36348600D01*
X93859388Y-36576000D01*
X86536131Y-36576000D01*
X86373382Y-36452601D01*
X86085107Y-36312498D01*
X85898434Y-36255876D01*
X85645000Y-36375223D01*
X85391000Y-36375223D01*
X85137566Y-36255876D01*
X84950893Y-36312498D01*
X84662618Y-36452601D01*
X84407215Y-36646252D01*
X84194499Y-36886008D01*
X84032644Y-37162656D01*
X83927871Y-37465565D01*
X82109359Y-37465565D01*
X82090168Y-37369088D01*
X81966918Y-37071537D01*
X81787987Y-36803748D01*
X81560252Y-36576013D01*
X81292463Y-36397082D01*
X80994912Y-36273832D01*
X80679033Y-36211000D01*
X80356967Y-36211000D01*
X80041088Y-36273832D01*
X79743537Y-36397082D01*
X79475748Y-36576013D01*
X79248013Y-36803748D01*
X79069082Y-37071537D01*
X78945832Y-37369088D01*
X78883000Y-37684967D01*
X61660000Y-37684967D01*
X61660000Y-34596721D01*
X65010000Y-34596721D01*
X65010000Y-35017279D01*
X65092047Y-35429756D01*
X65252988Y-35818302D01*
X65486637Y-36167983D01*
X65784017Y-36465363D01*
X66133698Y-36699012D01*
X66522244Y-36859953D01*
X66934721Y-36942000D01*
X67355279Y-36942000D01*
X67767756Y-36859953D01*
X68156302Y-36699012D01*
X68505983Y-36465363D01*
X68803363Y-36167983D01*
X69037012Y-35818302D01*
X69197953Y-35429756D01*
X69280000Y-35017279D01*
X69280000Y-34833702D01*
X92952903Y-34833702D01*
X93024486Y-35077671D01*
X93279996Y-35198571D01*
X93554184Y-35267300D01*
X93836512Y-35281217D01*
X94116130Y-35239787D01*
X94382292Y-35144603D01*
X94507514Y-35077671D01*
X94579097Y-34833702D01*
X93766000Y-34020605D01*
X92952903Y-34833702D01*
X69280000Y-34833702D01*
X69280000Y-34596721D01*
X69197953Y-34184244D01*
X69084984Y-33911512D01*
X92325783Y-33911512D01*
X92367213Y-34191130D01*
X92462397Y-34457292D01*
X92529329Y-34582514D01*
X92773298Y-34654097D01*
X93586395Y-33841000D01*
X93945605Y-33841000D01*
X94758702Y-34654097D01*
X95002671Y-34582514D01*
X95016324Y-34553659D01*
X95151363Y-34755759D01*
X95351241Y-34955637D01*
X95586273Y-35112680D01*
X95847426Y-35220853D01*
X96124665Y-35276000D01*
X96407335Y-35276000D01*
X96684574Y-35220853D01*
X96945727Y-35112680D01*
X97180759Y-34955637D01*
X97380637Y-34755759D01*
X97537680Y-34520727D01*
X97645853Y-34259574D01*
X97701000Y-33982335D01*
X97701000Y-33699665D01*
X97645853Y-33422426D01*
X97537680Y-33161273D01*
X97380637Y-32926241D01*
X97180759Y-32726363D01*
X96945727Y-32569320D01*
X96684574Y-32461147D01*
X96407335Y-32406000D01*
X96124665Y-32406000D01*
X95847426Y-32461147D01*
X95586273Y-32569320D01*
X95351241Y-32726363D01*
X95151363Y-32926241D01*
X95017308Y-33126869D01*
X95002671Y-33099486D01*
X94758702Y-33027903D01*
X93945605Y-33841000D01*
X93586395Y-33841000D01*
X92773298Y-33027903D01*
X92529329Y-33099486D01*
X92408429Y-33354996D01*
X92339700Y-33629184D01*
X92325783Y-33911512D01*
X69084984Y-33911512D01*
X69037012Y-33795698D01*
X68803363Y-33446017D01*
X68505983Y-33148637D01*
X68156302Y-32914988D01*
X67995299Y-32848298D01*
X92952903Y-32848298D01*
X93766000Y-33661395D01*
X94579097Y-32848298D01*
X94507514Y-32604329D01*
X94252004Y-32483429D01*
X93977816Y-32414700D01*
X93695488Y-32400783D01*
X93415870Y-32442213D01*
X93149708Y-32537397D01*
X93024486Y-32604329D01*
X92952903Y-32848298D01*
X67995299Y-32848298D01*
X67767756Y-32754047D01*
X67355279Y-32672000D01*
X66934721Y-32672000D01*
X66522244Y-32754047D01*
X66133698Y-32914988D01*
X65784017Y-33148637D01*
X65486637Y-33446017D01*
X65252988Y-33795698D01*
X65092047Y-34184244D01*
X65010000Y-34596721D01*
X61660000Y-34596721D01*
X61660000Y-29516721D01*
X65010000Y-29516721D01*
X65010000Y-29937279D01*
X65092047Y-30349756D01*
X65252988Y-30738302D01*
X65486637Y-31087983D01*
X65784017Y-31385363D01*
X66133698Y-31619012D01*
X66522244Y-31779953D01*
X66934721Y-31862000D01*
X67355279Y-31862000D01*
X67767756Y-31779953D01*
X68156302Y-31619012D01*
X68505983Y-31385363D01*
X68803363Y-31087983D01*
X69037012Y-30738302D01*
X69155834Y-30451438D01*
X93132505Y-30451438D01*
X93171605Y-30691549D01*
X93256798Y-30919418D01*
X93297652Y-30995852D01*
X93521236Y-31043159D01*
X94191395Y-30373000D01*
X93521236Y-29702841D01*
X93297652Y-29750148D01*
X93196763Y-29971516D01*
X93141000Y-30208313D01*
X93132505Y-30451438D01*
X69155834Y-30451438D01*
X69197953Y-30349756D01*
X69280000Y-29937279D01*
X69280000Y-29523236D01*
X93700841Y-29523236D01*
X94371000Y-30193395D01*
X94385143Y-30179253D01*
X94564748Y-30358858D01*
X94550605Y-30373000D01*
X94564748Y-30387143D01*
X94385143Y-30566748D01*
X94371000Y-30552605D01*
X93700841Y-31222764D01*
X93748148Y-31446348D01*
X93969516Y-31547237D01*
X94206313Y-31603000D01*
X94449438Y-31611495D01*
X94689549Y-31572395D01*
X94903117Y-31492549D01*
X94916506Y-31503537D01*
X95026820Y-31562502D01*
X95146518Y-31598812D01*
X95271000Y-31611072D01*
X96471000Y-31611072D01*
X96595482Y-31598812D01*
X96715180Y-31562502D01*
X96825494Y-31503537D01*
X96922185Y-31424185D01*
X97001537Y-31327494D01*
X97060502Y-31217180D01*
X97096812Y-31097482D01*
X97109072Y-30973000D01*
X97109072Y-29773000D01*
X97096812Y-29648518D01*
X97060502Y-29528820D01*
X97001537Y-29418506D01*
X96922185Y-29321815D01*
X96825494Y-29242463D01*
X96715180Y-29183498D01*
X96595482Y-29147188D01*
X96471000Y-29134928D01*
X95271000Y-29134928D01*
X95146518Y-29147188D01*
X95026820Y-29183498D01*
X94916506Y-29242463D01*
X94899319Y-29256568D01*
X94772484Y-29198763D01*
X94535687Y-29143000D01*
X94292562Y-29134505D01*
X94052451Y-29173605D01*
X93824582Y-29258798D01*
X93748148Y-29299652D01*
X93700841Y-29523236D01*
X69280000Y-29523236D01*
X69280000Y-29516721D01*
X69197953Y-29104244D01*
X69037012Y-28715698D01*
X68803363Y-28366017D01*
X68505983Y-28068637D01*
X68156302Y-27834988D01*
X67767756Y-27674047D01*
X67355279Y-27592000D01*
X66934721Y-27592000D01*
X66522244Y-27674047D01*
X66133698Y-27834988D01*
X65784017Y-28068637D01*
X65486637Y-28366017D01*
X65252988Y-28715698D01*
X65092047Y-29104244D01*
X65010000Y-29516721D01*
X61660000Y-29516721D01*
X61660000Y-26000000D01*
X72281928Y-26000000D01*
X72294188Y-26124482D01*
X72330498Y-26244180D01*
X72389463Y-26354494D01*
X72468815Y-26451185D01*
X72565506Y-26530537D01*
X72675820Y-26589502D01*
X72795518Y-26625812D01*
X72920000Y-26638072D01*
X74134250Y-26635000D01*
X74293000Y-26476250D01*
X74293000Y-24627000D01*
X74547000Y-24627000D01*
X74547000Y-26476250D01*
X74705750Y-26635000D01*
X75920000Y-26638072D01*
X76044482Y-26625812D01*
X76164180Y-26589502D01*
X76274494Y-26530537D01*
X76371185Y-26451185D01*
X76450537Y-26354494D01*
X76509502Y-26244180D01*
X76545812Y-26124482D01*
X76558072Y-26000000D01*
X76555000Y-24785750D01*
X76396250Y-24627000D01*
X74547000Y-24627000D01*
X74293000Y-24627000D01*
X72443750Y-24627000D01*
X72285000Y-24785750D01*
X72281928Y-26000000D01*
X61660000Y-26000000D01*
X61660000Y-22279872D01*
X62765000Y-22279872D01*
X62765000Y-22720128D01*
X62850890Y-23151925D01*
X63019369Y-23558669D01*
X63263962Y-23924729D01*
X63575271Y-24236038D01*
X63941331Y-24480631D01*
X64348075Y-24649110D01*
X64779872Y-24735000D01*
X65220128Y-24735000D01*
X65651925Y-24649110D01*
X66058669Y-24480631D01*
X66424729Y-24236038D01*
X66736038Y-23924729D01*
X66980631Y-23558669D01*
X67149110Y-23151925D01*
X67179329Y-23000000D01*
X72281928Y-23000000D01*
X72285000Y-24214250D01*
X72443750Y-24373000D01*
X74293000Y-24373000D01*
X74293000Y-22523750D01*
X74547000Y-22523750D01*
X74547000Y-24373000D01*
X76396250Y-24373000D01*
X76479529Y-24289721D01*
X77365000Y-24289721D01*
X77365000Y-24710279D01*
X77447047Y-25122756D01*
X77607988Y-25511302D01*
X77841637Y-25860983D01*
X78139017Y-26158363D01*
X78488698Y-26392012D01*
X78877244Y-26552953D01*
X79289721Y-26635000D01*
X79710279Y-26635000D01*
X80122756Y-26552953D01*
X80511302Y-26392012D01*
X80860983Y-26158363D01*
X81158363Y-25860983D01*
X81392012Y-25511302D01*
X81552953Y-25122756D01*
X81635000Y-24710279D01*
X81635000Y-24289721D01*
X82445000Y-24289721D01*
X82445000Y-24710279D01*
X82527047Y-25122756D01*
X82687988Y-25511302D01*
X82921637Y-25860983D01*
X83219017Y-26158363D01*
X83568698Y-26392012D01*
X83957244Y-26552953D01*
X84369721Y-26635000D01*
X84790279Y-26635000D01*
X85202756Y-26552953D01*
X85591302Y-26392012D01*
X85940983Y-26158363D01*
X86238363Y-25860983D01*
X86472012Y-25511302D01*
X86632953Y-25122756D01*
X86715000Y-24710279D01*
X86715000Y-24289721D01*
X87525000Y-24289721D01*
X87525000Y-24710279D01*
X87607047Y-25122756D01*
X87767988Y-25511302D01*
X88001637Y-25860983D01*
X88299017Y-26158363D01*
X88648698Y-26392012D01*
X89037244Y-26552953D01*
X89449721Y-26635000D01*
X89870279Y-26635000D01*
X90282756Y-26552953D01*
X90671302Y-26392012D01*
X91020983Y-26158363D01*
X91318363Y-25860983D01*
X91552012Y-25511302D01*
X91712953Y-25122756D01*
X91795000Y-24710279D01*
X91795000Y-24289721D01*
X91712953Y-23877244D01*
X91552012Y-23488698D01*
X91318363Y-23139017D01*
X91020983Y-22841637D01*
X90671302Y-22607988D01*
X90282756Y-22447047D01*
X89870279Y-22365000D01*
X89449721Y-22365000D01*
X89037244Y-22447047D01*
X88648698Y-22607988D01*
X88299017Y-22841637D01*
X88001637Y-23139017D01*
X87767988Y-23488698D01*
X87607047Y-23877244D01*
X87525000Y-24289721D01*
X86715000Y-24289721D01*
X86632953Y-23877244D01*
X86472012Y-23488698D01*
X86238363Y-23139017D01*
X85940983Y-22841637D01*
X85591302Y-22607988D01*
X85202756Y-22447047D01*
X84790279Y-22365000D01*
X84369721Y-22365000D01*
X83957244Y-22447047D01*
X83568698Y-22607988D01*
X83219017Y-22841637D01*
X82921637Y-23139017D01*
X82687988Y-23488698D01*
X82527047Y-23877244D01*
X82445000Y-24289721D01*
X81635000Y-24289721D01*
X81552953Y-23877244D01*
X81392012Y-23488698D01*
X81158363Y-23139017D01*
X80860983Y-22841637D01*
X80511302Y-22607988D01*
X80122756Y-22447047D01*
X79710279Y-22365000D01*
X79289721Y-22365000D01*
X78877244Y-22447047D01*
X78488698Y-22607988D01*
X78139017Y-22841637D01*
X77841637Y-23139017D01*
X77607988Y-23488698D01*
X77447047Y-23877244D01*
X77365000Y-24289721D01*
X76479529Y-24289721D01*
X76555000Y-24214250D01*
X76558072Y-23000000D01*
X76545812Y-22875518D01*
X76509502Y-22755820D01*
X76450537Y-22645506D01*
X76371185Y-22548815D01*
X76274494Y-22469463D01*
X76164180Y-22410498D01*
X76044482Y-22374188D01*
X75920000Y-22361928D01*
X74705750Y-22365000D01*
X74547000Y-22523750D01*
X74293000Y-22523750D01*
X74134250Y-22365000D01*
X72920000Y-22361928D01*
X72795518Y-22374188D01*
X72675820Y-22410498D01*
X72565506Y-22469463D01*
X72468815Y-22548815D01*
X72389463Y-22645506D01*
X72330498Y-22755820D01*
X72294188Y-22875518D01*
X72281928Y-23000000D01*
X67179329Y-23000000D01*
X67235000Y-22720128D01*
X67235000Y-22279872D01*
X96765000Y-22279872D01*
X96765000Y-22720128D01*
X96850890Y-23151925D01*
X97019369Y-23558669D01*
X97263962Y-23924729D01*
X97575271Y-24236038D01*
X97941331Y-24480631D01*
X98348075Y-24649110D01*
X98779872Y-24735000D01*
X99220128Y-24735000D01*
X99651925Y-24649110D01*
X100058669Y-24480631D01*
X100424729Y-24236038D01*
X100736038Y-23924729D01*
X100980631Y-23558669D01*
X101149110Y-23151925D01*
X101235000Y-22720128D01*
X101235000Y-22279872D01*
X101149110Y-21848075D01*
X100980631Y-21441331D01*
X100736038Y-21075271D01*
X100424729Y-20763962D01*
X100058669Y-20519369D01*
X99651925Y-20350890D01*
X99220128Y-20265000D01*
X98779872Y-20265000D01*
X98348075Y-20350890D01*
X97941331Y-20519369D01*
X97575271Y-20763962D01*
X97263962Y-21075271D01*
X97019369Y-21441331D01*
X96850890Y-21848075D01*
X96765000Y-22279872D01*
X67235000Y-22279872D01*
X67149110Y-21848075D01*
X66980631Y-21441331D01*
X66736038Y-21075271D01*
X66424729Y-20763962D01*
X66058669Y-20519369D01*
X65651925Y-20350890D01*
X65220128Y-20265000D01*
X64779872Y-20265000D01*
X64348075Y-20350890D01*
X63941331Y-20519369D01*
X63575271Y-20763962D01*
X63263962Y-21075271D01*
X63019369Y-21441331D01*
X62850890Y-21848075D01*
X62765000Y-22279872D01*
X61660000Y-22279872D01*
X61660000Y-19160000D01*
X102340001Y-19160000D01*
X102340001Y-33891928D01*
%TA.AperFunction,Conductor*%
D28*
G36*
X102340001Y-33891928D02*
G01*
X100650000Y-33891928D01*
X100525518Y-33904188D01*
X100405820Y-33940498D01*
X100295506Y-33999463D01*
X100198815Y-34078815D01*
X100119463Y-34175506D01*
X100060498Y-34285820D01*
X100024188Y-34405518D01*
X100011928Y-34530000D01*
X100011928Y-35600625D01*
X97422808Y-38189746D01*
X97394763Y-38212762D01*
X97302914Y-38324680D01*
X97255068Y-38414194D01*
X97234664Y-38452367D01*
X97192635Y-38590915D01*
X97178444Y-38735000D01*
X97182001Y-38771115D01*
X97182001Y-40809511D01*
X96955727Y-40658320D01*
X96694574Y-40550147D01*
X96417335Y-40495000D01*
X96134665Y-40495000D01*
X95857426Y-40550147D01*
X95596273Y-40658320D01*
X95361241Y-40815363D01*
X95161363Y-41015241D01*
X95027308Y-41215869D01*
X95012671Y-41188486D01*
X94768702Y-41116903D01*
X93955605Y-41930000D01*
X94768702Y-42743097D01*
X95012671Y-42671514D01*
X95026324Y-42642659D01*
X95161363Y-42844759D01*
X95361241Y-43044637D01*
X95596273Y-43201680D01*
X95857426Y-43309853D01*
X96134665Y-43365000D01*
X96417335Y-43365000D01*
X96694574Y-43309853D01*
X96955727Y-43201680D01*
X97182000Y-43050489D01*
X97182000Y-44907553D01*
X97133072Y-44956481D01*
X97133072Y-44817000D01*
X97120812Y-44692518D01*
X97084502Y-44572820D01*
X97025537Y-44462506D01*
X96946185Y-44365815D01*
X96849494Y-44286463D01*
X96739180Y-44227498D01*
X96619482Y-44191188D01*
X96495000Y-44178928D01*
X95295000Y-44178928D01*
X95170518Y-44191188D01*
X95050820Y-44227498D01*
X94940506Y-44286463D01*
X94923319Y-44300568D01*
X94796484Y-44242763D01*
X94559687Y-44187000D01*
X94316562Y-44178505D01*
X94076451Y-44217605D01*
X93848582Y-44302798D01*
X93772148Y-44343652D01*
X93724841Y-44567236D01*
X94395000Y-45237395D01*
X94409143Y-45223253D01*
X94588748Y-45402858D01*
X94574605Y-45417000D01*
X94588748Y-45431143D01*
X94409143Y-45610748D01*
X94395000Y-45596605D01*
X93724841Y-46266764D01*
X93772148Y-46490348D01*
X93993516Y-46591237D01*
X94230313Y-46647000D01*
X94473438Y-46655495D01*
X94713549Y-46616395D01*
X94927117Y-46536549D01*
X94940506Y-46547537D01*
X95050820Y-46606502D01*
X95170518Y-46642812D01*
X95295000Y-46655072D01*
X95434481Y-46655072D01*
X92659554Y-49430000D01*
X91165320Y-49430000D01*
X91119853Y-49201426D01*
X91011680Y-48940273D01*
X90854637Y-48705241D01*
X90654759Y-48505363D01*
X90422241Y-48350000D01*
X90654759Y-48194637D01*
X90854637Y-47994759D01*
X91011680Y-47759727D01*
X91119853Y-47498574D01*
X91175000Y-47221335D01*
X91175000Y-46938665D01*
X91119853Y-46661426D01*
X91011680Y-46400273D01*
X90854637Y-46165241D01*
X90654759Y-45965363D01*
X90419727Y-45808320D01*
X90409135Y-45803933D01*
X90595131Y-45692385D01*
X90803519Y-45503414D01*
X90809431Y-45495438D01*
X93156505Y-45495438D01*
X93195605Y-45735549D01*
X93280798Y-45963418D01*
X93321652Y-46039852D01*
X93545236Y-46087159D01*
X94215395Y-45417000D01*
X93545236Y-44746841D01*
X93321652Y-44794148D01*
X93220763Y-45015516D01*
X93165000Y-45252313D01*
X93156505Y-45495438D01*
X90809431Y-45495438D01*
X90971037Y-45277420D01*
X91091246Y-45023087D01*
X91131904Y-44889039D01*
X91009915Y-44667000D01*
X89867000Y-44667000D01*
X89867000Y-44687000D01*
X89613000Y-44687000D01*
X89613000Y-44667000D01*
X88470085Y-44667000D01*
X88348096Y-44889039D01*
X88388754Y-45023087D01*
X88508963Y-45277420D01*
X88676481Y-45503414D01*
X88884869Y-45692385D01*
X89070865Y-45803933D01*
X89060273Y-45808320D01*
X88825241Y-45965363D01*
X88625363Y-46165241D01*
X88468320Y-46400273D01*
X88360147Y-46661426D01*
X88305000Y-46938665D01*
X88305000Y-47221335D01*
X88360147Y-47498574D01*
X88468320Y-47759727D01*
X88625363Y-47994759D01*
X88825241Y-48194637D01*
X89057759Y-48350000D01*
X88825241Y-48505363D01*
X88625363Y-48705241D01*
X88468320Y-48940273D01*
X88360147Y-49201426D01*
X88314680Y-49430000D01*
X87412105Y-49430000D01*
X87376000Y-49426444D01*
X87339895Y-49430000D01*
X87231915Y-49440635D01*
X87093367Y-49482663D01*
X87013635Y-49525281D01*
X86981061Y-49446641D01*
X86834962Y-49227987D01*
X86649013Y-49042038D01*
X86490315Y-48936000D01*
X86649013Y-48829962D01*
X86834962Y-48644013D01*
X86981061Y-48425359D01*
X87081696Y-48182405D01*
X87133000Y-47924486D01*
X87133000Y-47661514D01*
X87081696Y-47403595D01*
X86981061Y-47160641D01*
X86834962Y-46941987D01*
X86649013Y-46756038D01*
X86430359Y-46609939D01*
X86187405Y-46509304D01*
X85929486Y-46458000D01*
X85666514Y-46458000D01*
X85408595Y-46509304D01*
X85165641Y-46609939D01*
X84946987Y-46756038D01*
X84761038Y-46941987D01*
X84614939Y-47160641D01*
X84514304Y-47403595D01*
X84463000Y-47661514D01*
X84463000Y-47924486D01*
X84514304Y-48182405D01*
X84614939Y-48425359D01*
X84761038Y-48644013D01*
X84946987Y-48829962D01*
X85105685Y-48936000D01*
X84946987Y-49042038D01*
X84761038Y-49227987D01*
X84614939Y-49446641D01*
X84514304Y-49689595D01*
X84463000Y-49947514D01*
X84463000Y-50210486D01*
X84514304Y-50468405D01*
X84581239Y-50629999D01*
X83164095Y-50629999D01*
X83128000Y-50626444D01*
X83091905Y-50629999D01*
X83091896Y-50629999D01*
X82983916Y-50640634D01*
X82845368Y-50682662D01*
X82717681Y-50750912D01*
X82605763Y-50842761D01*
X82582747Y-50870806D01*
X79382692Y-54070862D01*
X79361061Y-54018641D01*
X79214962Y-53799987D01*
X79029013Y-53614038D01*
X78870315Y-53508000D01*
X79029013Y-53401962D01*
X79214962Y-53216013D01*
X79361061Y-52997359D01*
X79461696Y-52754405D01*
X79513000Y-52496486D01*
X79513000Y-52233514D01*
X79461696Y-51975595D01*
X79361061Y-51732641D01*
X79214962Y-51513987D01*
X79029013Y-51328038D01*
X78870315Y-51222000D01*
X79029013Y-51115962D01*
X79214962Y-50930013D01*
X79361061Y-50711359D01*
X79461696Y-50468405D01*
X79513000Y-50210486D01*
X79513000Y-49947514D01*
X79461696Y-49689595D01*
X79361061Y-49446641D01*
X79214962Y-49227987D01*
X79029013Y-49042038D01*
X78870315Y-48936000D01*
X79029013Y-48829962D01*
X79214962Y-48644013D01*
X79361061Y-48425359D01*
X79461696Y-48182405D01*
X79513000Y-47924486D01*
X79513000Y-47661514D01*
X79461696Y-47403595D01*
X79361061Y-47160641D01*
X79214962Y-46941987D01*
X79029013Y-46756038D01*
X78810359Y-46609939D01*
X78567405Y-46509304D01*
X78309486Y-46458000D01*
X78046514Y-46458000D01*
X77788595Y-46509304D01*
X77545641Y-46609939D01*
X77326987Y-46756038D01*
X77141038Y-46941987D01*
X76994939Y-47160641D01*
X76894304Y-47403595D01*
X76843000Y-47661514D01*
X76843000Y-47924486D01*
X76894304Y-48182405D01*
X76994939Y-48425359D01*
X77141038Y-48644013D01*
X77326987Y-48829962D01*
X77485685Y-48936000D01*
X77326987Y-49042038D01*
X77141038Y-49227987D01*
X76994939Y-49446641D01*
X76894304Y-49689595D01*
X76843000Y-49947514D01*
X76843000Y-50210486D01*
X76865223Y-50322209D01*
X76836894Y-50324999D01*
X75746361Y-50324999D01*
X75851246Y-50103087D01*
X75891904Y-49969039D01*
X75769915Y-49747000D01*
X74627000Y-49747000D01*
X74627000Y-49767000D01*
X74373000Y-49767000D01*
X74373000Y-49747000D01*
X73230085Y-49747000D01*
X73108096Y-49969039D01*
X73148754Y-50103087D01*
X73253639Y-50324999D01*
X69266530Y-50324999D01*
X69280000Y-50257279D01*
X69280000Y-49836721D01*
X69197953Y-49424244D01*
X69037012Y-49035698D01*
X68803363Y-48686017D01*
X68505983Y-48388637D01*
X68156302Y-48154988D01*
X67767756Y-47994047D01*
X67355279Y-47912000D01*
X66934721Y-47912000D01*
X66522244Y-47994047D01*
X66133698Y-48154988D01*
X65784017Y-48388637D01*
X65486637Y-48686017D01*
X65252988Y-49035698D01*
X65092047Y-49424244D01*
X65010000Y-49836721D01*
X65010000Y-50257279D01*
X65092047Y-50669756D01*
X65252988Y-51058302D01*
X65486637Y-51407983D01*
X65784017Y-51705363D01*
X66133698Y-51939012D01*
X66522244Y-52099953D01*
X66934721Y-52182000D01*
X67355279Y-52182000D01*
X67767756Y-52099953D01*
X68156302Y-51939012D01*
X68371833Y-51794999D01*
X73109491Y-51794999D01*
X73065000Y-52018665D01*
X73065000Y-52301335D01*
X73120147Y-52578574D01*
X73228320Y-52839727D01*
X73385363Y-53074759D01*
X73585241Y-53274637D01*
X73817759Y-53430000D01*
X73585241Y-53585363D01*
X73385363Y-53785241D01*
X73228320Y-54020273D01*
X73120147Y-54281426D01*
X73065000Y-54558665D01*
X73065000Y-54841335D01*
X73120147Y-55118574D01*
X73228320Y-55379727D01*
X73245206Y-55404999D01*
X71248106Y-55404999D01*
X71212001Y-55401443D01*
X71067915Y-55415634D01*
X71040617Y-55423915D01*
X70929368Y-55457662D01*
X70801681Y-55525912D01*
X70689763Y-55617761D01*
X70666747Y-55645806D01*
X68044058Y-58268495D01*
X67767756Y-58154047D01*
X67355279Y-58072000D01*
X66934721Y-58072000D01*
X66522244Y-58154047D01*
X66133698Y-58314988D01*
X65784017Y-58548637D01*
X65486637Y-58846017D01*
X65252988Y-59195698D01*
X65092047Y-59584244D01*
X65010000Y-59996721D01*
X65010000Y-60417279D01*
X65092047Y-60829756D01*
X65252988Y-61218302D01*
X65486637Y-61567983D01*
X65784017Y-61865363D01*
X66133698Y-62099012D01*
X66522244Y-62259953D01*
X66934721Y-62342000D01*
X67355279Y-62342000D01*
X67767756Y-62259953D01*
X68156302Y-62099012D01*
X68505983Y-61865363D01*
X68803363Y-61567983D01*
X69037012Y-61218302D01*
X69197953Y-60829756D01*
X69280000Y-60417279D01*
X69280000Y-59996721D01*
X69197953Y-59584244D01*
X69083505Y-59307942D01*
X71516448Y-56874999D01*
X73109491Y-56874999D01*
X73065000Y-57098665D01*
X73065000Y-57381335D01*
X73120147Y-57658574D01*
X73228320Y-57919727D01*
X73385363Y-58154759D01*
X73421578Y-58190974D01*
X69482808Y-62129744D01*
X69454762Y-62152761D01*
X69362913Y-62264679D01*
X69294663Y-62392366D01*
X69273742Y-62461335D01*
X69252635Y-62530913D01*
X69238444Y-62674998D01*
X69242000Y-62711103D01*
X69242000Y-64885685D01*
X69197953Y-64664244D01*
X69037012Y-64275698D01*
X68803363Y-63926017D01*
X68505983Y-63628637D01*
X68156302Y-63394988D01*
X67767756Y-63234047D01*
X67355279Y-63152000D01*
X66934721Y-63152000D01*
X66522244Y-63234047D01*
X66133698Y-63394988D01*
X65784017Y-63628637D01*
X65486637Y-63926017D01*
X65252988Y-64275698D01*
X65092047Y-64664244D01*
X65010000Y-65076721D01*
X65010000Y-65497279D01*
X65092047Y-65909756D01*
X65252988Y-66298302D01*
X65486637Y-66647983D01*
X65784017Y-66945363D01*
X66133698Y-67179012D01*
X66522244Y-67339953D01*
X66934721Y-67422000D01*
X67355279Y-67422000D01*
X67767756Y-67339953D01*
X68156302Y-67179012D01*
X68505983Y-66945363D01*
X68803363Y-66647983D01*
X69037012Y-66298302D01*
X69197953Y-65909756D01*
X69242001Y-65688314D01*
X69242001Y-67230552D01*
X68044058Y-68428495D01*
X67767756Y-68314047D01*
X67355279Y-68232000D01*
X66934721Y-68232000D01*
X66522244Y-68314047D01*
X66133698Y-68474988D01*
X65784017Y-68708637D01*
X65486637Y-69006017D01*
X65252988Y-69355698D01*
X65092047Y-69744244D01*
X65010000Y-70156721D01*
X65010000Y-70577279D01*
X65092047Y-70989756D01*
X65252988Y-71378302D01*
X65486637Y-71727983D01*
X65784017Y-72025363D01*
X66133698Y-72259012D01*
X66522244Y-72419953D01*
X66934721Y-72502000D01*
X67355279Y-72502000D01*
X67767756Y-72419953D01*
X68156302Y-72259012D01*
X68505983Y-72025363D01*
X68803363Y-71727983D01*
X69037012Y-71378302D01*
X69197953Y-70989756D01*
X69280000Y-70577279D01*
X69280000Y-70156721D01*
X69197953Y-69744244D01*
X69083505Y-69467942D01*
X70471193Y-68080254D01*
X70499238Y-68057238D01*
X70591087Y-67945320D01*
X70639000Y-67855680D01*
X70639001Y-72099895D01*
X70639000Y-75993553D01*
X68044058Y-78588495D01*
X67767756Y-78474047D01*
X67355279Y-78392000D01*
X66934721Y-78392000D01*
X66522244Y-78474047D01*
X66133698Y-78634988D01*
X65784017Y-78868637D01*
X65486637Y-79166017D01*
X65252988Y-79515698D01*
X65092047Y-79904244D01*
X65010000Y-80316721D01*
X65010000Y-80737279D01*
X65092047Y-81149756D01*
X65252988Y-81538302D01*
X65486637Y-81887983D01*
X65784017Y-82185363D01*
X66133698Y-82419012D01*
X66522244Y-82579953D01*
X66934721Y-82662000D01*
X67355279Y-82662000D01*
X67767756Y-82579953D01*
X68156302Y-82419012D01*
X68505983Y-82185363D01*
X68803363Y-81887983D01*
X69037012Y-81538302D01*
X69197953Y-81149756D01*
X69280000Y-80737279D01*
X69280000Y-80316721D01*
X69197953Y-79904244D01*
X69083505Y-79627942D01*
X71868197Y-76843250D01*
X71896237Y-76820238D01*
X71919250Y-76792197D01*
X71919253Y-76792194D01*
X71988086Y-76708321D01*
X71988087Y-76708320D01*
X72056337Y-76580633D01*
X72098365Y-76442085D01*
X72109000Y-76334105D01*
X72109000Y-76334098D01*
X72112555Y-76298001D01*
X72109000Y-76261904D01*
X72109000Y-64122444D01*
X73229681Y-63001764D01*
X73385363Y-63234759D01*
X73585241Y-63434637D01*
X73817759Y-63590000D01*
X73585241Y-63745363D01*
X73385363Y-63945241D01*
X73228320Y-64180273D01*
X73120147Y-64441426D01*
X73065000Y-64718665D01*
X73065000Y-65001335D01*
X73120147Y-65278574D01*
X73228320Y-65539727D01*
X73385363Y-65774759D01*
X73585241Y-65974637D01*
X73817759Y-66130000D01*
X73585241Y-66285363D01*
X73385363Y-66485241D01*
X73228320Y-66720273D01*
X73120147Y-66981426D01*
X73065000Y-67258665D01*
X73065000Y-67541335D01*
X73120147Y-67818574D01*
X73228320Y-68079727D01*
X73385363Y-68314759D01*
X73585241Y-68514637D01*
X73817759Y-68670000D01*
X73585241Y-68825363D01*
X73385363Y-69025241D01*
X73228320Y-69260273D01*
X73120147Y-69521426D01*
X73065000Y-69798665D01*
X73065000Y-70081335D01*
X73120147Y-70358574D01*
X73228320Y-70619727D01*
X73385363Y-70854759D01*
X73585241Y-71054637D01*
X73817759Y-71210000D01*
X73585241Y-71365363D01*
X73385363Y-71565241D01*
X73228320Y-71800273D01*
X73120147Y-72061426D01*
X73065000Y-72338665D01*
X73065000Y-72621335D01*
X73120147Y-72898574D01*
X73228320Y-73159727D01*
X73385363Y-73394759D01*
X73585241Y-73594637D01*
X73817759Y-73750000D01*
X73585241Y-73905363D01*
X73385363Y-74105241D01*
X73228320Y-74340273D01*
X73120147Y-74601426D01*
X73065000Y-74878665D01*
X73065000Y-75161335D01*
X73120147Y-75438574D01*
X73228320Y-75699727D01*
X73385363Y-75934759D01*
X73585241Y-76134637D01*
X73817759Y-76290000D01*
X73585241Y-76445363D01*
X73385363Y-76645241D01*
X73228320Y-76880273D01*
X73120147Y-77141426D01*
X73065000Y-77418665D01*
X73065000Y-77701335D01*
X73120147Y-77978574D01*
X73228320Y-78239727D01*
X73385363Y-78474759D01*
X73585241Y-78674637D01*
X73820273Y-78831680D01*
X74081426Y-78939853D01*
X74358665Y-78995000D01*
X74641335Y-78995000D01*
X74918574Y-78939853D01*
X75179727Y-78831680D01*
X75414759Y-78674637D01*
X75614637Y-78474759D01*
X75771680Y-78239727D01*
X75879853Y-77978574D01*
X75935000Y-77701335D01*
X75935000Y-77418665D01*
X75879853Y-77141426D01*
X75771680Y-76880273D01*
X75614637Y-76645241D01*
X75414759Y-76445363D01*
X75182241Y-76290000D01*
X75414759Y-76134637D01*
X75614637Y-75934759D01*
X75771680Y-75699727D01*
X75879853Y-75438574D01*
X75935000Y-75161335D01*
X75935000Y-74878665D01*
X75879853Y-74601426D01*
X75771680Y-74340273D01*
X75614637Y-74105241D01*
X75414759Y-73905363D01*
X75182241Y-73750000D01*
X75414759Y-73594637D01*
X75614637Y-73394759D01*
X75771680Y-73159727D01*
X75879853Y-72898574D01*
X75935000Y-72621335D01*
X75935000Y-72338665D01*
X75879853Y-72061426D01*
X75771680Y-71800273D01*
X75614637Y-71565241D01*
X75414759Y-71365363D01*
X75182241Y-71210000D01*
X75414759Y-71054637D01*
X75614637Y-70854759D01*
X75771680Y-70619727D01*
X75879853Y-70358574D01*
X75935000Y-70081335D01*
X75935000Y-69798665D01*
X75879853Y-69521426D01*
X75771680Y-69260273D01*
X75614637Y-69025241D01*
X75414759Y-68825363D01*
X75182241Y-68670000D01*
X75414759Y-68514637D01*
X75614637Y-68314759D01*
X75771680Y-68079727D01*
X75879853Y-67818574D01*
X75935000Y-67541335D01*
X75935000Y-67258665D01*
X75879853Y-66981426D01*
X75782075Y-66745369D01*
X76907681Y-65619764D01*
X77063363Y-65852759D01*
X77263241Y-66052637D01*
X77495759Y-66208000D01*
X77263241Y-66363363D01*
X77063363Y-66563241D01*
X76906320Y-66798273D01*
X76798147Y-67059426D01*
X76743000Y-67336665D01*
X76743000Y-67619335D01*
X76798147Y-67896574D01*
X76906320Y-68157727D01*
X77063363Y-68392759D01*
X77263241Y-68592637D01*
X77495759Y-68748000D01*
X77263241Y-68903363D01*
X77063363Y-69103241D01*
X76906320Y-69338273D01*
X76798147Y-69599426D01*
X76743000Y-69876665D01*
X76743000Y-70159335D01*
X76798147Y-70436574D01*
X76906320Y-70697727D01*
X77063363Y-70932759D01*
X77263241Y-71132637D01*
X77495759Y-71288000D01*
X77263241Y-71443363D01*
X77063363Y-71643241D01*
X76906320Y-71878273D01*
X76798147Y-72139426D01*
X76743000Y-72416665D01*
X76743000Y-72699335D01*
X76798147Y-72976574D01*
X76906320Y-73237727D01*
X77063363Y-73472759D01*
X77263241Y-73672637D01*
X77495759Y-73828000D01*
X77263241Y-73983363D01*
X77063363Y-74183241D01*
X76906320Y-74418273D01*
X76798147Y-74679426D01*
X76743000Y-74956665D01*
X76743000Y-75239335D01*
X76798147Y-75516574D01*
X76906320Y-75777727D01*
X77063363Y-76012759D01*
X77263241Y-76212637D01*
X77495759Y-76368000D01*
X77263241Y-76523363D01*
X77063363Y-76723241D01*
X76906320Y-76958273D01*
X76798147Y-77219426D01*
X76743000Y-77496665D01*
X76743000Y-77779335D01*
X76798147Y-78056574D01*
X76906320Y-78317727D01*
X77063363Y-78552759D01*
X77263241Y-78752637D01*
X77495759Y-78908000D01*
X77263241Y-79063363D01*
X77063363Y-79263241D01*
X76906320Y-79498273D01*
X76798147Y-79759426D01*
X76743000Y-80036665D01*
X76743000Y-80319335D01*
X76798147Y-80596574D01*
X76906320Y-80857727D01*
X77063363Y-81092759D01*
X77263241Y-81292637D01*
X77498273Y-81449680D01*
X77759426Y-81557853D01*
X78036665Y-81613000D01*
X78319335Y-81613000D01*
X78596574Y-81557853D01*
X78857727Y-81449680D01*
X79092759Y-81292637D01*
X79292637Y-81092759D01*
X79449680Y-80857727D01*
X79557853Y-80596574D01*
X79613000Y-80319335D01*
X79613000Y-80036665D01*
X79557853Y-79759426D01*
X79449680Y-79498273D01*
X79369317Y-79378000D01*
X84359928Y-79378000D01*
X84359928Y-80978000D01*
X84372188Y-81102482D01*
X84408498Y-81222180D01*
X84467463Y-81332494D01*
X84546815Y-81429185D01*
X84643506Y-81508537D01*
X84753820Y-81567502D01*
X84873518Y-81603812D01*
X84998000Y-81616072D01*
X86598000Y-81616072D01*
X86722482Y-81603812D01*
X86842180Y-81567502D01*
X86952494Y-81508537D01*
X87049185Y-81429185D01*
X87128537Y-81332494D01*
X87187502Y-81222180D01*
X87223812Y-81102482D01*
X87236072Y-80978000D01*
X87236072Y-79378000D01*
X87223812Y-79253518D01*
X87187502Y-79133820D01*
X87128537Y-79023506D01*
X87049185Y-78926815D01*
X86952494Y-78847463D01*
X86842180Y-78788498D01*
X86722482Y-78752188D01*
X86714039Y-78751357D01*
X86912637Y-78552759D01*
X87069680Y-78317727D01*
X87177853Y-78056574D01*
X87233000Y-77779335D01*
X87233000Y-77496665D01*
X87177853Y-77219426D01*
X87069680Y-76958273D01*
X86912637Y-76723241D01*
X86712759Y-76523363D01*
X86480241Y-76368000D01*
X86712759Y-76212637D01*
X86912637Y-76012759D01*
X87069680Y-75777727D01*
X87177853Y-75516574D01*
X87233000Y-75239335D01*
X87233000Y-74956665D01*
X87177853Y-74679426D01*
X87069680Y-74418273D01*
X86912637Y-74183241D01*
X86712759Y-73983363D01*
X86480241Y-73828000D01*
X86712759Y-73672637D01*
X86912637Y-73472759D01*
X87069680Y-73237727D01*
X87177853Y-72976574D01*
X87233000Y-72699335D01*
X87233000Y-72416665D01*
X87177853Y-72139426D01*
X87069680Y-71878273D01*
X86912637Y-71643241D01*
X86712759Y-71443363D01*
X86480241Y-71288000D01*
X86712759Y-71132637D01*
X86912637Y-70932759D01*
X87069680Y-70697727D01*
X87177853Y-70436574D01*
X87233000Y-70159335D01*
X87233000Y-69876665D01*
X87177853Y-69599426D01*
X87069680Y-69338273D01*
X86912637Y-69103241D01*
X86712759Y-68903363D01*
X86480241Y-68748000D01*
X86712759Y-68592637D01*
X86912637Y-68392759D01*
X87069680Y-68157727D01*
X87177853Y-67896574D01*
X87233000Y-67619335D01*
X87233000Y-67336665D01*
X87177853Y-67059426D01*
X87069680Y-66798273D01*
X86912637Y-66563241D01*
X86712759Y-66363363D01*
X86480241Y-66208000D01*
X86712759Y-66052637D01*
X86912637Y-65852759D01*
X87069680Y-65617727D01*
X87177853Y-65356574D01*
X87233000Y-65079335D01*
X87233000Y-64796665D01*
X87177853Y-64519426D01*
X87069680Y-64258273D01*
X86912637Y-64023241D01*
X86712759Y-63823363D01*
X86477727Y-63666320D01*
X86467135Y-63661933D01*
X86653131Y-63550385D01*
X86861519Y-63361414D01*
X87029037Y-63135420D01*
X87149246Y-62881087D01*
X87189904Y-62747039D01*
X87067915Y-62525000D01*
X85925000Y-62525000D01*
X85925000Y-62545000D01*
X85671000Y-62545000D01*
X85671000Y-62525000D01*
X84528085Y-62525000D01*
X84406096Y-62747039D01*
X84446754Y-62881087D01*
X84566963Y-63135420D01*
X84734481Y-63361414D01*
X84942869Y-63550385D01*
X85128865Y-63661933D01*
X85118273Y-63666320D01*
X84883241Y-63823363D01*
X84683363Y-64023241D01*
X84526320Y-64258273D01*
X84418147Y-64519426D01*
X84363000Y-64796665D01*
X84363000Y-65079335D01*
X84418147Y-65356574D01*
X84526320Y-65617727D01*
X84683363Y-65852759D01*
X84883241Y-66052637D01*
X85115759Y-66208000D01*
X84883241Y-66363363D01*
X84683363Y-66563241D01*
X84526320Y-66798273D01*
X84418147Y-67059426D01*
X84363000Y-67336665D01*
X84363000Y-67619335D01*
X84418147Y-67896574D01*
X84526320Y-68157727D01*
X84683363Y-68392759D01*
X84883241Y-68592637D01*
X85115759Y-68748000D01*
X84883241Y-68903363D01*
X84683363Y-69103241D01*
X84526320Y-69338273D01*
X84418147Y-69599426D01*
X84363000Y-69876665D01*
X84363000Y-70159335D01*
X84418147Y-70436574D01*
X84526320Y-70697727D01*
X84683363Y-70932759D01*
X84883241Y-71132637D01*
X85115759Y-71288000D01*
X84883241Y-71443363D01*
X84683363Y-71643241D01*
X84526320Y-71878273D01*
X84418147Y-72139426D01*
X84363000Y-72416665D01*
X84363000Y-72699335D01*
X84418147Y-72976574D01*
X84526320Y-73237727D01*
X84683363Y-73472759D01*
X84883241Y-73672637D01*
X85115759Y-73828000D01*
X84883241Y-73983363D01*
X84683363Y-74183241D01*
X84526320Y-74418273D01*
X84418147Y-74679426D01*
X84363000Y-74956665D01*
X84363000Y-75239335D01*
X84418147Y-75516574D01*
X84526320Y-75777727D01*
X84683363Y-76012759D01*
X84883241Y-76212637D01*
X85115759Y-76368000D01*
X84883241Y-76523363D01*
X84683363Y-76723241D01*
X84526320Y-76958273D01*
X84418147Y-77219426D01*
X84363000Y-77496665D01*
X84363000Y-77779335D01*
X84418147Y-78056574D01*
X84526320Y-78317727D01*
X84683363Y-78552759D01*
X84881961Y-78751357D01*
X84873518Y-78752188D01*
X84753820Y-78788498D01*
X84643506Y-78847463D01*
X84546815Y-78926815D01*
X84467463Y-79023506D01*
X84408498Y-79133820D01*
X84372188Y-79253518D01*
X84359928Y-79378000D01*
X79369317Y-79378000D01*
X79292637Y-79263241D01*
X79092759Y-79063363D01*
X78860241Y-78908000D01*
X79092759Y-78752637D01*
X79292637Y-78552759D01*
X79449680Y-78317727D01*
X79557853Y-78056574D01*
X79613000Y-77779335D01*
X79613000Y-77496665D01*
X79557853Y-77219426D01*
X79449680Y-76958273D01*
X79292637Y-76723241D01*
X79092759Y-76523363D01*
X78860241Y-76368000D01*
X79092759Y-76212637D01*
X79292637Y-76012759D01*
X79449680Y-75777727D01*
X79557853Y-75516574D01*
X79613000Y-75239335D01*
X79613000Y-74956665D01*
X79557853Y-74679426D01*
X79449680Y-74418273D01*
X79292637Y-74183241D01*
X79092759Y-73983363D01*
X78860241Y-73828000D01*
X79092759Y-73672637D01*
X79292637Y-73472759D01*
X79449680Y-73237727D01*
X79557853Y-72976574D01*
X79613000Y-72699335D01*
X79613000Y-72416665D01*
X79557853Y-72139426D01*
X79449680Y-71878273D01*
X79292637Y-71643241D01*
X79092759Y-71443363D01*
X78860241Y-71288000D01*
X79092759Y-71132637D01*
X79292637Y-70932759D01*
X79449680Y-70697727D01*
X79557853Y-70436574D01*
X79613000Y-70159335D01*
X79613000Y-69876665D01*
X79557853Y-69599426D01*
X79449680Y-69338273D01*
X79292637Y-69103241D01*
X79092759Y-68903363D01*
X78860241Y-68748000D01*
X79092759Y-68592637D01*
X79292637Y-68392759D01*
X79449680Y-68157727D01*
X79557853Y-67896574D01*
X79613000Y-67619335D01*
X79613000Y-67336665D01*
X79557853Y-67059426D01*
X79449680Y-66798273D01*
X79292637Y-66563241D01*
X79092759Y-66363363D01*
X78860241Y-66208000D01*
X79092759Y-66052637D01*
X79292637Y-65852759D01*
X79449680Y-65617727D01*
X79557853Y-65356574D01*
X79613000Y-65079335D01*
X79613000Y-64796665D01*
X79557853Y-64519426D01*
X79449680Y-64258273D01*
X79292637Y-64023241D01*
X79256422Y-63987026D01*
X81194487Y-62048961D01*
X84406096Y-62048961D01*
X84528085Y-62271000D01*
X85671000Y-62271000D01*
X85671000Y-61127376D01*
X85925000Y-61127376D01*
X85925000Y-62271000D01*
X87067915Y-62271000D01*
X87189904Y-62048961D01*
X87149246Y-61914913D01*
X87029037Y-61660580D01*
X86861519Y-61434586D01*
X86653131Y-61245615D01*
X86411881Y-61100930D01*
X86147040Y-61006091D01*
X85925000Y-61127376D01*
X85671000Y-61127376D01*
X85448960Y-61006091D01*
X85184119Y-61100930D01*
X84942869Y-61245615D01*
X84734481Y-61434586D01*
X84566963Y-61660580D01*
X84446754Y-61914913D01*
X84406096Y-62048961D01*
X81194487Y-62048961D01*
X84285450Y-58957999D01*
X84489558Y-58957999D01*
X84463000Y-59091514D01*
X84463000Y-59354486D01*
X84514304Y-59612405D01*
X84614939Y-59855359D01*
X84761038Y-60074013D01*
X84946987Y-60259962D01*
X85165641Y-60406061D01*
X85408595Y-60506696D01*
X85666514Y-60558000D01*
X85929486Y-60558000D01*
X86187405Y-60506696D01*
X86430359Y-60406061D01*
X86649013Y-60259962D01*
X86834962Y-60074013D01*
X86981061Y-59855359D01*
X87081696Y-59612405D01*
X87133000Y-59354486D01*
X87133000Y-59091514D01*
X87081696Y-58833595D01*
X86981061Y-58590641D01*
X86853987Y-58400461D01*
X88342051Y-56912397D01*
X88305000Y-57098665D01*
X88305000Y-57381335D01*
X88360147Y-57658574D01*
X88468320Y-57919727D01*
X88625363Y-58154759D01*
X88825241Y-58354637D01*
X89057759Y-58510000D01*
X88825241Y-58665363D01*
X88625363Y-58865241D01*
X88468320Y-59100273D01*
X88360147Y-59361426D01*
X88305000Y-59638665D01*
X88305000Y-59921335D01*
X88360147Y-60198574D01*
X88468320Y-60459727D01*
X88625363Y-60694759D01*
X88825241Y-60894637D01*
X89057759Y-61050000D01*
X88825241Y-61205363D01*
X88625363Y-61405241D01*
X88468320Y-61640273D01*
X88360147Y-61901426D01*
X88305000Y-62178665D01*
X88305000Y-62461335D01*
X88360147Y-62738574D01*
X88468320Y-62999727D01*
X88625363Y-63234759D01*
X88825241Y-63434637D01*
X89057759Y-63590000D01*
X88825241Y-63745363D01*
X88625363Y-63945241D01*
X88468320Y-64180273D01*
X88360147Y-64441426D01*
X88305000Y-64718665D01*
X88305000Y-65001335D01*
X88360147Y-65278574D01*
X88468320Y-65539727D01*
X88625363Y-65774759D01*
X88825241Y-65974637D01*
X89057759Y-66130000D01*
X88825241Y-66285363D01*
X88625363Y-66485241D01*
X88468320Y-66720273D01*
X88360147Y-66981426D01*
X88305000Y-67258665D01*
X88305000Y-67541335D01*
X88360147Y-67818574D01*
X88468320Y-68079727D01*
X88625363Y-68314759D01*
X88825241Y-68514637D01*
X89057759Y-68670000D01*
X88825241Y-68825363D01*
X88625363Y-69025241D01*
X88468320Y-69260273D01*
X88360147Y-69521426D01*
X88305000Y-69798665D01*
X88305000Y-70081335D01*
X88360147Y-70358574D01*
X88468320Y-70619727D01*
X88625363Y-70854759D01*
X88825241Y-71054637D01*
X89057759Y-71210000D01*
X88825241Y-71365363D01*
X88625363Y-71565241D01*
X88468320Y-71800273D01*
X88360147Y-72061426D01*
X88305000Y-72338665D01*
X88305000Y-72621335D01*
X88360147Y-72898574D01*
X88468320Y-73159727D01*
X88625363Y-73394759D01*
X88825241Y-73594637D01*
X89057759Y-73750000D01*
X88825241Y-73905363D01*
X88625363Y-74105241D01*
X88468320Y-74340273D01*
X88360147Y-74601426D01*
X88305000Y-74878665D01*
X88305000Y-75161335D01*
X88360147Y-75438574D01*
X88468320Y-75699727D01*
X88625363Y-75934759D01*
X88825241Y-76134637D01*
X89057759Y-76290000D01*
X88825241Y-76445363D01*
X88625363Y-76645241D01*
X88468320Y-76880273D01*
X88360147Y-77141426D01*
X88305000Y-77418665D01*
X88305000Y-77701335D01*
X88360147Y-77978574D01*
X88468320Y-78239727D01*
X88625363Y-78474759D01*
X88825241Y-78674637D01*
X89060273Y-78831680D01*
X89321426Y-78939853D01*
X89598665Y-78995000D01*
X89881335Y-78995000D01*
X90158574Y-78939853D01*
X90419727Y-78831680D01*
X90654759Y-78674637D01*
X90854637Y-78474759D01*
X91011680Y-78239727D01*
X91032393Y-78189721D01*
X93865000Y-78189721D01*
X93865000Y-78610279D01*
X93947047Y-79022756D01*
X94107988Y-79411302D01*
X94341637Y-79760983D01*
X94639017Y-80058363D01*
X94988698Y-80292012D01*
X95377244Y-80452953D01*
X95789721Y-80535000D01*
X96210279Y-80535000D01*
X96622756Y-80452953D01*
X97011302Y-80292012D01*
X97360983Y-80058363D01*
X97658363Y-79760983D01*
X97892012Y-79411302D01*
X98052953Y-79022756D01*
X98135000Y-78610279D01*
X98135000Y-78189721D01*
X98052953Y-77777244D01*
X97892012Y-77388698D01*
X97658363Y-77039017D01*
X97360983Y-76741637D01*
X97011302Y-76507988D01*
X96622756Y-76347047D01*
X96210279Y-76265000D01*
X95789721Y-76265000D01*
X95377244Y-76347047D01*
X94988698Y-76507988D01*
X94639017Y-76741637D01*
X94341637Y-77039017D01*
X94107988Y-77388698D01*
X93947047Y-77777244D01*
X93865000Y-78189721D01*
X91032393Y-78189721D01*
X91119853Y-77978574D01*
X91175000Y-77701335D01*
X91175000Y-77418665D01*
X91119853Y-77141426D01*
X91011680Y-76880273D01*
X90854637Y-76645241D01*
X90654759Y-76445363D01*
X90422241Y-76290000D01*
X90654759Y-76134637D01*
X90854637Y-75934759D01*
X91011680Y-75699727D01*
X91119853Y-75438574D01*
X91175000Y-75161335D01*
X91175000Y-74878665D01*
X91119853Y-74601426D01*
X91011680Y-74340273D01*
X90854637Y-74105241D01*
X90654759Y-73905363D01*
X90422241Y-73750000D01*
X90654759Y-73594637D01*
X90854637Y-73394759D01*
X91011680Y-73159727D01*
X91032393Y-73109721D01*
X93865000Y-73109721D01*
X93865000Y-73530279D01*
X93947047Y-73942756D01*
X94107988Y-74331302D01*
X94341637Y-74680983D01*
X94639017Y-74978363D01*
X94988698Y-75212012D01*
X95377244Y-75372953D01*
X95789721Y-75455000D01*
X96210279Y-75455000D01*
X96622756Y-75372953D01*
X97011302Y-75212012D01*
X97360983Y-74978363D01*
X97658363Y-74680983D01*
X97892012Y-74331302D01*
X98052953Y-73942756D01*
X98135000Y-73530279D01*
X98135000Y-73109721D01*
X98052953Y-72697244D01*
X97892012Y-72308698D01*
X97658363Y-71959017D01*
X97360983Y-71661637D01*
X97011302Y-71427988D01*
X96622756Y-71267047D01*
X96210279Y-71185000D01*
X95789721Y-71185000D01*
X95377244Y-71267047D01*
X94988698Y-71427988D01*
X94639017Y-71661637D01*
X94341637Y-71959017D01*
X94107988Y-72308698D01*
X93947047Y-72697244D01*
X93865000Y-73109721D01*
X91032393Y-73109721D01*
X91119853Y-72898574D01*
X91175000Y-72621335D01*
X91175000Y-72338665D01*
X91119853Y-72061426D01*
X91011680Y-71800273D01*
X90854637Y-71565241D01*
X90654759Y-71365363D01*
X90422241Y-71210000D01*
X90654759Y-71054637D01*
X90854637Y-70854759D01*
X91011680Y-70619727D01*
X91119853Y-70358574D01*
X91175000Y-70081335D01*
X91175000Y-69798665D01*
X91119853Y-69521426D01*
X91011680Y-69260273D01*
X90854637Y-69025241D01*
X90654759Y-68825363D01*
X90422241Y-68670000D01*
X90654759Y-68514637D01*
X90854637Y-68314759D01*
X91011680Y-68079727D01*
X91032393Y-68029721D01*
X93865000Y-68029721D01*
X93865000Y-68450279D01*
X93947047Y-68862756D01*
X94107988Y-69251302D01*
X94341637Y-69600983D01*
X94639017Y-69898363D01*
X94988698Y-70132012D01*
X95377244Y-70292953D01*
X95789721Y-70375000D01*
X96210279Y-70375000D01*
X96622756Y-70292953D01*
X97011302Y-70132012D01*
X97360983Y-69898363D01*
X97658363Y-69600983D01*
X97892012Y-69251302D01*
X98052953Y-68862756D01*
X98135000Y-68450279D01*
X98135000Y-68029721D01*
X98052953Y-67617244D01*
X97892012Y-67228698D01*
X97658363Y-66879017D01*
X97360983Y-66581637D01*
X97011302Y-66347988D01*
X96622756Y-66187047D01*
X96210279Y-66105000D01*
X95789721Y-66105000D01*
X95377244Y-66187047D01*
X94988698Y-66347988D01*
X94639017Y-66581637D01*
X94341637Y-66879017D01*
X94107988Y-67228698D01*
X93947047Y-67617244D01*
X93865000Y-68029721D01*
X91032393Y-68029721D01*
X91119853Y-67818574D01*
X91175000Y-67541335D01*
X91175000Y-67258665D01*
X91119853Y-66981426D01*
X91011680Y-66720273D01*
X90854637Y-66485241D01*
X90654759Y-66285363D01*
X90422241Y-66130000D01*
X90654759Y-65974637D01*
X90854637Y-65774759D01*
X91011680Y-65539727D01*
X91119853Y-65278574D01*
X91175000Y-65001335D01*
X91175000Y-64718665D01*
X91119853Y-64441426D01*
X91011680Y-64180273D01*
X90854637Y-63945241D01*
X90654759Y-63745363D01*
X90422241Y-63590000D01*
X90654759Y-63434637D01*
X90854637Y-63234759D01*
X91011680Y-62999727D01*
X91032393Y-62949721D01*
X93865000Y-62949721D01*
X93865000Y-63370279D01*
X93947047Y-63782756D01*
X94107988Y-64171302D01*
X94341637Y-64520983D01*
X94639017Y-64818363D01*
X94988698Y-65052012D01*
X95377244Y-65212953D01*
X95789721Y-65295000D01*
X96210279Y-65295000D01*
X96622756Y-65212953D01*
X97011302Y-65052012D01*
X97360983Y-64818363D01*
X97658363Y-64520983D01*
X97892012Y-64171302D01*
X98052953Y-63782756D01*
X98135000Y-63370279D01*
X98135000Y-62949721D01*
X98052953Y-62537244D01*
X97892012Y-62148698D01*
X97658363Y-61799017D01*
X97360983Y-61501637D01*
X97011302Y-61267988D01*
X96622756Y-61107047D01*
X96210279Y-61025000D01*
X95789721Y-61025000D01*
X95377244Y-61107047D01*
X94988698Y-61267988D01*
X94639017Y-61501637D01*
X94341637Y-61799017D01*
X94107988Y-62148698D01*
X93947047Y-62537244D01*
X93865000Y-62949721D01*
X91032393Y-62949721D01*
X91119853Y-62738574D01*
X91175000Y-62461335D01*
X91175000Y-62178665D01*
X91119853Y-61901426D01*
X91011680Y-61640273D01*
X90854637Y-61405241D01*
X90654759Y-61205363D01*
X90422241Y-61050000D01*
X90654759Y-60894637D01*
X90854637Y-60694759D01*
X91011680Y-60459727D01*
X91119853Y-60198574D01*
X91175000Y-59921335D01*
X91175000Y-59638665D01*
X91119853Y-59361426D01*
X91011680Y-59100273D01*
X90854637Y-58865241D01*
X90654759Y-58665363D01*
X90422241Y-58510000D01*
X90654759Y-58354637D01*
X90854637Y-58154759D01*
X91011680Y-57919727D01*
X91032393Y-57869721D01*
X93865000Y-57869721D01*
X93865000Y-58290279D01*
X93947047Y-58702756D01*
X94107988Y-59091302D01*
X94341637Y-59440983D01*
X94639017Y-59738363D01*
X94988698Y-59972012D01*
X95377244Y-60132953D01*
X95789721Y-60215000D01*
X96210279Y-60215000D01*
X96622756Y-60132953D01*
X97011302Y-59972012D01*
X97360983Y-59738363D01*
X97658363Y-59440983D01*
X97892012Y-59091302D01*
X98052953Y-58702756D01*
X98135000Y-58290279D01*
X98135000Y-57869721D01*
X98052953Y-57457244D01*
X97892012Y-57068698D01*
X97658363Y-56719017D01*
X97360983Y-56421637D01*
X97011302Y-56187988D01*
X96622756Y-56027047D01*
X96210279Y-55945000D01*
X95789721Y-55945000D01*
X95377244Y-56027047D01*
X94988698Y-56187988D01*
X94639017Y-56421637D01*
X94341637Y-56719017D01*
X94107988Y-57068698D01*
X93947047Y-57457244D01*
X93865000Y-57869721D01*
X91032393Y-57869721D01*
X91119853Y-57658574D01*
X91175000Y-57381335D01*
X91175000Y-57098665D01*
X91119853Y-56821426D01*
X91011680Y-56560273D01*
X90961810Y-56485637D01*
X91334194Y-56113253D01*
X91362239Y-56090237D01*
X91454088Y-55978319D01*
X91522338Y-55850632D01*
X91564366Y-55712084D01*
X91575001Y-55604104D01*
X91575001Y-55604097D01*
X91578556Y-55568000D01*
X91575001Y-55531903D01*
X91575001Y-53736445D01*
X93867443Y-51444003D01*
X93861928Y-51500000D01*
X93861928Y-54500000D01*
X93874188Y-54624482D01*
X93910498Y-54744180D01*
X93969463Y-54854494D01*
X94048815Y-54951185D01*
X94145506Y-55030537D01*
X94255820Y-55089502D01*
X94375518Y-55125812D01*
X94500000Y-55138072D01*
X97500000Y-55138072D01*
X97624482Y-55125812D01*
X97744180Y-55089502D01*
X97854494Y-55030537D01*
X97951185Y-54951185D01*
X98030537Y-54854494D01*
X98089502Y-54744180D01*
X98125812Y-54624482D01*
X98138072Y-54500000D01*
X98138072Y-51500000D01*
X98125812Y-51375518D01*
X98089502Y-51255820D01*
X98030537Y-51145506D01*
X97951185Y-51048815D01*
X97854494Y-50969463D01*
X97744180Y-50910498D01*
X97624482Y-50874188D01*
X97500000Y-50861928D01*
X94500000Y-50861928D01*
X94444003Y-50867443D01*
X99211213Y-46100234D01*
X99239258Y-46077218D01*
X99331107Y-45965300D01*
X99367672Y-45896890D01*
X100058524Y-45896890D01*
X100103175Y-46044099D01*
X100228359Y-46306920D01*
X100402412Y-46540269D01*
X100618645Y-46735178D01*
X100868748Y-46884157D01*
X101143109Y-46981481D01*
X101373000Y-46860814D01*
X101373000Y-45667000D01*
X100179845Y-45667000D01*
X100058524Y-45896890D01*
X99367672Y-45896890D01*
X99399357Y-45837613D01*
X99430716Y-45734237D01*
X99441385Y-45699066D01*
X99446710Y-45645000D01*
X99452020Y-45591085D01*
X99452020Y-45591078D01*
X99455575Y-45554981D01*
X99452020Y-45518884D01*
X99452020Y-43547426D01*
X100015000Y-42984446D01*
X100015000Y-43146260D01*
X100072068Y-43433158D01*
X100184010Y-43703411D01*
X100346525Y-43946632D01*
X100553368Y-44153475D01*
X100735534Y-44275195D01*
X100618645Y-44344822D01*
X100402412Y-44539731D01*
X100228359Y-44773080D01*
X100103175Y-45035901D01*
X100058524Y-45183110D01*
X100179845Y-45413000D01*
X101373000Y-45413000D01*
X101373000Y-45393000D01*
X101627000Y-45393000D01*
X101627000Y-45413000D01*
X101647000Y-45413000D01*
X101647000Y-45667000D01*
X101627000Y-45667000D01*
X101627000Y-46860814D01*
X101856891Y-46981481D01*
X102131252Y-46884157D01*
X102340001Y-46759812D01*
X102340000Y-87840000D01*
X61660000Y-87840000D01*
X61660000Y-84107000D01*
X65006928Y-84107000D01*
X65006928Y-87107000D01*
X65019188Y-87231482D01*
X65055498Y-87351180D01*
X65114463Y-87461494D01*
X65193815Y-87558185D01*
X65290506Y-87637537D01*
X65400820Y-87696502D01*
X65520518Y-87732812D01*
X65645000Y-87745072D01*
X68645000Y-87745072D01*
X68769482Y-87732812D01*
X68889180Y-87696502D01*
X68999494Y-87637537D01*
X69096185Y-87558185D01*
X69175537Y-87461494D01*
X69234502Y-87351180D01*
X69270812Y-87231482D01*
X69283072Y-87107000D01*
X69283072Y-84779872D01*
X72765000Y-84779872D01*
X72765000Y-85220128D01*
X72850890Y-85651925D01*
X73019369Y-86058669D01*
X73263962Y-86424729D01*
X73575271Y-86736038D01*
X73941331Y-86980631D01*
X74348075Y-87149110D01*
X74779872Y-87235000D01*
X75220128Y-87235000D01*
X75651925Y-87149110D01*
X76058669Y-86980631D01*
X76424729Y-86736038D01*
X76736038Y-86424729D01*
X76980631Y-86058669D01*
X77149110Y-85651925D01*
X77235000Y-85220128D01*
X77235000Y-84779872D01*
X97265000Y-84779872D01*
X97265000Y-85220128D01*
X97350890Y-85651925D01*
X97519369Y-86058669D01*
X97763962Y-86424729D01*
X98075271Y-86736038D01*
X98441331Y-86980631D01*
X98848075Y-87149110D01*
X99279872Y-87235000D01*
X99720128Y-87235000D01*
X100151925Y-87149110D01*
X100558669Y-86980631D01*
X100924729Y-86736038D01*
X101236038Y-86424729D01*
X101480631Y-86058669D01*
X101649110Y-85651925D01*
X101735000Y-85220128D01*
X101735000Y-84779872D01*
X101649110Y-84348075D01*
X101480631Y-83941331D01*
X101236038Y-83575271D01*
X100924729Y-83263962D01*
X100558669Y-83019369D01*
X100151925Y-82850890D01*
X99720128Y-82765000D01*
X99279872Y-82765000D01*
X98848075Y-82850890D01*
X98441331Y-83019369D01*
X98075271Y-83263962D01*
X97763962Y-83575271D01*
X97519369Y-83941331D01*
X97350890Y-84348075D01*
X97265000Y-84779872D01*
X77235000Y-84779872D01*
X77149110Y-84348075D01*
X76980631Y-83941331D01*
X76736038Y-83575271D01*
X76424729Y-83263962D01*
X76058669Y-83019369D01*
X75651925Y-82850890D01*
X75220128Y-82765000D01*
X74779872Y-82765000D01*
X74348075Y-82850890D01*
X73941331Y-83019369D01*
X73575271Y-83263962D01*
X73263962Y-83575271D01*
X73019369Y-83941331D01*
X72850890Y-84348075D01*
X72765000Y-84779872D01*
X69283072Y-84779872D01*
X69283072Y-84107000D01*
X69270812Y-83982518D01*
X69234502Y-83862820D01*
X69175537Y-83752506D01*
X69096185Y-83655815D01*
X68999494Y-83576463D01*
X68889180Y-83517498D01*
X68769482Y-83481188D01*
X68645000Y-83468928D01*
X65645000Y-83468928D01*
X65520518Y-83481188D01*
X65400820Y-83517498D01*
X65290506Y-83576463D01*
X65193815Y-83655815D01*
X65114463Y-83752506D01*
X65055498Y-83862820D01*
X65019188Y-83982518D01*
X65006928Y-84107000D01*
X61660000Y-84107000D01*
X61660000Y-75236721D01*
X65010000Y-75236721D01*
X65010000Y-75657279D01*
X65092047Y-76069756D01*
X65252988Y-76458302D01*
X65486637Y-76807983D01*
X65784017Y-77105363D01*
X66133698Y-77339012D01*
X66522244Y-77499953D01*
X66934721Y-77582000D01*
X67355279Y-77582000D01*
X67767756Y-77499953D01*
X68156302Y-77339012D01*
X68505983Y-77105363D01*
X68803363Y-76807983D01*
X69037012Y-76458302D01*
X69197953Y-76069756D01*
X69280000Y-75657279D01*
X69280000Y-75236721D01*
X69197953Y-74824244D01*
X69037012Y-74435698D01*
X68803363Y-74086017D01*
X68505983Y-73788637D01*
X68156302Y-73554988D01*
X67767756Y-73394047D01*
X67355279Y-73312000D01*
X66934721Y-73312000D01*
X66522244Y-73394047D01*
X66133698Y-73554988D01*
X65784017Y-73788637D01*
X65486637Y-74086017D01*
X65252988Y-74435698D01*
X65092047Y-74824244D01*
X65010000Y-75236721D01*
X61660000Y-75236721D01*
X61660000Y-53627000D01*
X65006928Y-53627000D01*
X65006928Y-56627000D01*
X65019188Y-56751482D01*
X65055498Y-56871180D01*
X65114463Y-56981494D01*
X65193815Y-57078185D01*
X65290506Y-57157537D01*
X65400820Y-57216502D01*
X65520518Y-57252812D01*
X65645000Y-57265072D01*
X68645000Y-57265072D01*
X68769482Y-57252812D01*
X68889180Y-57216502D01*
X68999494Y-57157537D01*
X69096185Y-57078185D01*
X69175537Y-56981494D01*
X69234502Y-56871180D01*
X69270812Y-56751482D01*
X69283072Y-56627000D01*
X69283072Y-53627000D01*
X69270812Y-53502518D01*
X69234502Y-53382820D01*
X69175537Y-53272506D01*
X69096185Y-53175815D01*
X68999494Y-53096463D01*
X68889180Y-53037498D01*
X68769482Y-53001188D01*
X68645000Y-52988928D01*
X65645000Y-52988928D01*
X65520518Y-53001188D01*
X65400820Y-53037498D01*
X65290506Y-53096463D01*
X65193815Y-53175815D01*
X65114463Y-53272506D01*
X65055498Y-53382820D01*
X65019188Y-53502518D01*
X65006928Y-53627000D01*
X61660000Y-53627000D01*
X61660000Y-44756721D01*
X65010000Y-44756721D01*
X65010000Y-45177279D01*
X65092047Y-45589756D01*
X65252988Y-45978302D01*
X65486637Y-46327983D01*
X65784017Y-46625363D01*
X66133698Y-46859012D01*
X66522244Y-47019953D01*
X66934721Y-47102000D01*
X67355279Y-47102000D01*
X67767756Y-47019953D01*
X68156302Y-46859012D01*
X68505983Y-46625363D01*
X68803363Y-46327983D01*
X69037012Y-45978302D01*
X69197953Y-45589756D01*
X69280000Y-45177279D01*
X69280000Y-44756721D01*
X69197953Y-44344244D01*
X69037012Y-43955698D01*
X68803363Y-43606017D01*
X68505983Y-43308637D01*
X68156302Y-43074988D01*
X67767756Y-42914047D01*
X67355279Y-42832000D01*
X66934721Y-42832000D01*
X66522244Y-42914047D01*
X66133698Y-43074988D01*
X65784017Y-43308637D01*
X65486637Y-43606017D01*
X65252988Y-43955698D01*
X65092047Y-44344244D01*
X65010000Y-44756721D01*
X61660000Y-44756721D01*
X61660000Y-39676721D01*
X65010000Y-39676721D01*
X65010000Y-40097279D01*
X65092047Y-40509756D01*
X65252988Y-40898302D01*
X65486637Y-41247983D01*
X65784017Y-41545363D01*
X66133698Y-41779012D01*
X66522244Y-41939953D01*
X66934721Y-42022000D01*
X67355279Y-42022000D01*
X67767756Y-41939953D01*
X68156302Y-41779012D01*
X68505983Y-41545363D01*
X68803363Y-41247983D01*
X69037012Y-40898302D01*
X69151460Y-40622000D01*
X73434302Y-40622000D01*
X73345506Y-40669463D01*
X73248815Y-40748815D01*
X73169463Y-40845506D01*
X73110498Y-40955820D01*
X73074188Y-41075518D01*
X73061928Y-41200000D01*
X73061928Y-42800000D01*
X73074188Y-42924482D01*
X73110498Y-43044180D01*
X73169463Y-43154494D01*
X73248815Y-43251185D01*
X73345506Y-43330537D01*
X73455820Y-43389502D01*
X73575518Y-43425812D01*
X73583961Y-43426643D01*
X73385363Y-43625241D01*
X73228320Y-43860273D01*
X73120147Y-44121426D01*
X73065000Y-44398665D01*
X73065000Y-44681335D01*
X73120147Y-44958574D01*
X73228320Y-45219727D01*
X73385363Y-45454759D01*
X73585241Y-45654637D01*
X73817759Y-45810000D01*
X73585241Y-45965363D01*
X73385363Y-46165241D01*
X73228320Y-46400273D01*
X73120147Y-46661426D01*
X73065000Y-46938665D01*
X73065000Y-47221335D01*
X73120147Y-47498574D01*
X73228320Y-47759727D01*
X73385363Y-47994759D01*
X73585241Y-48194637D01*
X73820273Y-48351680D01*
X73830865Y-48356067D01*
X73644869Y-48467615D01*
X73436481Y-48656586D01*
X73268963Y-48882580D01*
X73148754Y-49136913D01*
X73108096Y-49270961D01*
X73230085Y-49493000D01*
X74373000Y-49493000D01*
X74373000Y-49473000D01*
X74627000Y-49473000D01*
X74627000Y-49493000D01*
X75769915Y-49493000D01*
X75891904Y-49270961D01*
X75851246Y-49136913D01*
X75731037Y-48882580D01*
X75563519Y-48656586D01*
X75355131Y-48467615D01*
X75169135Y-48356067D01*
X75179727Y-48351680D01*
X75414759Y-48194637D01*
X75614637Y-47994759D01*
X75771680Y-47759727D01*
X75879853Y-47498574D01*
X75935000Y-47221335D01*
X75935000Y-46938665D01*
X75879853Y-46661426D01*
X75771680Y-46400273D01*
X75614637Y-46165241D01*
X75414759Y-45965363D01*
X75182241Y-45810000D01*
X75414759Y-45654637D01*
X75614637Y-45454759D01*
X75771680Y-45219727D01*
X75879853Y-44958574D01*
X75935000Y-44681335D01*
X75935000Y-44398665D01*
X75879853Y-44121426D01*
X75771680Y-43860273D01*
X75614637Y-43625241D01*
X75416039Y-43426643D01*
X75424482Y-43425812D01*
X75544180Y-43389502D01*
X75654494Y-43330537D01*
X75751185Y-43251185D01*
X75830537Y-43154494D01*
X75889502Y-43044180D01*
X75925812Y-42924482D01*
X75938072Y-42800000D01*
X75938072Y-41846000D01*
X78879928Y-41846000D01*
X78879928Y-43846000D01*
X78892188Y-43970482D01*
X78928498Y-44090180D01*
X78987463Y-44200494D01*
X79066815Y-44297185D01*
X79163506Y-44376537D01*
X79273820Y-44435502D01*
X79393518Y-44471812D01*
X79518000Y-44484072D01*
X81518000Y-44484072D01*
X81642482Y-44471812D01*
X81762180Y-44435502D01*
X81872494Y-44376537D01*
X81969185Y-44297185D01*
X82048537Y-44200494D01*
X82107502Y-44090180D01*
X82143812Y-43970482D01*
X82156072Y-43846000D01*
X82156072Y-42684967D01*
X83883000Y-42684967D01*
X83883000Y-43007033D01*
X83945832Y-43322912D01*
X84069082Y-43620463D01*
X84248013Y-43888252D01*
X84475748Y-44115987D01*
X84743537Y-44294918D01*
X85041088Y-44418168D01*
X85356967Y-44481000D01*
X85679033Y-44481000D01*
X85994912Y-44418168D01*
X86292463Y-44294918D01*
X86560252Y-44115987D01*
X86787987Y-43888252D01*
X86966918Y-43620463D01*
X87090168Y-43322912D01*
X87153000Y-43007033D01*
X87153000Y-42684967D01*
X87090168Y-42369088D01*
X86966918Y-42071537D01*
X86824682Y-41858665D01*
X88305000Y-41858665D01*
X88305000Y-42141335D01*
X88360147Y-42418574D01*
X88468320Y-42679727D01*
X88625363Y-42914759D01*
X88825241Y-43114637D01*
X89060273Y-43271680D01*
X89070865Y-43276067D01*
X88884869Y-43387615D01*
X88676481Y-43576586D01*
X88508963Y-43802580D01*
X88388754Y-44056913D01*
X88348096Y-44190961D01*
X88470085Y-44413000D01*
X89613000Y-44413000D01*
X89613000Y-44393000D01*
X89867000Y-44393000D01*
X89867000Y-44413000D01*
X91009915Y-44413000D01*
X91131904Y-44190961D01*
X91091246Y-44056913D01*
X90971037Y-43802580D01*
X90803519Y-43576586D01*
X90595131Y-43387615D01*
X90409135Y-43276067D01*
X90419727Y-43271680D01*
X90654759Y-43114637D01*
X90846694Y-42922702D01*
X92962903Y-42922702D01*
X93034486Y-43166671D01*
X93289996Y-43287571D01*
X93564184Y-43356300D01*
X93846512Y-43370217D01*
X94126130Y-43328787D01*
X94392292Y-43233603D01*
X94517514Y-43166671D01*
X94589097Y-42922702D01*
X93776000Y-42109605D01*
X92962903Y-42922702D01*
X90846694Y-42922702D01*
X90854637Y-42914759D01*
X91011680Y-42679727D01*
X91119853Y-42418574D01*
X91175000Y-42141335D01*
X91175000Y-42000512D01*
X92335783Y-42000512D01*
X92377213Y-42280130D01*
X92472397Y-42546292D01*
X92539329Y-42671514D01*
X92783298Y-42743097D01*
X93596395Y-41930000D01*
X92783298Y-41116903D01*
X92539329Y-41188486D01*
X92418429Y-41443996D01*
X92349700Y-41718184D01*
X92335783Y-42000512D01*
X91175000Y-42000512D01*
X91175000Y-41858665D01*
X91119853Y-41581426D01*
X91011680Y-41320273D01*
X90854637Y-41085241D01*
X90706694Y-40937298D01*
X92962903Y-40937298D01*
X93776000Y-41750395D01*
X94589097Y-40937298D01*
X94517514Y-40693329D01*
X94262004Y-40572429D01*
X93987816Y-40503700D01*
X93705488Y-40489783D01*
X93425870Y-40531213D01*
X93159708Y-40626397D01*
X93034486Y-40693329D01*
X92962903Y-40937298D01*
X90706694Y-40937298D01*
X90654759Y-40885363D01*
X90419727Y-40728320D01*
X90158574Y-40620147D01*
X89881335Y-40565000D01*
X89598665Y-40565000D01*
X89321426Y-40620147D01*
X89060273Y-40728320D01*
X88825241Y-40885363D01*
X88625363Y-41085241D01*
X88468320Y-41320273D01*
X88360147Y-41581426D01*
X88305000Y-41858665D01*
X86824682Y-41858665D01*
X86787987Y-41803748D01*
X86560252Y-41576013D01*
X86292463Y-41397082D01*
X85994912Y-41273832D01*
X85679033Y-41211000D01*
X85356967Y-41211000D01*
X85041088Y-41273832D01*
X84743537Y-41397082D01*
X84475748Y-41576013D01*
X84248013Y-41803748D01*
X84069082Y-42071537D01*
X83945832Y-42369088D01*
X83883000Y-42684967D01*
X82156072Y-42684967D01*
X82156072Y-41846000D01*
X82143812Y-41721518D01*
X82107502Y-41601820D01*
X82048537Y-41491506D01*
X81969185Y-41394815D01*
X81872494Y-41315463D01*
X81762180Y-41256498D01*
X81642482Y-41220188D01*
X81518000Y-41207928D01*
X79518000Y-41207928D01*
X79393518Y-41220188D01*
X79273820Y-41256498D01*
X79163506Y-41315463D01*
X79066815Y-41394815D01*
X78987463Y-41491506D01*
X78928498Y-41601820D01*
X78892188Y-41721518D01*
X78879928Y-41846000D01*
X75938072Y-41846000D01*
X75938072Y-41200000D01*
X75925812Y-41075518D01*
X75889502Y-40955820D01*
X75830537Y-40845506D01*
X75751185Y-40748815D01*
X75654494Y-40669463D01*
X75565698Y-40622000D01*
X76058290Y-40622000D01*
X76118227Y-40681937D01*
X76287745Y-40795205D01*
X76476103Y-40873226D01*
X76676062Y-40913000D01*
X76879940Y-40913000D01*
X77079899Y-40873226D01*
X77268257Y-40795205D01*
X77437775Y-40681937D01*
X77581938Y-40537774D01*
X77695206Y-40368256D01*
X77773227Y-40179898D01*
X77813001Y-39979939D01*
X77813001Y-39776061D01*
X77773227Y-39576102D01*
X77695206Y-39387744D01*
X77581938Y-39218226D01*
X77437775Y-39074063D01*
X77268257Y-38960795D01*
X77079899Y-38882774D01*
X76879940Y-38843000D01*
X76676062Y-38843000D01*
X76476103Y-38882774D01*
X76287745Y-38960795D01*
X76118227Y-39074063D01*
X76040290Y-39152000D01*
X69151460Y-39152000D01*
X69037012Y-38875698D01*
X68803363Y-38526017D01*
X68505983Y-38228637D01*
X68156302Y-37994988D01*
X67767756Y-37834047D01*
X67355279Y-37752000D01*
X66934721Y-37752000D01*
X66522244Y-37834047D01*
X66133698Y-37994988D01*
X65784017Y-38228637D01*
X65486637Y-38526017D01*
X65252988Y-38875698D01*
X65092047Y-39264244D01*
X65010000Y-39676721D01*
X61660000Y-39676721D01*
X61660000Y-37684967D01*
X78883000Y-37684967D01*
X78883000Y-38007033D01*
X78945832Y-38322912D01*
X79069082Y-38620463D01*
X79248013Y-38888252D01*
X79475748Y-39115987D01*
X79743537Y-39294918D01*
X80041088Y-39418168D01*
X80356967Y-39481000D01*
X80679033Y-39481000D01*
X80994912Y-39418168D01*
X81292463Y-39294918D01*
X81560252Y-39115987D01*
X81787987Y-38888252D01*
X81966918Y-38620463D01*
X82090168Y-38322912D01*
X82109358Y-38226435D01*
X83927871Y-38226435D01*
X84032644Y-38529344D01*
X84194499Y-38805992D01*
X84407215Y-39045748D01*
X84662618Y-39239399D01*
X84950893Y-39379502D01*
X85137566Y-39436124D01*
X85391000Y-39316777D01*
X85391000Y-37973000D01*
X85645000Y-37973000D01*
X85645000Y-39316777D01*
X85898434Y-39436124D01*
X86085107Y-39379502D01*
X86373382Y-39239399D01*
X86628785Y-39045748D01*
X86841501Y-38805992D01*
X86967283Y-38591000D01*
X93861928Y-38591000D01*
X93861928Y-39641000D01*
X93874188Y-39765482D01*
X93910498Y-39885180D01*
X93969463Y-39995494D01*
X94048815Y-40092185D01*
X94145506Y-40171537D01*
X94255820Y-40230502D01*
X94375518Y-40266812D01*
X94500000Y-40279072D01*
X96000000Y-40279072D01*
X96124482Y-40266812D01*
X96244180Y-40230502D01*
X96354494Y-40171537D01*
X96451185Y-40092185D01*
X96530537Y-39995494D01*
X96589502Y-39885180D01*
X96625812Y-39765482D01*
X96638072Y-39641000D01*
X96638072Y-38591000D01*
X96625812Y-38466518D01*
X96589502Y-38346820D01*
X96554824Y-38281943D01*
X96585272Y-38213337D01*
X96593964Y-38151810D01*
X96468163Y-37973000D01*
X96150235Y-37973000D01*
X96124482Y-37965188D01*
X96000000Y-37952928D01*
X94500000Y-37952928D01*
X94375518Y-37965188D01*
X94349765Y-37973000D01*
X94031837Y-37973000D01*
X93906036Y-38151810D01*
X93914728Y-38213337D01*
X93945176Y-38281943D01*
X93910498Y-38346820D01*
X93874188Y-38466518D01*
X93861928Y-38591000D01*
X86967283Y-38591000D01*
X87003356Y-38529344D01*
X87108129Y-38226435D01*
X86989315Y-37973000D01*
X85645000Y-37973000D01*
X85391000Y-37973000D01*
X84046685Y-37973000D01*
X83927871Y-38226435D01*
X82109358Y-38226435D01*
X82153000Y-38007033D01*
X82153000Y-37684967D01*
X82109359Y-37465565D01*
X83927871Y-37465565D01*
X84046685Y-37719000D01*
X85391000Y-37719000D01*
X85391000Y-36375223D01*
X85645000Y-36375223D01*
X85645000Y-37719000D01*
X86989315Y-37719000D01*
X87108129Y-37465565D01*
X87003356Y-37162656D01*
X86841501Y-36886008D01*
X86628785Y-36646252D01*
X86536131Y-36576000D01*
X93859388Y-36576000D01*
X93881785Y-36803400D01*
X93948115Y-37022060D01*
X94048929Y-37210669D01*
X94007725Y-37269118D01*
X93914728Y-37478663D01*
X93906036Y-37540190D01*
X94031837Y-37719000D01*
X94796891Y-37719000D01*
X94797600Y-37719215D01*
X94968021Y-37736000D01*
X95531979Y-37736000D01*
X95702400Y-37719215D01*
X95703109Y-37719000D01*
X96468163Y-37719000D01*
X96593964Y-37540190D01*
X96585272Y-37478663D01*
X96492275Y-37269118D01*
X96451071Y-37210669D01*
X96551885Y-37022060D01*
X96618215Y-36803400D01*
X96640612Y-36576000D01*
X96618215Y-36348600D01*
X96551885Y-36129940D01*
X96444171Y-35928421D01*
X96299212Y-35751788D01*
X96122579Y-35606829D01*
X95921060Y-35499115D01*
X95702400Y-35432785D01*
X95531979Y-35416000D01*
X94968021Y-35416000D01*
X94797600Y-35432785D01*
X94578940Y-35499115D01*
X94377421Y-35606829D01*
X94200788Y-35751788D01*
X94055829Y-35928421D01*
X93948115Y-36129940D01*
X93881785Y-36348600D01*
X93859388Y-36576000D01*
X86536131Y-36576000D01*
X86373382Y-36452601D01*
X86085107Y-36312498D01*
X85898434Y-36255876D01*
X85645000Y-36375223D01*
X85391000Y-36375223D01*
X85137566Y-36255876D01*
X84950893Y-36312498D01*
X84662618Y-36452601D01*
X84407215Y-36646252D01*
X84194499Y-36886008D01*
X84032644Y-37162656D01*
X83927871Y-37465565D01*
X82109359Y-37465565D01*
X82090168Y-37369088D01*
X81966918Y-37071537D01*
X81787987Y-36803748D01*
X81560252Y-36576013D01*
X81292463Y-36397082D01*
X80994912Y-36273832D01*
X80679033Y-36211000D01*
X80356967Y-36211000D01*
X80041088Y-36273832D01*
X79743537Y-36397082D01*
X79475748Y-36576013D01*
X79248013Y-36803748D01*
X79069082Y-37071537D01*
X78945832Y-37369088D01*
X78883000Y-37684967D01*
X61660000Y-37684967D01*
X61660000Y-34596721D01*
X65010000Y-34596721D01*
X65010000Y-35017279D01*
X65092047Y-35429756D01*
X65252988Y-35818302D01*
X65486637Y-36167983D01*
X65784017Y-36465363D01*
X66133698Y-36699012D01*
X66522244Y-36859953D01*
X66934721Y-36942000D01*
X67355279Y-36942000D01*
X67767756Y-36859953D01*
X68156302Y-36699012D01*
X68505983Y-36465363D01*
X68803363Y-36167983D01*
X69037012Y-35818302D01*
X69197953Y-35429756D01*
X69280000Y-35017279D01*
X69280000Y-34833702D01*
X92952903Y-34833702D01*
X93024486Y-35077671D01*
X93279996Y-35198571D01*
X93554184Y-35267300D01*
X93836512Y-35281217D01*
X94116130Y-35239787D01*
X94382292Y-35144603D01*
X94507514Y-35077671D01*
X94579097Y-34833702D01*
X93766000Y-34020605D01*
X92952903Y-34833702D01*
X69280000Y-34833702D01*
X69280000Y-34596721D01*
X69197953Y-34184244D01*
X69084984Y-33911512D01*
X92325783Y-33911512D01*
X92367213Y-34191130D01*
X92462397Y-34457292D01*
X92529329Y-34582514D01*
X92773298Y-34654097D01*
X93586395Y-33841000D01*
X93945605Y-33841000D01*
X94758702Y-34654097D01*
X95002671Y-34582514D01*
X95016324Y-34553659D01*
X95151363Y-34755759D01*
X95351241Y-34955637D01*
X95586273Y-35112680D01*
X95847426Y-35220853D01*
X96124665Y-35276000D01*
X96407335Y-35276000D01*
X96684574Y-35220853D01*
X96945727Y-35112680D01*
X97180759Y-34955637D01*
X97380637Y-34755759D01*
X97537680Y-34520727D01*
X97645853Y-34259574D01*
X97701000Y-33982335D01*
X97701000Y-33699665D01*
X97645853Y-33422426D01*
X97537680Y-33161273D01*
X97380637Y-32926241D01*
X97180759Y-32726363D01*
X96945727Y-32569320D01*
X96684574Y-32461147D01*
X96407335Y-32406000D01*
X96124665Y-32406000D01*
X95847426Y-32461147D01*
X95586273Y-32569320D01*
X95351241Y-32726363D01*
X95151363Y-32926241D01*
X95017308Y-33126869D01*
X95002671Y-33099486D01*
X94758702Y-33027903D01*
X93945605Y-33841000D01*
X93586395Y-33841000D01*
X92773298Y-33027903D01*
X92529329Y-33099486D01*
X92408429Y-33354996D01*
X92339700Y-33629184D01*
X92325783Y-33911512D01*
X69084984Y-33911512D01*
X69037012Y-33795698D01*
X68803363Y-33446017D01*
X68505983Y-33148637D01*
X68156302Y-32914988D01*
X67995299Y-32848298D01*
X92952903Y-32848298D01*
X93766000Y-33661395D01*
X94579097Y-32848298D01*
X94507514Y-32604329D01*
X94252004Y-32483429D01*
X93977816Y-32414700D01*
X93695488Y-32400783D01*
X93415870Y-32442213D01*
X93149708Y-32537397D01*
X93024486Y-32604329D01*
X92952903Y-32848298D01*
X67995299Y-32848298D01*
X67767756Y-32754047D01*
X67355279Y-32672000D01*
X66934721Y-32672000D01*
X66522244Y-32754047D01*
X66133698Y-32914988D01*
X65784017Y-33148637D01*
X65486637Y-33446017D01*
X65252988Y-33795698D01*
X65092047Y-34184244D01*
X65010000Y-34596721D01*
X61660000Y-34596721D01*
X61660000Y-29516721D01*
X65010000Y-29516721D01*
X65010000Y-29937279D01*
X65092047Y-30349756D01*
X65252988Y-30738302D01*
X65486637Y-31087983D01*
X65784017Y-31385363D01*
X66133698Y-31619012D01*
X66522244Y-31779953D01*
X66934721Y-31862000D01*
X67355279Y-31862000D01*
X67767756Y-31779953D01*
X68156302Y-31619012D01*
X68505983Y-31385363D01*
X68803363Y-31087983D01*
X69037012Y-30738302D01*
X69155834Y-30451438D01*
X93132505Y-30451438D01*
X93171605Y-30691549D01*
X93256798Y-30919418D01*
X93297652Y-30995852D01*
X93521236Y-31043159D01*
X94191395Y-30373000D01*
X93521236Y-29702841D01*
X93297652Y-29750148D01*
X93196763Y-29971516D01*
X93141000Y-30208313D01*
X93132505Y-30451438D01*
X69155834Y-30451438D01*
X69197953Y-30349756D01*
X69280000Y-29937279D01*
X69280000Y-29523236D01*
X93700841Y-29523236D01*
X94371000Y-30193395D01*
X94385143Y-30179253D01*
X94564748Y-30358858D01*
X94550605Y-30373000D01*
X94564748Y-30387143D01*
X94385143Y-30566748D01*
X94371000Y-30552605D01*
X93700841Y-31222764D01*
X93748148Y-31446348D01*
X93969516Y-31547237D01*
X94206313Y-31603000D01*
X94449438Y-31611495D01*
X94689549Y-31572395D01*
X94903117Y-31492549D01*
X94916506Y-31503537D01*
X95026820Y-31562502D01*
X95146518Y-31598812D01*
X95271000Y-31611072D01*
X96471000Y-31611072D01*
X96595482Y-31598812D01*
X96715180Y-31562502D01*
X96825494Y-31503537D01*
X96922185Y-31424185D01*
X97001537Y-31327494D01*
X97060502Y-31217180D01*
X97096812Y-31097482D01*
X97109072Y-30973000D01*
X97109072Y-29773000D01*
X97096812Y-29648518D01*
X97060502Y-29528820D01*
X97001537Y-29418506D01*
X96922185Y-29321815D01*
X96825494Y-29242463D01*
X96715180Y-29183498D01*
X96595482Y-29147188D01*
X96471000Y-29134928D01*
X95271000Y-29134928D01*
X95146518Y-29147188D01*
X95026820Y-29183498D01*
X94916506Y-29242463D01*
X94899319Y-29256568D01*
X94772484Y-29198763D01*
X94535687Y-29143000D01*
X94292562Y-29134505D01*
X94052451Y-29173605D01*
X93824582Y-29258798D01*
X93748148Y-29299652D01*
X93700841Y-29523236D01*
X69280000Y-29523236D01*
X69280000Y-29516721D01*
X69197953Y-29104244D01*
X69037012Y-28715698D01*
X68803363Y-28366017D01*
X68505983Y-28068637D01*
X68156302Y-27834988D01*
X67767756Y-27674047D01*
X67355279Y-27592000D01*
X66934721Y-27592000D01*
X66522244Y-27674047D01*
X66133698Y-27834988D01*
X65784017Y-28068637D01*
X65486637Y-28366017D01*
X65252988Y-28715698D01*
X65092047Y-29104244D01*
X65010000Y-29516721D01*
X61660000Y-29516721D01*
X61660000Y-26000000D01*
X72281928Y-26000000D01*
X72294188Y-26124482D01*
X72330498Y-26244180D01*
X72389463Y-26354494D01*
X72468815Y-26451185D01*
X72565506Y-26530537D01*
X72675820Y-26589502D01*
X72795518Y-26625812D01*
X72920000Y-26638072D01*
X74134250Y-26635000D01*
X74293000Y-26476250D01*
X74293000Y-24627000D01*
X74547000Y-24627000D01*
X74547000Y-26476250D01*
X74705750Y-26635000D01*
X75920000Y-26638072D01*
X76044482Y-26625812D01*
X76164180Y-26589502D01*
X76274494Y-26530537D01*
X76371185Y-26451185D01*
X76450537Y-26354494D01*
X76509502Y-26244180D01*
X76545812Y-26124482D01*
X76558072Y-26000000D01*
X76555000Y-24785750D01*
X76396250Y-24627000D01*
X74547000Y-24627000D01*
X74293000Y-24627000D01*
X72443750Y-24627000D01*
X72285000Y-24785750D01*
X72281928Y-26000000D01*
X61660000Y-26000000D01*
X61660000Y-22279872D01*
X62765000Y-22279872D01*
X62765000Y-22720128D01*
X62850890Y-23151925D01*
X63019369Y-23558669D01*
X63263962Y-23924729D01*
X63575271Y-24236038D01*
X63941331Y-24480631D01*
X64348075Y-24649110D01*
X64779872Y-24735000D01*
X65220128Y-24735000D01*
X65651925Y-24649110D01*
X66058669Y-24480631D01*
X66424729Y-24236038D01*
X66736038Y-23924729D01*
X66980631Y-23558669D01*
X67149110Y-23151925D01*
X67179329Y-23000000D01*
X72281928Y-23000000D01*
X72285000Y-24214250D01*
X72443750Y-24373000D01*
X74293000Y-24373000D01*
X74293000Y-22523750D01*
X74547000Y-22523750D01*
X74547000Y-24373000D01*
X76396250Y-24373000D01*
X76479529Y-24289721D01*
X77365000Y-24289721D01*
X77365000Y-24710279D01*
X77447047Y-25122756D01*
X77607988Y-25511302D01*
X77841637Y-25860983D01*
X78139017Y-26158363D01*
X78488698Y-26392012D01*
X78877244Y-26552953D01*
X79289721Y-26635000D01*
X79710279Y-26635000D01*
X80122756Y-26552953D01*
X80511302Y-26392012D01*
X80860983Y-26158363D01*
X81158363Y-25860983D01*
X81392012Y-25511302D01*
X81552953Y-25122756D01*
X81635000Y-24710279D01*
X81635000Y-24289721D01*
X82445000Y-24289721D01*
X82445000Y-24710279D01*
X82527047Y-25122756D01*
X82687988Y-25511302D01*
X82921637Y-25860983D01*
X83219017Y-26158363D01*
X83568698Y-26392012D01*
X83957244Y-26552953D01*
X84369721Y-26635000D01*
X84790279Y-26635000D01*
X85202756Y-26552953D01*
X85591302Y-26392012D01*
X85940983Y-26158363D01*
X86238363Y-25860983D01*
X86472012Y-25511302D01*
X86632953Y-25122756D01*
X86715000Y-24710279D01*
X86715000Y-24289721D01*
X87525000Y-24289721D01*
X87525000Y-24710279D01*
X87607047Y-25122756D01*
X87767988Y-25511302D01*
X88001637Y-25860983D01*
X88299017Y-26158363D01*
X88648698Y-26392012D01*
X89037244Y-26552953D01*
X89449721Y-26635000D01*
X89870279Y-26635000D01*
X90282756Y-26552953D01*
X90671302Y-26392012D01*
X91020983Y-26158363D01*
X91318363Y-25860983D01*
X91552012Y-25511302D01*
X91712953Y-25122756D01*
X91795000Y-24710279D01*
X91795000Y-24289721D01*
X91712953Y-23877244D01*
X91552012Y-23488698D01*
X91318363Y-23139017D01*
X91020983Y-22841637D01*
X90671302Y-22607988D01*
X90282756Y-22447047D01*
X89870279Y-22365000D01*
X89449721Y-22365000D01*
X89037244Y-22447047D01*
X88648698Y-22607988D01*
X88299017Y-22841637D01*
X88001637Y-23139017D01*
X87767988Y-23488698D01*
X87607047Y-23877244D01*
X87525000Y-24289721D01*
X86715000Y-24289721D01*
X86632953Y-23877244D01*
X86472012Y-23488698D01*
X86238363Y-23139017D01*
X85940983Y-22841637D01*
X85591302Y-22607988D01*
X85202756Y-22447047D01*
X84790279Y-22365000D01*
X84369721Y-22365000D01*
X83957244Y-22447047D01*
X83568698Y-22607988D01*
X83219017Y-22841637D01*
X82921637Y-23139017D01*
X82687988Y-23488698D01*
X82527047Y-23877244D01*
X82445000Y-24289721D01*
X81635000Y-24289721D01*
X81552953Y-23877244D01*
X81392012Y-23488698D01*
X81158363Y-23139017D01*
X80860983Y-22841637D01*
X80511302Y-22607988D01*
X80122756Y-22447047D01*
X79710279Y-22365000D01*
X79289721Y-22365000D01*
X78877244Y-22447047D01*
X78488698Y-22607988D01*
X78139017Y-22841637D01*
X77841637Y-23139017D01*
X77607988Y-23488698D01*
X77447047Y-23877244D01*
X77365000Y-24289721D01*
X76479529Y-24289721D01*
X76555000Y-24214250D01*
X76558072Y-23000000D01*
X76545812Y-22875518D01*
X76509502Y-22755820D01*
X76450537Y-22645506D01*
X76371185Y-22548815D01*
X76274494Y-22469463D01*
X76164180Y-22410498D01*
X76044482Y-22374188D01*
X75920000Y-22361928D01*
X74705750Y-22365000D01*
X74547000Y-22523750D01*
X74293000Y-22523750D01*
X74134250Y-22365000D01*
X72920000Y-22361928D01*
X72795518Y-22374188D01*
X72675820Y-22410498D01*
X72565506Y-22469463D01*
X72468815Y-22548815D01*
X72389463Y-22645506D01*
X72330498Y-22755820D01*
X72294188Y-22875518D01*
X72281928Y-23000000D01*
X67179329Y-23000000D01*
X67235000Y-22720128D01*
X67235000Y-22279872D01*
X96765000Y-22279872D01*
X96765000Y-22720128D01*
X96850890Y-23151925D01*
X97019369Y-23558669D01*
X97263962Y-23924729D01*
X97575271Y-24236038D01*
X97941331Y-24480631D01*
X98348075Y-24649110D01*
X98779872Y-24735000D01*
X99220128Y-24735000D01*
X99651925Y-24649110D01*
X100058669Y-24480631D01*
X100424729Y-24236038D01*
X100736038Y-23924729D01*
X100980631Y-23558669D01*
X101149110Y-23151925D01*
X101235000Y-22720128D01*
X101235000Y-22279872D01*
X101149110Y-21848075D01*
X100980631Y-21441331D01*
X100736038Y-21075271D01*
X100424729Y-20763962D01*
X100058669Y-20519369D01*
X99651925Y-20350890D01*
X99220128Y-20265000D01*
X98779872Y-20265000D01*
X98348075Y-20350890D01*
X97941331Y-20519369D01*
X97575271Y-20763962D01*
X97263962Y-21075271D01*
X97019369Y-21441331D01*
X96850890Y-21848075D01*
X96765000Y-22279872D01*
X67235000Y-22279872D01*
X67149110Y-21848075D01*
X66980631Y-21441331D01*
X66736038Y-21075271D01*
X66424729Y-20763962D01*
X66058669Y-20519369D01*
X65651925Y-20350890D01*
X65220128Y-20265000D01*
X64779872Y-20265000D01*
X64348075Y-20350890D01*
X63941331Y-20519369D01*
X63575271Y-20763962D01*
X63263962Y-21075271D01*
X63019369Y-21441331D01*
X62850890Y-21848075D01*
X62765000Y-22279872D01*
X61660000Y-22279872D01*
X61660000Y-19160000D01*
X102340001Y-19160000D01*
X102340001Y-33891928D01*
G37*
%TD.AperFunction*%
D27*
X84463000Y-52233514D02*
X84463000Y-52496486D01*
X84514304Y-52754405D01*
X84614939Y-52997359D01*
X84761038Y-53216013D01*
X84946987Y-53401962D01*
X85105685Y-53508000D01*
X84946987Y-53614038D01*
X84761038Y-53799987D01*
X84614939Y-54018641D01*
X84514304Y-54261595D01*
X84463000Y-54519514D01*
X84463000Y-54782486D01*
X84489558Y-54916001D01*
X83323104Y-54916001D01*
X83286999Y-54912445D01*
X83142914Y-54926636D01*
X83004365Y-54968664D01*
X82876679Y-55036914D01*
X82764761Y-55128763D01*
X82741745Y-55156808D01*
X81833077Y-56065476D01*
X81816205Y-56024744D01*
X81702937Y-55855226D01*
X81558774Y-55711063D01*
X81389256Y-55597795D01*
X81200898Y-55519774D01*
X81000939Y-55480000D01*
X80797061Y-55480000D01*
X80597102Y-55519774D01*
X80408744Y-55597795D01*
X80239226Y-55711063D01*
X80095063Y-55855226D01*
X79981795Y-56024744D01*
X79903774Y-56213102D01*
X79864000Y-56413061D01*
X79864000Y-56616939D01*
X79903774Y-56816898D01*
X79981795Y-57005256D01*
X80095063Y-57174774D01*
X80239226Y-57318937D01*
X80408744Y-57432205D01*
X80449476Y-57449077D01*
X79339773Y-58558781D01*
X79214962Y-58371987D01*
X79029013Y-58186038D01*
X78870315Y-58080000D01*
X79029013Y-57973962D01*
X79214962Y-57788013D01*
X79361061Y-57569359D01*
X79461696Y-57326405D01*
X79513000Y-57068486D01*
X79513000Y-56805514D01*
X79461696Y-56547595D01*
X79361061Y-56304641D01*
X79307686Y-56224760D01*
X83432448Y-52099999D01*
X84489558Y-52099999D01*
X84463000Y-52233514D01*
%TA.AperFunction,Conductor*%
D28*
G36*
X84463000Y-52233514D02*
G01*
X84463000Y-52496486D01*
X84514304Y-52754405D01*
X84614939Y-52997359D01*
X84761038Y-53216013D01*
X84946987Y-53401962D01*
X85105685Y-53508000D01*
X84946987Y-53614038D01*
X84761038Y-53799987D01*
X84614939Y-54018641D01*
X84514304Y-54261595D01*
X84463000Y-54519514D01*
X84463000Y-54782486D01*
X84489558Y-54916001D01*
X83323104Y-54916001D01*
X83286999Y-54912445D01*
X83142914Y-54926636D01*
X83004365Y-54968664D01*
X82876679Y-55036914D01*
X82764761Y-55128763D01*
X82741745Y-55156808D01*
X81833077Y-56065476D01*
X81816205Y-56024744D01*
X81702937Y-55855226D01*
X81558774Y-55711063D01*
X81389256Y-55597795D01*
X81200898Y-55519774D01*
X81000939Y-55480000D01*
X80797061Y-55480000D01*
X80597102Y-55519774D01*
X80408744Y-55597795D01*
X80239226Y-55711063D01*
X80095063Y-55855226D01*
X79981795Y-56024744D01*
X79903774Y-56213102D01*
X79864000Y-56413061D01*
X79864000Y-56616939D01*
X79903774Y-56816898D01*
X79981795Y-57005256D01*
X80095063Y-57174774D01*
X80239226Y-57318937D01*
X80408744Y-57432205D01*
X80449476Y-57449077D01*
X79339773Y-58558781D01*
X79214962Y-58371987D01*
X79029013Y-58186038D01*
X78870315Y-58080000D01*
X79029013Y-57973962D01*
X79214962Y-57788013D01*
X79361061Y-57569359D01*
X79461696Y-57326405D01*
X79513000Y-57068486D01*
X79513000Y-56805514D01*
X79461696Y-56547595D01*
X79361061Y-56304641D01*
X79307686Y-56224760D01*
X83432448Y-52099999D01*
X84489558Y-52099999D01*
X84463000Y-52233514D01*
G37*
%TD.AperFunction*%
D27*
X100015000Y-37773740D02*
X100015000Y-38066260D01*
X100064656Y-38315897D01*
X98652000Y-39728554D01*
X98652000Y-39039446D01*
X100039158Y-37652288D01*
X100015000Y-37773740D01*
%TA.AperFunction,Conductor*%
D28*
G36*
X100015000Y-37773740D02*
G01*
X100015000Y-38066260D01*
X100064656Y-38315897D01*
X98652000Y-39728554D01*
X98652000Y-39039446D01*
X100039158Y-37652288D01*
X100015000Y-37773740D01*
G37*
%TD.AperFunction*%
%TD*%
M02*
