%TF.GenerationSoftware,KiCad,Pcbnew,(5.1.12)-1*%
%TF.CreationDate,2022-01-07T12:55:28+01:00*%
%TF.ProjectId,leddriver,6c656464-7269-4766-9572-2e6b69636164,rev?*%
%TF.SameCoordinates,Original*%
%TF.FileFunction,Soldermask,Top*%
%TF.FilePolarity,Negative*%
%FSLAX46Y46*%
G04 Gerber Fmt 4.6, Leading zero omitted, Abs format (unit mm)*
G04 Created by KiCad (PCBNEW (5.1.12)-1) date 2022-01-07 12:55:28*
%MOMM*%
%LPD*%
G01*
G04 APERTURE LIST*
%ADD10C,1.700000*%
%ADD11C,3.300000*%
%ADD12O,1.600000X1.150000*%
%ADD13O,1.700000X1.700000*%
%ADD14O,1.500000X1.500000*%
%ADD15C,1.500000*%
%ADD16C,1.300000*%
%ADD17C,3.100000*%
%ADD18O,1.800000X1.800000*%
%ADD19O,2.100000X2.100000*%
G04 APERTURE END LIST*
D10*
%TO.C,C4*%
X93766000Y-33841000D03*
X96266000Y-33841000D03*
%TD*%
D11*
%TO.C,REF\u002A\u002A*%
X99000000Y-22500000D03*
%TD*%
%TO.C,REF\u002A\u002A*%
X65000000Y-22500000D03*
%TD*%
%TO.C,REF\u002A\u002A*%
X99500000Y-85000000D03*
%TD*%
%TO.C,REF\u002A\u002A*%
X75000000Y-85000000D03*
%TD*%
%TO.C,U1*%
G36*
G01*
X96000000Y-39691000D02*
X94500000Y-39691000D01*
G75*
G02*
X94450000Y-39641000I0J50000D01*
G01*
X94450000Y-38591000D01*
G75*
G02*
X94500000Y-38541000I50000J0D01*
G01*
X96000000Y-38541000D01*
G75*
G02*
X96050000Y-38591000I0J-50000D01*
G01*
X96050000Y-39641000D01*
G75*
G02*
X96000000Y-39691000I-50000J0D01*
G01*
G37*
D12*
X95250000Y-36576000D03*
X95250000Y-37846000D03*
%TD*%
D13*
%TO.C,U2*%
X78178000Y-80178000D03*
X85798000Y-62398000D03*
X78178000Y-77638000D03*
X85798000Y-64938000D03*
X78178000Y-75098000D03*
X85798000Y-67478000D03*
X78178000Y-72558000D03*
X85798000Y-70018000D03*
X78178000Y-70018000D03*
X85798000Y-72558000D03*
X78178000Y-67478000D03*
X85798000Y-75098000D03*
X78178000Y-64938000D03*
X85798000Y-77638000D03*
X78178000Y-62398000D03*
G36*
G01*
X86648000Y-79378000D02*
X86648000Y-80978000D01*
G75*
G02*
X86598000Y-81028000I-50000J0D01*
G01*
X84998000Y-81028000D01*
G75*
G02*
X84948000Y-80978000I0J50000D01*
G01*
X84948000Y-79378000D01*
G75*
G02*
X84998000Y-79328000I50000J0D01*
G01*
X86598000Y-79328000D01*
G75*
G02*
X86648000Y-79378000I0J-50000D01*
G01*
G37*
%TD*%
D14*
%TO.C,R6*%
X85798000Y-59223000D03*
D15*
X78178000Y-59223000D03*
%TD*%
D14*
%TO.C,R5*%
X85798000Y-56937000D03*
D15*
X78178000Y-56937000D03*
%TD*%
D14*
%TO.C,R4*%
X85798000Y-54651000D03*
D15*
X78178000Y-54651000D03*
%TD*%
D14*
%TO.C,R3*%
X85798000Y-52365000D03*
D15*
X78178000Y-52365000D03*
%TD*%
D14*
%TO.C,R2*%
X85798000Y-50079000D03*
D15*
X78178000Y-50079000D03*
%TD*%
D14*
%TO.C,R1*%
X85798000Y-47793000D03*
D15*
X78178000Y-47793000D03*
%TD*%
D10*
%TO.C,C3*%
X93776000Y-41930000D03*
X96276000Y-41930000D03*
%TD*%
D16*
%TO.C,C2*%
X94395000Y-45417000D03*
G36*
G01*
X96545000Y-44817000D02*
X96545000Y-46017000D01*
G75*
G02*
X96495000Y-46067000I-50000J0D01*
G01*
X95295000Y-46067000D01*
G75*
G02*
X95245000Y-46017000I0J50000D01*
G01*
X95245000Y-44817000D01*
G75*
G02*
X95295000Y-44767000I50000J0D01*
G01*
X96495000Y-44767000D01*
G75*
G02*
X96545000Y-44817000I0J-50000D01*
G01*
G37*
%TD*%
%TO.C,C1*%
X94371000Y-30373000D03*
G36*
G01*
X96521000Y-29773000D02*
X96521000Y-30973000D01*
G75*
G02*
X96471000Y-31023000I-50000J0D01*
G01*
X95271000Y-31023000D01*
G75*
G02*
X95221000Y-30973000I0J50000D01*
G01*
X95221000Y-29773000D01*
G75*
G02*
X95271000Y-29723000I50000J0D01*
G01*
X96471000Y-29723000D01*
G75*
G02*
X96521000Y-29773000I0J-50000D01*
G01*
G37*
%TD*%
D17*
%TO.C,J4*%
X67145000Y-60207000D03*
X67145000Y-65287000D03*
X67145000Y-70367000D03*
G36*
G01*
X68645000Y-87157000D02*
X65645000Y-87157000D01*
G75*
G02*
X65595000Y-87107000I0J50000D01*
G01*
X65595000Y-84107000D01*
G75*
G02*
X65645000Y-84057000I50000J0D01*
G01*
X68645000Y-84057000D01*
G75*
G02*
X68695000Y-84107000I0J-50000D01*
G01*
X68695000Y-87107000D01*
G75*
G02*
X68645000Y-87157000I-50000J0D01*
G01*
G37*
X67145000Y-75447000D03*
X67145000Y-80527000D03*
%TD*%
%TO.C,J3*%
X67145000Y-29727000D03*
X67145000Y-34807000D03*
X67145000Y-39887000D03*
G36*
G01*
X68645000Y-56677000D02*
X65645000Y-56677000D01*
G75*
G02*
X65595000Y-56627000I0J50000D01*
G01*
X65595000Y-53627000D01*
G75*
G02*
X65645000Y-53577000I50000J0D01*
G01*
X68645000Y-53577000D01*
G75*
G02*
X68695000Y-53627000I0J-50000D01*
G01*
X68695000Y-56627000D01*
G75*
G02*
X68645000Y-56677000I-50000J0D01*
G01*
G37*
X67145000Y-44967000D03*
X67145000Y-50047000D03*
%TD*%
%TO.C,J2*%
X96000000Y-78400000D03*
X96000000Y-73320000D03*
X96000000Y-68240000D03*
G36*
G01*
X94500000Y-51450000D02*
X97500000Y-51450000D01*
G75*
G02*
X97550000Y-51500000I0J-50000D01*
G01*
X97550000Y-54500000D01*
G75*
G02*
X97500000Y-54550000I-50000J0D01*
G01*
X94500000Y-54550000D01*
G75*
G02*
X94450000Y-54500000I0J50000D01*
G01*
X94450000Y-51500000D01*
G75*
G02*
X94500000Y-51450000I50000J0D01*
G01*
G37*
X96000000Y-63160000D03*
X96000000Y-58080000D03*
%TD*%
%TO.C,J1*%
X89660000Y-24500000D03*
G36*
G01*
X72870000Y-26000000D02*
X72870000Y-23000000D01*
G75*
G02*
X72920000Y-22950000I50000J0D01*
G01*
X75920000Y-22950000D01*
G75*
G02*
X75970000Y-23000000I0J-50000D01*
G01*
X75970000Y-26000000D01*
G75*
G02*
X75920000Y-26050000I-50000J0D01*
G01*
X72920000Y-26050000D01*
G75*
G02*
X72870000Y-26000000I0J50000D01*
G01*
G37*
X84580000Y-24500000D03*
X79500000Y-24500000D03*
%TD*%
D18*
%TO.C,J5*%
X101500000Y-45540000D03*
X101500000Y-43000000D03*
X101500000Y-40460000D03*
X101500000Y-37920000D03*
G36*
G01*
X100600000Y-36230000D02*
X100600000Y-34530000D01*
G75*
G02*
X100650000Y-34480000I50000J0D01*
G01*
X102350000Y-34480000D01*
G75*
G02*
X102400000Y-34530000I0J-50000D01*
G01*
X102400000Y-36230000D01*
G75*
G02*
X102350000Y-36280000I-50000J0D01*
G01*
X100650000Y-36280000D01*
G75*
G02*
X100600000Y-36230000I0J50000D01*
G01*
G37*
%TD*%
%TO.C,D1*%
G36*
G01*
X81518000Y-43896000D02*
X79518000Y-43896000D01*
G75*
G02*
X79468000Y-43846000I0J50000D01*
G01*
X79468000Y-41846000D01*
G75*
G02*
X79518000Y-41796000I50000J0D01*
G01*
X81518000Y-41796000D01*
G75*
G02*
X81568000Y-41846000I0J-50000D01*
G01*
X81568000Y-43846000D01*
G75*
G02*
X81518000Y-43896000I-50000J0D01*
G01*
G37*
D19*
X85518000Y-37846000D03*
X85518000Y-42846000D03*
X80518000Y-37846000D03*
%TD*%
D13*
%TO.C,A1*%
X89740000Y-77560000D03*
X74500000Y-77560000D03*
X89740000Y-42000000D03*
X74500000Y-75020000D03*
X89740000Y-44540000D03*
X74500000Y-72480000D03*
X89740000Y-47080000D03*
X74500000Y-69940000D03*
X89740000Y-49620000D03*
X74500000Y-67400000D03*
X89740000Y-52160000D03*
X74500000Y-64860000D03*
X89740000Y-54700000D03*
X74500000Y-62320000D03*
X89740000Y-57240000D03*
X74500000Y-59780000D03*
X89740000Y-59780000D03*
X74500000Y-57240000D03*
X89740000Y-62320000D03*
X74500000Y-54700000D03*
X89740000Y-64860000D03*
X74500000Y-52160000D03*
X89740000Y-67400000D03*
X74500000Y-49620000D03*
X89740000Y-69940000D03*
X74500000Y-47080000D03*
X89740000Y-72480000D03*
X74500000Y-44540000D03*
X89740000Y-75020000D03*
G36*
G01*
X73650000Y-42800000D02*
X73650000Y-41200000D01*
G75*
G02*
X73700000Y-41150000I50000J0D01*
G01*
X75300000Y-41150000D01*
G75*
G02*
X75350000Y-41200000I0J-50000D01*
G01*
X75350000Y-42800000D01*
G75*
G02*
X75300000Y-42850000I-50000J0D01*
G01*
X73700000Y-42850000D01*
G75*
G02*
X73650000Y-42800000I0J50000D01*
G01*
G37*
%TD*%
M02*
