M48
; DRILL file {KiCad (5.1.12)-1} date 01/07/22 12:55:26
; FORMAT={-:-/ absolute / inch / decimal}
; #@! TF.CreationDate,2022-01-07T12:55:26+01:00
; #@! TF.GenerationSoftware,Kicad,Pcbnew,(5.1.12)-1
; #@! TF.FileFunction,Plated,1,2,PTH
FMAT,2
INCH
T1C0.0157
T2C0.0236
T3C0.0276
T4C0.0295
T5C0.0315
T6C0.0394
T7C0.0598
%
G90
G05
T1
X2.5Y-3.31
X2.525Y-2.635
X2.53Y-1.085
X2.54Y-2.95
X2.75Y-1.88
X2.75Y-2.355
X2.765Y-1.475
X2.775Y-1.66
X2.78Y-2.11
X2.78Y-3.415
X2.97Y-1.325
X3.0228Y-1.57
X3.095Y-1.4
X3.185Y-2.225
X3.185Y-2.355
X3.185Y-3.36
X3.19Y-1.995
X3.19Y-3.115
X3.21Y-1.3
X3.22Y-2.585
X3.24Y-2.71
X3.245Y-1.615
X3.245Y-2.445
X3.25Y-2.125
X3.265Y-3.0
X3.275Y-1.875
X3.29Y-2.915
X3.445Y-1.41
X3.445Y-1.805
X3.45Y-3.09
X3.455Y-2.61
X3.455Y-2.86
X3.46Y-2.41
X3.49Y-0.84
X3.595Y-1.265
X3.6Y-3.25
X3.605Y-1.81
X3.63Y-1.54
X3.68Y-1.01
X3.705Y-3.32
X3.85Y-1.445
X3.875Y-2.405
X3.89Y-3.0
X3.905Y-1.29
X3.905Y-1.525
X3.915Y-1.095
X3.97Y-2.305
X3.975Y-3.02
T2
X3.7154Y-1.1958
X3.7163Y-1.7881
X3.7744Y-1.1958
X3.7754Y-1.7881
T3
X3.0779Y-1.8816
X3.0779Y-1.9716
X3.0779Y-2.0616
X3.0779Y-2.1516
X3.0779Y-2.2416
X3.0779Y-2.3316
X3.3779Y-1.8816
X3.3779Y-1.9716
X3.3779Y-2.0616
X3.3779Y-2.1516
X3.3779Y-2.2416
X3.3779Y-2.3316
T4
X3.75Y-1.44
X3.75Y-1.49
X3.75Y-1.54
T5
X3.0779Y-2.4566
X3.0779Y-2.5566
X3.0779Y-2.6566
X3.0779Y-2.7566
X3.0779Y-2.8566
X3.0779Y-2.9566
X3.0779Y-3.0566
X3.0779Y-3.1566
X3.3779Y-2.4566
X3.3779Y-2.5566
X3.3779Y-2.6566
X3.3779Y-2.7566
X3.3779Y-2.8566
X3.3779Y-2.9566
X3.3779Y-3.0566
X3.3779Y-3.1566
X3.6916Y-1.3323
X3.692Y-1.6508
X3.79Y-1.3323
X3.7904Y-1.6508
T6
X2.9331Y-1.6535
X2.9331Y-1.7535
X2.9331Y-1.8535
X2.9331Y-1.9535
X2.9331Y-2.0535
X2.9331Y-2.1535
X2.9331Y-2.2535
X2.9331Y-2.3535
X2.9331Y-2.4535
X2.9331Y-2.5535
X2.9331Y-2.6535
X2.9331Y-2.7535
X2.9331Y-2.8535
X2.9331Y-2.9535
X2.9331Y-3.0535
X3.17Y-1.49
X3.17Y-1.6869
X3.3669Y-1.49
X3.3669Y-1.6869
X3.5331Y-1.6535
X3.5331Y-1.7535
X3.5331Y-1.8535
X3.5331Y-1.9535
X3.5331Y-2.0535
X3.5331Y-2.1535
X3.5331Y-2.2535
X3.5331Y-2.3535
X3.5331Y-2.4535
X3.5331Y-2.5535
X3.5331Y-2.6535
X3.5331Y-2.7535
X3.5331Y-2.8535
X3.5331Y-2.9535
X3.5331Y-3.0535
X3.9961Y-1.3929
X3.9961Y-1.4929
X3.9961Y-1.5929
X3.9961Y-1.6929
X3.9961Y-1.7929
T7
X2.6435Y-1.1704
X2.6435Y-1.3704
X2.6435Y-1.5704
X2.6435Y-1.7704
X2.6435Y-1.9704
X2.6435Y-2.1704
X2.6435Y-2.3704
X2.6435Y-2.5704
X2.6435Y-2.7704
X2.6435Y-2.9704
X2.6435Y-3.1704
X2.6435Y-3.3704
X2.9299Y-0.9646
X3.1299Y-0.9646
X3.3299Y-0.9646
X3.5299Y-0.9646
X3.7795Y-2.0866
X3.7795Y-2.2866
X3.7795Y-2.4866
X3.7795Y-2.6866
X3.7795Y-2.8866
X3.7795Y-3.0866
T0
M30
